<mxfile host="app.diagrams.net" modified="2023-07-19T09:11:03.984Z" agent="Mozilla/5.0 (Macintosh; Intel Mac OS X 10_15_7) AppleWebKit/537.36 (KHTML, like Gecko) Chrome/114.0.0.0 Safari/537.36" etag="9mM40JlhjUbAVbW9oBxE" version="21.3.6" type="device">
  <diagram id="nkFZROGtfA_wBj9BustW" name="Page-1">
    <mxGraphModel dx="3287" dy="-1864" grid="1" gridSize="10" guides="1" tooltips="1" connect="1" arrows="1" fold="1" page="1" pageScale="1" pageWidth="827" pageHeight="1169" math="0" shadow="0">
      <root>
        <mxCell id="0" />
        <mxCell id="1" parent="0" />
        <mxCell id="W49r3LArJMThDxM0YYQx-15" value="browser" style="shape=image;html=1;verticalAlign=top;verticalLabelPosition=bottom;labelBackgroundColor=#ffffff;imageAspect=0;aspect=fixed;image=https://cdn4.iconfinder.com/data/icons/essentials-74/24/004_-_Website-128.png" vertex="1" parent="1">
          <mxGeometry x="-1040" y="3385.0000000000005" width="30" height="30" as="geometry" />
        </mxCell>
        <mxCell id="xo1NUKVzYjs7-2Tva7nT-76" style="edgeStyle=orthogonalEdgeStyle;rounded=0;orthogonalLoop=1;jettySize=auto;html=1;fontSize=11;" parent="1" source="xo1NUKVzYjs7-2Tva7nT-78" target="xo1NUKVzYjs7-2Tva7nT-91" edge="1">
          <mxGeometry relative="1" as="geometry" />
        </mxCell>
        <mxCell id="xo1NUKVzYjs7-2Tva7nT-77" value="" style="edgeStyle=orthogonalEdgeStyle;rounded=0;orthogonalLoop=1;jettySize=auto;html=1;" parent="1" source="xo1NUKVzYjs7-2Tva7nT-78" target="xo1NUKVzYjs7-2Tva7nT-113" edge="1">
          <mxGeometry relative="1" as="geometry" />
        </mxCell>
        <mxCell id="xo1NUKVzYjs7-2Tva7nT-78" value="Statement Constructor&lt;br style=&quot;font-size: 10px;&quot;&gt;(ffc-doc-statement-constructor)" style="rounded=1;whiteSpace=wrap;html=1;verticalAlign=top;fontSize=10;" parent="1" vertex="1">
          <mxGeometry x="-1703.75" y="2645" width="140" height="70" as="geometry" />
        </mxCell>
        <mxCell id="xo1NUKVzYjs7-2Tva7nT-79" value="" style="aspect=fixed;html=1;points=[];align=center;image;fontSize=12;image=img/lib/azure2/compute/Kubernetes_Services.svg;" parent="1" vertex="1">
          <mxGeometry x="-1648.75" y="2678.87" width="30" height="26.47" as="geometry" />
        </mxCell>
        <mxCell id="xo1NUKVzYjs7-2Tva7nT-87" style="edgeStyle=orthogonalEdgeStyle;rounded=0;orthogonalLoop=1;jettySize=auto;html=1;fontSize=11;" parent="1" source="xo1NUKVzYjs7-2Tva7nT-88" target="xo1NUKVzYjs7-2Tva7nT-90" edge="1">
          <mxGeometry relative="1" as="geometry" />
        </mxCell>
        <mxCell id="xo1NUKVzYjs7-2Tva7nT-88" value="ffc-pay-return&lt;br&gt;(topic)" style="sketch=0;aspect=fixed;html=1;points=[];align=center;image;fontSize=12;image=img/lib/mscae/Service_Bus.svg;" parent="1" vertex="1">
          <mxGeometry x="-1963.75" y="2540" width="30" height="30" as="geometry" />
        </mxCell>
        <mxCell id="xo1NUKVzYjs7-2Tva7nT-89" style="edgeStyle=orthogonalEdgeStyle;rounded=0;orthogonalLoop=1;jettySize=auto;html=1;entryX=0.5;entryY=0;entryDx=0;entryDy=0;fontSize=11;exitX=0.942;exitY=0.475;exitDx=0;exitDy=0;exitPerimeter=0;" parent="1" source="xo1NUKVzYjs7-2Tva7nT-90" target="xo1NUKVzYjs7-2Tva7nT-78" edge="1">
          <mxGeometry relative="1" as="geometry">
            <Array as="points">
              <mxPoint x="-1634" y="2554" />
            </Array>
            <mxPoint x="-1703.75" y="2555" as="sourcePoint" />
          </mxGeometry>
        </mxCell>
        <mxCell id="xo1NUKVzYjs7-2Tva7nT-90" value="ffc-doc-statement-constructor&lt;br&gt;(subscription)" style="sketch=0;aspect=fixed;html=1;points=[];align=center;image;fontSize=12;image=img/lib/mscae/Service_Bus.svg;" parent="1" vertex="1">
          <mxGeometry x="-1749.75" y="2540" width="30" height="30" as="geometry" />
        </mxCell>
        <mxCell id="xo1NUKVzYjs7-2Tva7nT-91" value="constructor database" style="aspect=fixed;html=1;points=[];align=center;image;fontSize=12;image=img/lib/azure2/databases/Azure_Database_PostgreSQL_Server.svg;" parent="1" vertex="1">
          <mxGeometry x="-1648.75" y="2750" width="30" height="40" as="geometry" />
        </mxCell>
        <mxCell id="xo1NUKVzYjs7-2Tva7nT-92" style="edgeStyle=orthogonalEdgeStyle;rounded=0;orthogonalLoop=1;jettySize=auto;html=1;fontSize=11;" parent="1" source="xo1NUKVzYjs7-2Tva7nT-93" target="xo1NUKVzYjs7-2Tva7nT-95" edge="1">
          <mxGeometry relative="1" as="geometry" />
        </mxCell>
        <mxCell id="xo1NUKVzYjs7-2Tva7nT-93" value="ffc-pay-submit&lt;br&gt;(topic)" style="sketch=0;aspect=fixed;html=1;points=[];align=center;image;fontSize=12;image=img/lib/mscae/Service_Bus.svg;" parent="1" vertex="1">
          <mxGeometry x="-1963.75" y="2450" width="30" height="30" as="geometry" />
        </mxCell>
        <mxCell id="xo1NUKVzYjs7-2Tva7nT-94" style="edgeStyle=orthogonalEdgeStyle;rounded=0;orthogonalLoop=1;jettySize=auto;html=1;entryX=0.5;entryY=0;entryDx=0;entryDy=0;fontSize=11;exitX=1.067;exitY=0.433;exitDx=0;exitDy=0;exitPerimeter=0;" parent="1" source="xo1NUKVzYjs7-2Tva7nT-95" target="xo1NUKVzYjs7-2Tva7nT-78" edge="1">
          <mxGeometry relative="1" as="geometry">
            <Array as="points">
              <mxPoint x="-1634" y="2463" />
            </Array>
            <mxPoint x="-1703.75" y="2465" as="sourcePoint" />
          </mxGeometry>
        </mxCell>
        <mxCell id="xo1NUKVzYjs7-2Tva7nT-95" value="ffc-doc-statement-constructor&lt;br&gt;(subscription)" style="sketch=0;aspect=fixed;html=1;points=[];align=center;image;fontSize=12;image=img/lib/mscae/Service_Bus.svg;" parent="1" vertex="1">
          <mxGeometry x="-1749.75" y="2450" width="30" height="30" as="geometry" />
        </mxCell>
        <mxCell id="xo1NUKVzYjs7-2Tva7nT-96" style="edgeStyle=orthogonalEdgeStyle;rounded=0;orthogonalLoop=1;jettySize=auto;html=1;fontSize=11;" parent="1" source="xo1NUKVzYjs7-2Tva7nT-97" target="xo1NUKVzYjs7-2Tva7nT-99" edge="1">
          <mxGeometry relative="1" as="geometry" />
        </mxCell>
        <mxCell id="xo1NUKVzYjs7-2Tva7nT-97" value="ffc-pay-processing&lt;br&gt;(topic)" style="sketch=0;aspect=fixed;html=1;points=[];align=center;image;fontSize=12;image=img/lib/mscae/Service_Bus.svg;" parent="1" vertex="1">
          <mxGeometry x="-1963.75" y="2370" width="30" height="30" as="geometry" />
        </mxCell>
        <mxCell id="xo1NUKVzYjs7-2Tva7nT-98" style="edgeStyle=orthogonalEdgeStyle;rounded=0;orthogonalLoop=1;jettySize=auto;html=1;entryX=0.5;entryY=0;entryDx=0;entryDy=0;fontSize=11;exitX=1.062;exitY=0.505;exitDx=0;exitDy=0;exitPerimeter=0;" parent="1" source="xo1NUKVzYjs7-2Tva7nT-99" target="xo1NUKVzYjs7-2Tva7nT-78" edge="1">
          <mxGeometry relative="1" as="geometry">
            <Array as="points">
              <mxPoint x="-1634" y="2385" />
            </Array>
            <mxPoint x="-1703.75" y="2385" as="sourcePoint" />
          </mxGeometry>
        </mxCell>
        <mxCell id="xo1NUKVzYjs7-2Tva7nT-99" value="ffc-doc-statement-constructor&lt;br&gt;(subscription)" style="sketch=0;aspect=fixed;html=1;points=[];align=center;image;fontSize=12;image=img/lib/mscae/Service_Bus.svg;" parent="1" vertex="1">
          <mxGeometry x="-1749.75" y="2370" width="30" height="30" as="geometry" />
        </mxCell>
        <mxCell id="xo1NUKVzYjs7-2Tva7nT-103" style="edgeStyle=orthogonalEdgeStyle;rounded=0;orthogonalLoop=1;jettySize=auto;html=1;entryX=-0.033;entryY=0.4;entryDx=0;entryDy=0;entryPerimeter=0;fontSize=11;" parent="1" source="xo1NUKVzYjs7-2Tva7nT-106" target="xo1NUKVzYjs7-2Tva7nT-97" edge="1">
          <mxGeometry relative="1" as="geometry" />
        </mxCell>
        <mxCell id="xo1NUKVzYjs7-2Tva7nT-104" style="edgeStyle=orthogonalEdgeStyle;rounded=0;orthogonalLoop=1;jettySize=auto;html=1;fontSize=11;" parent="1" source="xo1NUKVzYjs7-2Tva7nT-106" target="xo1NUKVzYjs7-2Tva7nT-93" edge="1">
          <mxGeometry relative="1" as="geometry" />
        </mxCell>
        <mxCell id="xo1NUKVzYjs7-2Tva7nT-105" style="edgeStyle=orthogonalEdgeStyle;rounded=0;orthogonalLoop=1;jettySize=auto;html=1;entryX=-0.033;entryY=0.6;entryDx=0;entryDy=0;entryPerimeter=0;fontSize=11;" parent="1" source="xo1NUKVzYjs7-2Tva7nT-106" target="xo1NUKVzYjs7-2Tva7nT-88" edge="1">
          <mxGeometry relative="1" as="geometry" />
        </mxCell>
        <mxCell id="xo1NUKVzYjs7-2Tva7nT-106" value="Strategic Payment Service" style="rounded=1;whiteSpace=wrap;html=1;verticalAlign=top;fontSize=11;" parent="1" vertex="1">
          <mxGeometry x="-2249.75" y="2430" width="140" height="70" as="geometry" />
        </mxCell>
        <mxCell id="xo1NUKVzYjs7-2Tva7nT-107" value="" style="aspect=fixed;html=1;points=[];align=center;image;fontSize=12;image=img/lib/azure2/compute/Kubernetes_Services.svg;" parent="1" vertex="1">
          <mxGeometry x="-2194.75" y="2458.87" width="30" height="26.47" as="geometry" />
        </mxCell>
        <mxCell id="xo1NUKVzYjs7-2Tva7nT-112" value="" style="edgeStyle=orthogonalEdgeStyle;rounded=0;orthogonalLoop=1;jettySize=auto;html=1;" parent="1" source="xo1NUKVzYjs7-2Tva7nT-113" target="xo1NUKVzYjs7-2Tva7nT-115" edge="1">
          <mxGeometry relative="1" as="geometry" />
        </mxCell>
        <mxCell id="xo1NUKVzYjs7-2Tva7nT-113" value="ffc-doc-statements&lt;br&gt;(topic)" style="sketch=0;aspect=fixed;html=1;points=[];align=center;image;fontSize=12;image=img/lib/mscae/Service_Bus.svg;" parent="1" vertex="1">
          <mxGeometry x="-1480" y="2665" width="30" height="30" as="geometry" />
        </mxCell>
        <mxCell id="xo1NUKVzYjs7-2Tva7nT-114" value="" style="edgeStyle=orthogonalEdgeStyle;rounded=0;orthogonalLoop=1;jettySize=auto;html=1;entryX=0;entryY=0.5;entryDx=0;entryDy=0;" parent="1" source="xo1NUKVzYjs7-2Tva7nT-115" target="hI1MMncq5XGI64NFk41I-14" edge="1">
          <mxGeometry relative="1" as="geometry">
            <mxPoint x="-1208.7500000000005" y="2680" as="targetPoint" />
          </mxGeometry>
        </mxCell>
        <mxCell id="xo1NUKVzYjs7-2Tva7nT-115" value="ffc-doc-statement-generator&lt;br&gt;(subscription)" style="sketch=0;aspect=fixed;html=1;points=[];align=center;image;fontSize=12;image=img/lib/mscae/Service_Bus.svg;" parent="1" vertex="1">
          <mxGeometry x="-1320" y="2665" width="30" height="30" as="geometry" />
        </mxCell>
        <mxCell id="xo1NUKVzYjs7-2Tva7nT-117" style="edgeStyle=orthogonalEdgeStyle;rounded=0;orthogonalLoop=1;jettySize=auto;html=1;entryX=0.042;entryY=0.55;entryDx=0;entryDy=0;entryPerimeter=0;fontSize=11;" parent="1" source="xo1NUKVzYjs7-2Tva7nT-118" target="xo1NUKVzYjs7-2Tva7nT-124" edge="1">
          <mxGeometry relative="1" as="geometry" />
        </mxCell>
        <mxCell id="xo1NUKVzYjs7-2Tva7nT-118" value="Data Warehouse" style="rounded=1;whiteSpace=wrap;html=1;verticalAlign=top;fontSize=12;" parent="1" vertex="1">
          <mxGeometry x="-2420" y="2738.13" width="140" height="70" as="geometry" />
        </mxCell>
        <mxCell id="xo1NUKVzYjs7-2Tva7nT-119" value="" style="shape=image;verticalLabelPosition=bottom;labelBackgroundColor=default;verticalAlign=top;aspect=fixed;imageAspect=0;image=https://zappysys.com/blog/wp-content/uploads/2018/05/informatica-powercenter-logo.png;" parent="1" vertex="1">
          <mxGeometry x="-2375" y="2757.24" width="50" height="50" as="geometry" />
        </mxCell>
        <mxCell id="xo1NUKVzYjs7-2Tva7nT-120" style="edgeStyle=orthogonalEdgeStyle;rounded=0;orthogonalLoop=1;jettySize=auto;html=1;fontSize=11;" parent="1" source="xo1NUKVzYjs7-2Tva7nT-122" target="xo1NUKVzYjs7-2Tva7nT-124" edge="1">
          <mxGeometry relative="1" as="geometry" />
        </mxCell>
        <mxCell id="xo1NUKVzYjs7-2Tva7nT-121" style="edgeStyle=orthogonalEdgeStyle;rounded=0;orthogonalLoop=1;jettySize=auto;html=1;entryX=0;entryY=0.5;entryDx=0;entryDy=0;" parent="1" source="xo1NUKVzYjs7-2Tva7nT-122" edge="1">
          <mxGeometry relative="1" as="geometry">
            <mxPoint x="-1719.5" y="2681.13" as="targetPoint" />
          </mxGeometry>
        </mxCell>
        <mxCell id="xo1NUKVzYjs7-2Tva7nT-122" value="Statement DWH Publisher&lt;br&gt;(ffc-doc-statement-data)" style="rounded=1;whiteSpace=wrap;html=1;verticalAlign=top;fontSize=11;" parent="1" vertex="1">
          <mxGeometry x="-2222.25" y="2646.13" width="140" height="70" as="geometry" />
        </mxCell>
        <mxCell id="xo1NUKVzYjs7-2Tva7nT-123" value="" style="aspect=fixed;html=1;points=[];align=center;image;fontSize=12;image=img/lib/azure2/compute/Kubernetes_Services.svg;" parent="1" vertex="1">
          <mxGeometry x="-2167.25" y="2681" width="30" height="26.47" as="geometry" />
        </mxCell>
        <mxCell id="xo1NUKVzYjs7-2Tva7nT-124" value="DWH database" style="aspect=fixed;html=1;points=[];align=center;image;fontSize=12;image=img/lib/azure2/databases/Azure_Database_PostgreSQL_Server.svg;" parent="1" vertex="1">
          <mxGeometry x="-2167.25" y="2751.13" width="30" height="40" as="geometry" />
        </mxCell>
        <mxCell id="xo1NUKVzYjs7-2Tva7nT-125" value="ffc-doc-statement-data&lt;br&gt;(topic)" style="sketch=0;aspect=fixed;html=1;points=[];align=center;image;fontSize=12;image=img/lib/mscae/Service_Bus.svg;" parent="1" vertex="1">
          <mxGeometry x="-2010" y="2646.13" width="30" height="30" as="geometry" />
        </mxCell>
        <mxCell id="xo1NUKVzYjs7-2Tva7nT-126" value="ffc-doc-statement-constructor&lt;br&gt;(subscription)" style="sketch=0;aspect=fixed;html=1;points=[];align=center;image;fontSize=12;image=img/lib/mscae/Service_Bus.svg;" parent="1" vertex="1">
          <mxGeometry x="-1840" y="2646.13" width="30" height="30" as="geometry" />
        </mxCell>
        <mxCell id="hI1MMncq5XGI64NFk41I-2" style="edgeStyle=orthogonalEdgeStyle;rounded=0;orthogonalLoop=1;jettySize=auto;html=1;fontSize=10;" parent="1" source="hI1MMncq5XGI64NFk41I-5" target="hI1MMncq5XGI64NFk41I-31" edge="1">
          <mxGeometry relative="1" as="geometry" />
        </mxCell>
        <mxCell id="hI1MMncq5XGI64NFk41I-3" style="edgeStyle=orthogonalEdgeStyle;rounded=0;orthogonalLoop=1;jettySize=auto;html=1;exitX=0.5;exitY=0;exitDx=0;exitDy=0;entryX=1;entryY=0.5;entryDx=0;entryDy=0;" parent="1" source="hI1MMncq5XGI64NFk41I-5" target="hI1MMncq5XGI64NFk41I-7" edge="1">
          <mxGeometry relative="1" as="geometry" />
        </mxCell>
        <mxCell id="dRDNByvPZef29nKmzsrK-3" style="edgeStyle=orthogonalEdgeStyle;rounded=0;orthogonalLoop=1;jettySize=auto;html=1;exitX=1;exitY=0.25;exitDx=0;exitDy=0;entryX=0;entryY=0.25;entryDx=0;entryDy=0;" parent="1" source="hI1MMncq5XGI64NFk41I-5" target="hI1MMncq5XGI64NFk41I-23" edge="1">
          <mxGeometry relative="1" as="geometry" />
        </mxCell>
        <mxCell id="dRDNByvPZef29nKmzsrK-6" style="edgeStyle=orthogonalEdgeStyle;rounded=0;orthogonalLoop=1;jettySize=auto;html=1;exitX=1;exitY=0.5;exitDx=0;exitDy=0;entryX=-0.051;entryY=0.454;entryDx=0;entryDy=0;entryPerimeter=0;" parent="1" source="hI1MMncq5XGI64NFk41I-5" target="hI1MMncq5XGI64NFk41I-39" edge="1">
          <mxGeometry relative="1" as="geometry">
            <mxPoint x="-350" y="2460" as="targetPoint" />
            <Array as="points">
              <mxPoint x="-430" y="2795" />
              <mxPoint x="-430" y="2454" />
            </Array>
          </mxGeometry>
        </mxCell>
        <mxCell id="hI1MMncq5XGI64NFk41I-5" value="Statement Publisher&lt;br style=&quot;font-size: 10px;&quot;&gt;(ffc-doc-statement-publisher)" style="rounded=1;whiteSpace=wrap;html=1;verticalAlign=top;fontSize=10;" parent="1" vertex="1">
          <mxGeometry x="-624" y="2760.38" width="140" height="70" as="geometry" />
        </mxCell>
        <mxCell id="hI1MMncq5XGI64NFk41I-6" value="" style="aspect=fixed;html=1;points=[];align=center;image;fontSize=12;image=img/lib/azure2/compute/Kubernetes_Services.svg;" parent="1" vertex="1">
          <mxGeometry x="-569" y="2795.25" width="30" height="26.47" as="geometry" />
        </mxCell>
        <mxCell id="hI1MMncq5XGI64NFk41I-7" value="Documents Blob Storage&lt;br style=&quot;font-size: 11px;&quot;&gt;(statements/outbound)" style="rounded=1;whiteSpace=wrap;html=1;verticalAlign=top;fontSize=11;" parent="1" vertex="1">
          <mxGeometry x="-915" y="2644.1" width="140" height="70" as="geometry" />
        </mxCell>
        <mxCell id="hI1MMncq5XGI64NFk41I-8" value="" style="verticalLabelPosition=bottom;html=1;verticalAlign=top;align=center;strokeColor=none;fillColor=#00BEF2;shape=mxgraph.azure.storage_blob;aspect=fixed;" parent="1" vertex="1">
          <mxGeometry x="-860" y="2683.21" width="30" height="27" as="geometry" />
        </mxCell>
        <mxCell id="hI1MMncq5XGI64NFk41I-9" value="Customer" style="shape=image;html=1;verticalAlign=top;verticalLabelPosition=bottom;labelBackgroundColor=#ffffff;imageAspect=0;aspect=fixed;image=https://cdn1.iconfinder.com/data/icons/CrystalClear/128x128/kdm/user_male.png;fontSize=11;" parent="1" vertex="1">
          <mxGeometry x="-97" y="2771.38" width="48" height="48" as="geometry" />
        </mxCell>
        <mxCell id="hI1MMncq5XGI64NFk41I-10" style="edgeStyle=orthogonalEdgeStyle;rounded=0;orthogonalLoop=1;jettySize=auto;html=1;" parent="1" source="hI1MMncq5XGI64NFk41I-14" target="hI1MMncq5XGI64NFk41I-16" edge="1">
          <mxGeometry relative="1" as="geometry" />
        </mxCell>
        <mxCell id="hI1MMncq5XGI64NFk41I-11" style="edgeStyle=orthogonalEdgeStyle;rounded=0;orthogonalLoop=1;jettySize=auto;html=1;exitX=1;exitY=0.5;exitDx=0;exitDy=0;entryX=-0.033;entryY=0.479;entryDx=0;entryDy=0;entryPerimeter=0;" parent="1" source="hI1MMncq5XGI64NFk41I-14" target="hI1MMncq5XGI64NFk41I-39" edge="1">
          <mxGeometry relative="1" as="geometry">
            <Array as="points">
              <mxPoint x="-995" y="2680" />
              <mxPoint x="-995" y="2455" />
              <mxPoint x="-590" y="2455" />
            </Array>
          </mxGeometry>
        </mxCell>
        <mxCell id="hI1MMncq5XGI64NFk41I-12" style="edgeStyle=orthogonalEdgeStyle;rounded=0;orthogonalLoop=1;jettySize=auto;html=1;" parent="1" source="hI1MMncq5XGI64NFk41I-14" target="hI1MMncq5XGI64NFk41I-7" edge="1">
          <mxGeometry relative="1" as="geometry" />
        </mxCell>
        <mxCell id="hI1MMncq5XGI64NFk41I-13" value="Publish" style="edgeLabel;html=1;align=center;verticalAlign=middle;resizable=0;points=[];" parent="hI1MMncq5XGI64NFk41I-12" vertex="1" connectable="0">
          <mxGeometry x="0.2187" relative="1" as="geometry">
            <mxPoint as="offset" />
          </mxGeometry>
        </mxCell>
        <mxCell id="hI1MMncq5XGI64NFk41I-14" value="Statement Generator&lt;br style=&quot;font-size: 10px;&quot;&gt;(ffc-doc-statement-generator)" style="rounded=1;whiteSpace=wrap;html=1;verticalAlign=top;fontSize=10;" parent="1" vertex="1">
          <mxGeometry x="-1190" y="2644.88" width="140" height="70" as="geometry" />
        </mxCell>
        <mxCell id="hI1MMncq5XGI64NFk41I-15" value="" style="aspect=fixed;html=1;points=[];align=center;image;fontSize=12;image=img/lib/azure2/compute/Kubernetes_Services.svg;" parent="1" vertex="1">
          <mxGeometry x="-1135" y="2680.88" width="30" height="26.47" as="geometry" />
        </mxCell>
        <mxCell id="hI1MMncq5XGI64NFk41I-16" value="generator database" style="aspect=fixed;html=1;points=[];align=center;image;fontSize=12;image=img/lib/azure2/databases/Azure_Database_PostgreSQL_Server.svg;" parent="1" vertex="1">
          <mxGeometry x="-1135" y="2749.88" width="30" height="40" as="geometry" />
        </mxCell>
        <mxCell id="hI1MMncq5XGI64NFk41I-17" value="" style="edgeStyle=orthogonalEdgeStyle;rounded=0;orthogonalLoop=1;jettySize=auto;html=1;entryX=-0.133;entryY=0.472;entryDx=0;entryDy=0;entryPerimeter=0;" parent="1" target="hI1MMncq5XGI64NFk41I-19" edge="1">
          <mxGeometry relative="1" as="geometry">
            <mxPoint x="-1050.0000000000005" y="2679.77" as="sourcePoint" />
            <Array as="points">
              <mxPoint x="-995" y="2679.88" />
              <mxPoint x="-995" y="2794.88" />
            </Array>
          </mxGeometry>
        </mxCell>
        <mxCell id="hI1MMncq5XGI64NFk41I-18" value="" style="edgeStyle=orthogonalEdgeStyle;rounded=0;orthogonalLoop=1;jettySize=auto;html=1;" parent="1" source="hI1MMncq5XGI64NFk41I-19" target="hI1MMncq5XGI64NFk41I-21" edge="1">
          <mxGeometry relative="1" as="geometry" />
        </mxCell>
        <mxCell id="hI1MMncq5XGI64NFk41I-19" value="ffc-doc-statement-publish&lt;br&gt;(topic)" style="sketch=0;aspect=fixed;html=1;points=[];align=center;image;fontSize=12;image=img/lib/mscae/Service_Bus.svg;" parent="1" vertex="1">
          <mxGeometry x="-919" y="2780.38" width="30" height="30" as="geometry" />
        </mxCell>
        <mxCell id="hI1MMncq5XGI64NFk41I-20" style="edgeStyle=orthogonalEdgeStyle;rounded=0;orthogonalLoop=1;jettySize=auto;html=1;entryX=0;entryY=0.5;entryDx=0;entryDy=0;" parent="1" source="hI1MMncq5XGI64NFk41I-21" target="hI1MMncq5XGI64NFk41I-5" edge="1">
          <mxGeometry relative="1" as="geometry" />
        </mxCell>
        <mxCell id="hI1MMncq5XGI64NFk41I-21" value="ffc-doc-statement-publisher&lt;br&gt;(subscription)" style="sketch=0;aspect=fixed;html=1;points=[];align=center;image;fontSize=12;image=img/lib/mscae/Service_Bus.svg;" parent="1" vertex="1">
          <mxGeometry x="-738.5" y="2780.4900000000002" width="30" height="30" as="geometry" />
        </mxCell>
        <mxCell id="hI1MMncq5XGI64NFk41I-67" value="" style="edgeStyle=orthogonalEdgeStyle;rounded=0;orthogonalLoop=1;jettySize=auto;html=1;endArrow=none;endFill=0;" parent="1" source="hI1MMncq5XGI64NFk41I-23" target="hI1MMncq5XGI64NFk41I-25" edge="1">
          <mxGeometry relative="1" as="geometry" />
        </mxCell>
        <mxCell id="dRDNByvPZef29nKmzsrK-2" style="edgeStyle=orthogonalEdgeStyle;rounded=0;orthogonalLoop=1;jettySize=auto;html=1;exitX=0;exitY=0.75;exitDx=0;exitDy=0;entryX=1;entryY=0.75;entryDx=0;entryDy=0;" parent="1" source="hI1MMncq5XGI64NFk41I-23" target="hI1MMncq5XGI64NFk41I-5" edge="1">
          <mxGeometry relative="1" as="geometry" />
        </mxCell>
        <mxCell id="hI1MMncq5XGI64NFk41I-23" value="GOV.UK Notify" style="rounded=1;whiteSpace=wrap;html=1;verticalAlign=top;fontSize=12;" parent="1" vertex="1">
          <mxGeometry x="-384" y="2760.3800000000006" width="140" height="70" as="geometry" />
        </mxCell>
        <mxCell id="hI1MMncq5XGI64NFk41I-24" value="" style="shape=image;verticalLabelPosition=bottom;labelBackgroundColor=default;verticalAlign=top;aspect=fixed;imageAspect=0;image=https://www.vectorlogo.zone/logos/govuk/govuk-ar21.png;" parent="1" vertex="1">
          <mxGeometry x="-354" y="2784.61" width="80" height="40" as="geometry" />
        </mxCell>
        <mxCell id="hI1MMncq5XGI64NFk41I-68" value="" style="edgeStyle=orthogonalEdgeStyle;rounded=0;orthogonalLoop=1;jettySize=auto;html=1;" parent="1" source="hI1MMncq5XGI64NFk41I-25" target="hI1MMncq5XGI64NFk41I-9" edge="1">
          <mxGeometry relative="1" as="geometry" />
        </mxCell>
        <mxCell id="hI1MMncq5XGI64NFk41I-25" value="email" style="outlineConnect=0;dashed=0;verticalLabelPosition=bottom;verticalAlign=top;align=center;html=1;shape=mxgraph.aws3.email;fillColor=#D9A741;gradientColor=none;aspect=fixed;" parent="1" vertex="1">
          <mxGeometry x="-190" y="2783.9900000000002" width="30" height="22.78" as="geometry" />
        </mxCell>
        <mxCell id="hI1MMncq5XGI64NFk41I-27" value="" style="shape=image;html=1;verticalAlign=top;verticalLabelPosition=bottom;labelBackgroundColor=#ffffff;imageAspect=0;aspect=fixed;image=https://cdn4.iconfinder.com/data/icons/file-extensions-1/64/pdfs-128.png" parent="1" vertex="1">
          <mxGeometry x="-526.94" y="2723.99" width="30" height="30" as="geometry" />
        </mxCell>
        <mxCell id="hI1MMncq5XGI64NFk41I-69" value="" style="edgeStyle=orthogonalEdgeStyle;rounded=0;orthogonalLoop=1;jettySize=auto;html=1;endArrow=none;endFill=0;" parent="1" source="hI1MMncq5XGI64NFk41I-29" target="hI1MMncq5XGI64NFk41I-30" edge="1">
          <mxGeometry relative="1" as="geometry" />
        </mxCell>
        <mxCell id="hI1MMncq5XGI64NFk41I-29" value="Internal user" style="shape=image;html=1;verticalAlign=top;verticalLabelPosition=bottom;labelBackgroundColor=#ffffff;imageAspect=0;aspect=fixed;image=https://cdn1.iconfinder.com/data/icons/CrystalClear/128x128/kdm/user_male.png;fontSize=11;" parent="1" vertex="1">
          <mxGeometry x="315" y="2447.21" width="48" height="48" as="geometry" />
        </mxCell>
        <mxCell id="hI1MMncq5XGI64NFk41I-70" value="" style="edgeStyle=orthogonalEdgeStyle;rounded=0;orthogonalLoop=1;jettySize=auto;html=1;" parent="1" source="hI1MMncq5XGI64NFk41I-30" target="hI1MMncq5XGI64NFk41I-32" edge="1">
          <mxGeometry relative="1" as="geometry" />
        </mxCell>
        <mxCell id="hI1MMncq5XGI64NFk41I-30" value="browser" style="sketch=0;pointerEvents=1;shadow=0;dashed=0;html=1;strokeColor=none;fillColor=#434445;aspect=fixed;labelPosition=center;verticalLabelPosition=bottom;verticalAlign=top;align=center;outlineConnect=0;shape=mxgraph.vvd.web_browser;" parent="1" vertex="1">
          <mxGeometry x="235" y="2460.56" width="30" height="21.3" as="geometry" />
        </mxCell>
        <mxCell id="hI1MMncq5XGI64NFk41I-31" value="publisher database" style="aspect=fixed;html=1;points=[];align=center;image;fontSize=12;image=img/lib/azure2/databases/Azure_Database_PostgreSQL_Server.svg;" parent="1" vertex="1">
          <mxGeometry x="-569" y="2866.38" width="30" height="40" as="geometry" />
        </mxCell>
        <mxCell id="hI1MMncq5XGI64NFk41I-62" style="edgeStyle=orthogonalEdgeStyle;rounded=0;orthogonalLoop=1;jettySize=auto;html=1;exitX=0;exitY=0.75;exitDx=0;exitDy=0;entryX=0.961;entryY=0.934;entryDx=0;entryDy=0;entryPerimeter=0;" parent="1" source="hI1MMncq5XGI64NFk41I-32" target="hI1MMncq5XGI64NFk41I-37" edge="1">
          <mxGeometry relative="1" as="geometry" />
        </mxCell>
        <mxCell id="hI1MMncq5XGI64NFk41I-32" value="Dynamics 365 (CRM)" style="rounded=1;whiteSpace=wrap;html=1;verticalAlign=top;fontSize=12;" parent="1" vertex="1">
          <mxGeometry x="47" y="2437.1" width="140" height="70" as="geometry" />
        </mxCell>
        <mxCell id="hI1MMncq5XGI64NFk41I-33" value="" style="shape=image;verticalLabelPosition=bottom;labelBackgroundColor=default;verticalAlign=top;aspect=fixed;imageAspect=0;image=data:image/png,UklGRlZ+AABXRUJQVlA4TEl+AAAv38F3ABFHjiRFjrKhBrkb///BbI2Xe0T/J4A/aFeMu4vnElCTygKoZ8HdKCf1wJgH1KHZXgxlZtDiwAbAAFPTySikIUCWMMYgpRVodiHclWWSTO43wt3tlRPuCrlLOebewr1ckEEbXgkBbZTevSThQO950Em2Bzo3O/90ArmNJEcSMWg0Bmq39rS+8t+es+LcWDG1J/6OI9lWlf7I938L9xgIgPwDYcnKXQuOJEmKZEUujph7DD1Tvcy8/Z8AvY4/X+o6o0PXJ30ij64QeuoBRkbHyTGP66oAoANk0uO7y+Muj6sSQA+AAMCiJuuX6zrMC/QkOKkHgLIvurJvItADOWBS8pICAGWJ2jCC03KihnK+03cAEOOGxhk9QMtrqKdAD2LwuyH3KwB6TkFMwAfpd8PHcZH7hbKr6ygAYOZpMd6tmvU/wwYAX5sSJcahbtBryO3f0641jYmgAIBe02vSptN0GhgYUCOdpKO00QgBAyGEFHTVFTk+QgUBCAGOSA0hKQDCgYGgBkgBwnUyEULoFQmw8/qePBaXhBBCmn1JkCQpSEZIV/EsnX0FSUmClKCblu+pu+/ee1SSAEmjq+7U7FA8/ffNZ1fdoTviit0pnnf8p2Zh2LZtJNvy/kv3uRS4ASJiAvT//vjJr5PwIHvbGj0kMR68SYL5eoKsYwWSBN2fksCAexESvgCcCug7QFjbDkhiraaAtukQbdXjgHpUqwfqE/WBoC/29gPbGu3q39S/47G2XbVtK2tfd3ePyGiUGopCATQjdXeO7RkciGdH15tSA4fMvqAnHeevwC0BreOsoCd/MvArOZZZT05E1guAVcAiHTgT509xd5drExkZ0cqR8GQLd5u4ZeRkJ0f2CWeK1oCUdCYro92UCtwKUICJJG4kSXKUqkFr+P8PsfA03Qzbtg0jud3+f3hTTABe+/9VS7ay967uqnap9qoubTl92uW43nuPG+4Oj8FLkHvmDpE7RO7urserT1VtCapa8LUivri7S6ozmMnCmVh4H2FHZDqRibumbhuPdCYnxCE8T7BxtzXI7wtgkV/NGTsl1cwdajD+uJPzFNcKn3h2U9xdV7KjO0Y/AhGpQ8gKOqEk27bqRjr3wWdJKYvNnMzcy24xY5PaFTWDGgONoYZRUVNgZjKD6P/3H1y6sW3LtpM5175PvaVApTAkwCM6MsAF6zfvnr1iArzW1vZst207Y5yiDJR/oraDrx/bE6gJ7DRkXnCTj76J/LSDQR6y4E5ErgN56Y1ATFDUmxXBnYjoNh95EuiJfPJ+giujL4E3C4Ug+GQ0qNxDEbVto6Qwxp/iPU8xkLZNd/+an5gAvdP+L5ZkOVWnmnluDzPz7oqZmZlN/Qn6h5iZmXWZYXCnaXimcaa5q7vOMarnwixUm6+YPfRYF36h+Ap+Yv1iXQUzHbEyFCn4OinuCFnMtHAEZSy1kWIeT8wMZSyJpRQzM/OFXkUwK8XMzMzwFVmKaEuxrpghnSNOMTNMyF0q8yc41p247lpicCtiLUyXbmTbrm1ljLnOe19r4REBUZCAioDo8T/WU3evScm2bbltc879ACjJTl2nlX7mPzgJ+O/GBHjN/t+1bfty9lrlfRXz3jtacbsQfA5F66kMvDkLzLn2ufegP/xEU+YLGun0+xQvbru8FujkSyasEJTAIFOG/uRiENoRTFDu0EblQvBSuUGGDB1cCdhN5RZoEdxUtrxtMSgJwSZHlcqWo41CrW3btTL3+f+DyhpLDSg8BdA6KreQM3fDkWxbtbLWef/jmccOkaXMf0JkeldMwAo49f+p/0/9f+r/U/+f+v/U/6+hveoFSpLY6hVGy5ZDH/NfHvUXqkE6lEM3ndOwQ6Yr8WNiqHHDheN9hJ+4t8+9u88ej4ZnJygC0lEwjE+Hv/N27NusuZFOPbVAzFQjzxe978nb7X9xP2iHedPt8pY0AAWmWjOqLav0/ptjnuTIwS5VLqDM1cRIFeahcG5XPe/0h86d7YzIAsFEKbIpqlq5O6VGGfhzT3r+uekCyyiLlJ2SmKgC7lfct27OXR3NbFAkmLwIUybW2Krh4nzmzDnhyvvG/unTLhPTrZkhiYGq8IFpb2fcB5o7x1fYo6AmADXvKDKSzar/e/Tj9+FOB4W9URZGxD6Phd6u24cOXl/Yo6AQNQlQtY7K/MQh2b1j+7kuZxlmIHWWItapwbvGfd/GOR72UhT4GtgTqHLtT7zz8NX7BXoUa2QGr1qUxDf3w+eOD5xbInsD+JS9V5eWg1Xh3Blr7z/X3enGG1l73cWjxjV3cUw5aknB47iqOceh7314Vtw4gxtsvZe1t5nfbRxzLnMPg3QxgE/3i0/3AKjK3DKcCZbd3/kbu/OmRz3F8G3il/sw7SpbFAA1gseNtWC19Bk64cI7O3ilWx9w3IssWSFmuY995kzKvvp0Dz7dF+DSv0uZFTH0mFPe22NfpKtonPKw1g4AMplPJ0wsoK7J/lYHa5X/diGmE7mRD94v9/YO3+jMxNjkXl96dGhBTfY4LGqCLpBAgfozu8s8NmYI/5790a8jnqP/MjO0HYpYpKuE/ehTwKeTiNpDkawxIAVuyFqggUq1u+2Hx8T3o5N/zvj47xPfUs1Keav4Y19ti/1oWxOQegABtDBpefy8EN/m4e3IV3rS+/n+Tt25TUuSWGU/2haAMLnoAtQIQCiiLai6js86gs/L8d+xH349/rX2rHVek9kFMYeXfYnj38t3g9Vft0IQYF0LQvvJnQ+0WS/oz3mh/3jK7x7+81j6bV0/zkjVvvxJ7d9zDhEK8u9SsKBF3TVsaNn9y224BF/Qvz3vD4bcrLCPFUh8sR9z/LvkKDehCHUGdaaAAQYIoXPY/b/bSO9v7LrGYdIF9dVvr4XCmMLv2797IF9BINQphTgMQwJiBIFXGPWUwqxWPWy4aznd5lrnrlmCOCLdT/m6ZbyEHA9B6shZAVIDYkEAAyT94lGyq3Rw1O1p15jHGvPh+UuCmKEUYH9Hvm4lR64WddZd2N/g0bAuRhCM8YIGV5lSli4rWNve1XDd/LHWXsspEick+2N0HsiXQN3UXRCPSbeWIGBBwJyYEY0SqDrHK/9m+YiVRYfNbCs/bA9XiYgPHHZvRpOvmxTiMQ9fd0EQCnPDsWD8sJQgwTQgSqAmKLA1a7lkZk33VocU/fPrSOs6Ii6A1t4QqCAI6ixBoO5yCoIx3ro1iIEoQRsE0K5mrM6cETNvtD1gY5kzHd3CmGBv4zF1/vpdgfWbHB9niRyiznL7GG8IQWiKpmCi1APaaIIG9wzVKczI2ZlyVsgG2EWNFaK41fk5Qqgbo91fIajz4ywEMIpcMKjFGYLG2JoQDQiIEvVb42POHcysuWeoPYlcH5wDYoIg5SzCeAVREIQ6o866HyoYEmIBGIChjUaUYDQCCKCRqdFzzx1c/T/0rK1zMlzCKbEdMOoTkeMPner8/FlPRF/lLgJBvu7i/EBUoGLvhiFlE40ACCAaI3UEaNuXHCmnyDlU9NRijwjWmA5QAtGdWI2+KeIIUjkL8Rh1lngMggKjFmd76VLXCRoh8VzTaIwW2g1RogShNe652KerzIPVLimcqyiwM4CN5LQgQULJEQhFnCWIr7tyFsTjBwIY44sGBAMQQNAQ6gIIoBGg7augKHlI+vjg3//f2f/07Lbx3DZ6A3HCNY94DCoQCHVWyFkev+FP6+tDDmO8IYABwsRpiyhRgqAEEDQIwHeVdGbzni+u+5zwaJhKZE2n0QU6iKjtDPlA6q+kPAaBOj8eg7qlzpKzfDfUc0A8ps4SwhF1horHQBR6vHb3NO982O1zVKe9erpplqtkkVp9/kSVHFHugkBQZ93VCzmEOj8Q5Ig6P6M9huSPnCUI5IgiHkMhRgfN1NjY6tzlPbavni1NlmD61SzWRmj80x8rKWcFOQKh3CVHPAb1HPdXPIY654j8z6cgRchrxGOU4LmOD2eK0QiAqGpg9DBF74rFHrl2r00cqh+f10VGZzGcPhBHRJ11V4/4fuqseAwCJYjHFALxWDlLzhKoGxUAYVLdqgZH9+0ybr/MQNLBymE3q+BMIhqLdD4IBMVdCHWjAjnCN11fdzk/iMfKyQdCnUTlCKROOSqnD64haDCCNteEqXHj2ISlHdc2d7Xshmo2+SwmI7CqiEC+ZSNfueb5eRj9/nfcvL/uEgh1qniMOkO5v+4Sj1EQxNyh7i8ihwCINhppWSBQZcatRePyDsPpDjoPsbOZfbOoS1blQ44octxFyBF11q3cX0HUqQJB3eqs3sWezHHXqe7yGEpw1/HNlm/aSJpaAGlZRAnoAkW7WrBi/bnFLb66z3pcnfVExOUVqJvKWXIIUdyKeAzFrRDkW5YcuSY5UqfUqURbkDqVQFBBY7QACIDUQ7sBbX74GTqkc1v2BU622Qa7QYRVSdQy+cMp8Zg68yWv5Tv5OlNnCvFYtxKIx6geeS09hM+pCMTPISepB81EAXTQQNsD+oCreX+4KK0gmwXnULeic6lRFb5y/8ur4qwcq+VInXUXOYIcMQfP/6IcIcfnrECgztTur0CY1+cshOfI3FKnIuAaCEjdWRBUAAJoAq1W2XHB7FySfb4R9X6O3EO5EVWSWrvuOgJB5bXiCEQ5P84iCMXzv/gQRJEjyBGkzjniMUjxHGkLklqjEcBZKCJVUZpBmzDdAAK40eqMTE9/lJNaXo67EnzCt0ZPvpH7d+UIghLEvASKyBHqlHL+HDyHoG5SeEDMcdeRHkKdqbOelucQSKARtMMyUbeLyHTKdAM4kPjpxrSf/oDdZ6+vtLZ1nZ30cO4iz0zyWyOmz7p99mS9UtxfOeshyBd3uQvqnld5DuIx6qS+0SIeP6ci5AjUXQLxqAVAwDUSD0x7gAAQ0EbTDq4aetHey6z5feb2X4dj+0PnsrO575KQivroQAlkdBwPFe4vIZT7K2cJ5Kh7DncRqFshPcQRUojHj7NAXPOaTBQgaRzQEIDp5rQ36IALRS4E0kvMXlC2P/YKDbfgDLi+EqSjSyJBCeIxqBwhiHKSrxDkK84iCFQg9Eidyl0IROHWIAACmoAG2h5AHwBNgMDEgDYVYnR+zvVzZM5zxxde8EJ4HSaiEQklyNELkaPiMYhC9PLdz1mEHgJ5OIQ4UuenR470IqjzQxQCCCAaamQDCAESDwQgqAlBAwSjy4EXeHzPdd9zvt/nGV9QXhg/LgX9Z5CUfM4iRHm8PX5C4kMgfP6SQqAXKe5yBKLOFOL3UPcRKQR5b3Wq0IvX4nP68FqiR44U5+e1EK1W2TJ2Pt1tdg6f27PTr66VygWSyEc++ZRAvJe7fDc5fVZZchPm4C7ycIQcoeIxR6icSiD4nAWBoIIeUfd7HynxGOr8NCxED65pksYbj9UpVNm4fG9o3gPSPvXoUc6TRDtVRBDl+GPRQwQ522eeKsHcdaq7INT9dRd6IeTrVqcUpM7U74FAfv86fV4ZPfTnT8a8EtVDPM49B70QdVZOoBFaHzk6z7yY9b17ILvXqFmrZzAiykEEKeIxHlNVOZWgbnVW/LuGmCM4S1BxVnw36i5nuctjlPu9iMfPOa/PWXwnr1/33H/EXQQyx1kQnMVltMqesSrduWva75tzVtCc32u57rtJKglSHoPKp4gSj7e667jLnu8NH+fntRDvXWeYQ5Djc/LxGIT6PX4v4rvhc6SHvJYcUoQeBD7ntBXgMgDR4QPK1hLsznvK/ZzIOnOv599znuyz4V1nBaH2q+4SuYkPqXJWL77hiuJW4rtRCHvqIShxFkFvv8fnrPurF+ZG3ksPMa+5lbv0EJhW73rtyoEACGja1qkrjx1b8bBXPfHq8zvnC+B1Qo37Yrhr3QVz1318TkUccKuiZhCPUUSPHDGvfIVeEMzhrhy99BWIIphXL+YQOQJ57zoresRjqLNCL4+S5mgBECA7OKZzw8K7HqcvfF8voOcxuu+lfChRJ6mzzgqZ+fBH+0SShZAjil6vlSOQclY8BirIWT16o+Qsoa9A+WZDs5jWOcet9Hpvwhy9v9Kjl7nVNY3GkeGsIKnv50i5v62xXZ9ffCleL8pzH0sl8l8LRJ0l5MAtcd6+G+pMQXoIym29g/efG+RLkFeGQN2FkNdG3XUW0cPcdVbOIh7rOdo6omub1xydGUkzcGSkuaCDDFDIGMXNvzJ/1wv76ivxPNfsS+HTQVBBD8mVI+X+VCNRboVA5jij6NHL/a3PxecsZ8mRD2edddc/Fvdr5Yg6UxDIe53lLkQPc72su5zVI/MSCkHjMki8ABoMwADaYfe66b911Ne8hPecE+iBJXiNyMSfIpQcD4FPdB0svgH3jRQEdRfn5whkjlOKHtFDyq08BqHH74V4TNG7PGZeUqciCIS636uVMYko0Ua7bNAb9Iw+OTLoDfbv3Iyc73GdOY1ZBxaxMyl/EYn819z1+ZxfgXzd85IxPzt9kmxyVNGLro0UBL2/Qkpb9BD40EP8HnqrQC+PqdPnLIT3jnLmgfSY18c51xFRICCgkVbm7KA3UAaKDHoG4MbZC0vmqTkx7ZHEcHAhOw9GIEf84eK7Qb7uEiU1g1SFQN6bOXKWmBdz9X6P0Iu8r7lVzkKc8/I5VTzGtL9uc4geesGzxvnpoY0gc4jXOucIgIAmpGKh3RsIOQLG+IGfbiaj8IIZA/lcTp7jAgs583nmwoijkvogkENUL4xslNudQN2Uu0gbRJ1SEDnm/ryGuyDm1bYS5OGY437vVA/E4zdh6RFHzP11K/GYeSGQWAQc1l3TYwhgDHr0a3oB0FTB7pBimLWa42S3u53Ns4Knk4wyVN2HePycpUcgqM+dqSBQvXp5DNStiO9G3QqB+Pq9y90jkC93IeTQnyvvXT3ugiBUI0PQI2hBCQjOgugsFzDAMqVPrjHUpA1ol+Fun5meTREn4R7ALPfXh0YYuT8JQukR/Lwq3D61QyeU+6v/L+W7UaeUHiGOqPuoXoJ5+Zzl/rorvht6nJXnf1GgF137KwTVVu/y4LE/5981JEss0LYITlsMMjU3kNz8VL/3jKEBbRo1mQYkZcqIS5/iaDr3DR4MeWyMiyz+4M/PTUF4EMXvv791f/hDoHJEPK5WBDGveYnJEq/KJf5Izg/EY5iDXoh5+UCcJXoIvu4P4jGUztAjmLYSesR3fxpnpY3oYV6Z+E9//4mnOePVnP2qpyYn5zolx2zdN3FLkQfB3IWcRVBnlNDW180cQTzm66bSrg+EOlMQPcxd6IVA3rlKoDNyzO+cKb18N8pdPUj/OqWQNtqix8dZeS2iB1OGtnqk3FNH1wXxzPt5rHuO8TjV66RZ+yCUuyDHre7jpgSCur/u/pUjCHUXxGPMa24lRy/CHHd5DHnv90IQ752v+73OCsRj3XMIvV7rtc1xm9cHee0eOVK45+iFeUXxHD3yGplnXelf0gN551C8jXazdDj11XPGeITXC/Zt+biPoYqv9AjmVqfPX/H4HL3U71/iMTlKPAYpZyhyBPFePYKQY67XVvEYyBxn5bVIj3nN/Y79Xshrzf1XXts0nqON5zB3IT3klTrXe722kh6h1RXVC+a5mIDiy38ztUROe3WfPscLnvdTXHNlX8IZzlqonFSga+lVkLMQ8yo5SyCI8hit/nTvdVboIeQrZ8kRBOouchaCub1jHUEI6qy26NXD3HMgr9XWvMyt0CM6deWYVo/ef/T/VHu6TEmNHn1g/55mlhxz7cPDeblewLwGhc8dGRT5HNStzgrzkunXmUI8pkcJhHnFtFHamps6xXsRj3lv00LI69eNylkIonrEY3qY15TR6yz0Iq9dzrnQPledFfTCsy5R6NVDVy4yrzm8Da8YiQH+77/lubBgpkdwrLiOU9ciIiIgfNzl/ECg7oLoIXrUXQjmFeQriNciSuAu8zLHc7QFgbrN0Yt4nFcUvZDXmvtIudW3togewlx/3XPMfWRe0+ohevToxVzOab2kztWF1UanB14LmxIrrYff/8ZmPrleenk1R8uZgUYCka/4/TfmNTfKXTluhVD31116mVfXrrN66dEW8t51qx6Euo/UmfeCHDGvn645ghxB3rv06hGP83r+cr9XD/H4Ocv9Wm0IcxdCj67ddU278lp66GVec7WRo6PnVbIv2qcHHkOa7o3HwQV+Onl2xr056WaVEnyi3+cUdyGv/Q1X6iznhx7Sv866i99/9xAUehHMq+7JVs3nwlzwHAh5W+6vQKgmw3OQ19JDjo9e9Dp69TDXOYdArx7qVm2d0+j13tM6VY8Q5lm7ejSLXr6XgOJ73noeBUhQY8LHtI9VkluIe7jIckoJdoAn2qnbH1b0ou4jZ0UPon+51VlCDj5nnRWIb7jmOtVd9AiC6gV5rRxz9ELQi3nNPdmlR+gR1YbQo9e8zF0EenVdc8+hrbZei/7Vy1nhfluTcateHufukeSFARhKYaGXWBwItcAFdF1YzTHZnibZKLKMphOO4AQuRz1HoG5K/mERirsIhOKuswjmLgg9gjrnOusuwrzmFdN+L+Ix3mEXcTyNP3TOa1pnEfOSOksbz/XaPUT16KVHL+Zl7nL+NPR6LfIORvSY2xy9STB6Hi21MECKrHYW1yDxY+Aink728npPEp6acw5rIdEJWomFCoQeSv99Vs4Sj4G6FTJdUX1FIRD4eAzTrrMIeqneqkePQCDzMlm9fPejh9s0eqE8h16Y2xy936uHzugRXfu9mvFkvSou1Qv0AYRcghVaCtbRcDroBq41xo5hjosvMr7QnIezlnAsNBOyX0I5P8681j8WonIqhByh9IJgbhVH9Ag9hCh6xGP10haEir6ikNfi5zjN0Qu9evSqvuaIs0gPQd0vq3/d5tD3qLboEZhymbvaSBt551gNileS0Etyod/zDUdDkmaCT6WZwP4dONR14vASzfkef30Z6wtOvP5lqCC+mxxEDskhr7+PnD4QiMoRyGsxr7nwZPRSnUsh5Aj8dH281ms1/+pgZgg5egRzROD3/3v/Fb3qVPnraci8qDRDaMvcxTkt6JVjjqehxxM9A0gUoA8NJ7rhaDjrQBpAMgbbzIJdL/biHHMab8dwLcaJltT5x1a+m7+edaXQf5MeL6sEood5zRVei6D/Pk1XCjk/R4keBJH3NWN5LeTI3Kizood477pVW0c067jNXD499Ej9FXlb2gie6uq/XwvS6zUynZ9Bjvv/fco7B6zUpCfZZCDpURP6RFlRzroG2qEe7Hd+mS2sH/giyLleJ/M6jEys/rlSNU8j5HCX+G7U+fEY//ibfN1RELquj9f+wPkhR9T9Hp2BQKpZHnvNTRGIrmvur/Sgl7yvufNav3/xZHgO84j/y1dbD/0VLPSIuc39HnfRQp2/7qnnFT9V+R5eIZlKLCAtaeBsQgNv9PC9/ljdrkfiizMvlLdzef/1EyktrgRfCfEYlMhxFz1CjugR/64/d3mM784/rUf0QOBzf4keCDFH2wUxr8xcskYALFMMAejjLERIGlcXgvZx+Tm01UftXubl52hGmPZkvcII9bvcY9oF6THvuiYCEPEIB0aTU8NLmPOF5fsxHhOof7EEVRV3pXkK8hVyxGP0r6chvhulF+T1uUTRS494nBm965UhHo6fV/UuenkMlUXGGz63opEMQ4FOSp6oBaGtHnSFXHP0Uue0p6tu+ZL3bci8ZoZex3NolsnSkDF3FzIaBkhDAuzBWfH5x5eZ93Li9M8ppyR8xfqZFfJBr9di7vo9Ks6K12aO30sFejGv1CnvhTBdZkaPXoQeUr0pbWRe+tdz9AgZapAhkWBFBK8+AtPkUjvvc67XNu15lV4wr/T4vGLXK0bXrsbSZNAr72vmqrYataccYvVhQEwAA/y/Oc5ejBvphOlXSYr7GagpVRDyqo0KYl7m6FxFzur1WuS955Cz5hXktUsvPeR4jh55r95fvfQ6IkfMcZfXytQAK8UUw+dYGQExr/jotS2YuwhtvXOW1VeJNnoh1Q+aun+dXWH06jER9oTVBljSOG8Apn4PXO9ar79lovT7VnRvkm39PG6Ix1B3oWvPS8yrpEfQtX1Fs6c617xyPI1ePXr5bt4Z/ukX8VqYq41e9AI85qKVptQ/qPFKQvTqUR9JGq89rR6CvOwe8rakR48cc08y3O8wwmRpMvTSxa428gqjy1IDgwhe8qQeCU++otlaJkhVVFb95KfT+JQkEOYuBOJ4DvEYpv2W0Qu9ECidgcxL3ovO0BldrrnrrBzPEY/eNFMyYhZLqYWmiB4iXjGvyVmrr8pfT+uvXpP91bJeq0ev6ZpiiDZ6ve9yzdVWG9OeXDODXj3m9s4uolePNB4EjJn40a/J2iUTIznCz/vj+iRxhiaF6CGYG+u/vZC/ApmDvBZ5LVH06HUWYY62q+050oNgIkMvTA34piBijLdEvWI+jT4meZKb0iM99OccE7mmpZdXxTqrh+hB5jWF0XUPU3x3V68e5pUJlhoR8GJpDImqt5ldrqebGM1L3tf9SZfbBx+ZO+8FgcrJB3rEHL3N0bsQxBw9BL2Y11zn3OZVcjyHmUvq6JXX6M/V4wNYadKUETAEr14Nr30BIn5IM57lcauWMc81DS1GXquNvIP1Chnmfu9JjtXjCbUnBKJXr14MwFzz5P0onWEsNhOiK0et6ornV55+5vppVaAtoc7q9Y8YAlE9oodeVK+z7uMDvRDVrB5tQeZoWyGo50DHMmKAJwbJch/BUgMSrYW6kDrXP/5u+2W10Rmmzcw1DdEjpmvud4y2evXX/atXc8RqQ6qxXtlvk6BWGMTSAJtOqsTG7Dk+b3kilPr4w5Vxi4HP8t3A3KrHcyAeU9ouyHtXr9eeFs167bxk9PKPDPFa8/o0+yuv1BU9fPRoCxmmYJIpxoG20tKWGB3bIHjUyth1WqpzzdGrB3kHwgh6mdZraUuPVjE6DDrKnh7zdRNUYdKrx1APMREazHZ1ncbM1YlPVe8qqSXs8vzcIZA63+v+CoJ55bX0+iuE6QrVGdzH3PFXxTlH9OjFvFKNhfTg09dcesAgEzXIyN7PnptHv3HJlA3HzTfb2bPHERWwDmKgeYWh9yRDl/tXvDJ60WPuyWrqZPWY22Q1rB7y3nPc79VEnSKox4BYSuMRM5PfYrbpPufCgyc+t4rHI3Hip4R5iTl6QeZV92srgmDalOc1LcjLVnQGgbrnaDF66SHH3B+Ypwww10ezmB0YveWFf+xZrzzG12LDRp4b+lxy2xc+sfaF+Xf9/w/2qJWRaTwHbfXQa7rm0sNzNHUXMfRqQ1vUc9Dj+bVNYpC2aP7UK6B9JEQvOdIHUzNLdP/p+5zumvAowc+fP3/Wz9zLiseo83Pk/pIj5oLeSlDueq2zeiEQ5a5zjqeB6q30Qq8e5jX3vD45IEyg8bE03aNL9CW/98W8+jhpDsZfffbqfq45nxc8c8kjo3butBUarwm55vrH0vC55vA09GqjS+Sa1hHzNMIkjI7Ry7ympUePp7L7V2OoJ+IRjL32BWx6LLyQzuE44XnWWetMRnbVP0H9/HxO5Tn06oHP8Rz80y/ise6S1xJHTLuc5vrHv/orHuf9S497DkIvR3rN0SP9Xwx+HgsLXQPbP7R5lV/Wi3/1vjDhJn/s1Xtf088LbvddHnr9ds7VOSGWsRfams4xR69er9WDGRk9cuSVuoS5vyX/xac4lurz71dyZJDpynubrhlgKJLN1AcNDKvMYjR9y/PoC+76jBOdpfis+Mnf4XOTD+SIuY+ZcSuIecl0zRGCeXWtvuquHvmrV15ktJEe0QMpgnnNG6Oeo0cyRWpgyy2v+DOv+M33pVnc3+u61/e+vF93fXnu9NAfNH94u6PVuerMNP6xPEcPMq9pPLF69Mh0+bxWL6/Pyfgm1pEeQSt7jr5+HiFCYNLw6o291ZX4aZtOznbOdU1wztIjGPl/kXTFdwN5j/SIx5iXGdZpjnjvaU8Gcddr95Bp6NWjR5jXXD30SI+8VpdN9egFfD0ZsgNLJq/q0/U4d288oLtgY58r+3nped78w1z0NP/x63/wd1w5nkYver2vTGT0gnkuSrSydSHWK+pcrRBkNDlCGgniiR6QGkSYMTObbsscfYH1ySc2dWdFIFAE0SOUtjzW85q7TnPEY3pMu3rEa+V4jrnf22RIq92DFMS80mNec+nhOXowGItf/A9989dfzp99dsgfwv3b6la4srym23XpOXani2ZGpGdBeEboGZW3ft/MTE2zzPucxchvwnpt1SwtR6j9FrkmtedlCgS1zbO2mRFjhDiqne5zciyKE5sikPc657gLgrnrLDkLQZjGcyAP7xwZbSE9iLq/ohlB5ZwMwdOYrLPcX0/Le+vZ98Hjv/sXnftnnG5/KIAxvJHZYe8Ob3TXvV5et7ueuWkLrRMgpz9cPaghqkY2qNTsV1hoW0OQ0XV/Caxerwy93uv8BjF6dLmVHIFYhZjU0eI2PRZOnTWhQeQbXSkCgTluc0Ebz8HPa+6veOxF3cxdr4WQI+X+6uVhCe9dvfTokbm9F/dX9OBZl8kvjK3xj/75pxzMH73lDxHwQbfaVXBnfBPn3CxLsp+47tGHyswGZjmZDiqhIzJ+W+3M6Kv3txJj7vc9+uO7MaILGU2QunS+RA6MgNWa0NLtZgHP2bnm44Qm6epdd9FDL3LMPbdqI0fg06N30ctrIXPcX716BHLEHL0Qr8VcbXRGjxzpXzd1f7XVLHPc1Vejr3bwy7/BH86OGZOtcnvmdZ5zddf82fNTNdImw4ye9vuVnzSMhd40BJaJPZHRS9d+74mg7jGvb8J+U7dFsygYhrTxZD0mmciU7KyS1+rRy9zvhUC8PpfU+fwz6dEsKPcccVYvPeSo3HWWeOzxOU3WK+u14HNOLMzN3JNh9HQWo/9h2euV8EbhNXWNhttlzy42FHxlqlVfUDOw5ffo+O76jdRZ+8Fq5VxmrnlNYcxzdZ2f4RXx3Qow7OFYXDfrzH3OmnMic6aKIMwrX7fifP7SC3lvJT0IpM7SuxCYq0fL0Nb7LvudI4sevZi2OXrpMfdbsJrVXztjAJ3fxa97Yfpquq/U1nKwp7l6DwMyGBjrtZtd/K6tVRAYYVr6mtStbkogjOYzmgYzzNRo4c9Zxpw250JdY/5l8zsPqrdCL0SOUHoE4Rv+ZOY6p9GrRy/MjfI0dNRGeV5F3ps5erUR73vMW7HrrOd4/StHH2n14D/yOwFcJq/d/fXH4ljw/UrNTE3V5K6r7Uaddas9xzljNHWPtkxWW0dHkdHWKxQ57o9hQAQTi7uTM8gxZo35369kBaHOkpeMYK6zaBk6w7zmVvRCkPdCW4R5xbwqR5r1qp33Vmd5GvK+R51znXP0mleru/FLDdZHfkfg5aXnOcucMutlZmpUvq9NGL+t33U9j106o0dn9JjE6KDcY2I1+bqVu+xpGNHMFANrtuhj01NyrjG/EdRztNWDHiHMEchrBHOr+23nS2Cuc66XDMHcVI+7aKtHeK8eUWcv/UtbbfQipqtm67/00Y/+O8NZ8iL0JGe27M+Ente+Wd5HWPwucbX1CqvLWXJNq8e8MrHnaAQyJgGjCkJdBX1yHr4lOXfnzFxrjOSppe6vnKUtZI4e93vpEXrENHp5nH86dZsDQfQQ02irLY8VxFm9ephiIM2al3nNPEhf8Hl4/93h15+Gp4eltta873OPsX6P31FnbfV7/I46K6d1/PQYGa2uyWpWF7nmPjKhbqwWa7QRLMbyaDgt5zrTuT7rOQJ5+VeOn6MtmsW0TcgQr0WKtvqadS6Yi15tiMdUj7Yw78Gnr8rLIu9brT5/9Rj48dh8679DcJiegke594CvetY3I+O3X7/jWDl+x9KKODLS+JyjU0dGr5fAB7ua9foQKoxmGrPYd8zXc1lrzNj18XtBepBqIxD0mLlMy+PPS95Ls3oIzHWqlkEvPVKvMMQ8P9d0fbT1YvVqxaLVnd4yeJDfKd7N4bAIZqd+MDCQW8Wl7cbn6iKwuq7oIoy2WiEIVo9WUQONAIaYH0meH2uN+c9Qx+8ldO3+L/4xr9UDOWKO+5hLj+fQMeZlrrzIQMzdhopmRHWORWdg7v51fl6Lh3muI+ZWvvtN+2rfil8y+u8WugQXg5qKVVbxmPF7ve4/co+Z0Q+jo668rcbq9d796/zpCOL4yKmwaEYkPjlmRtu8EFhj/vtL/lWCuXq05THEvOaIHuKx7pIekCPmNkfa0AuC+aCuMFn3V7xiMT2uNp5jXvxk01Y/Rn7HYA6WpZlVNn4LrN/j9+qhrYbPOaZgtNQ50l9hNUJ85az4vjGcguVgOycv8mSN+eckmJa7PPaCmaEXBDk+PXoEAuU5zrn00CPMPa9pvZauu65QetHqNsQ7Q9rjmteHB9A8+N3/9XuwnebeiMco7F6/r4nxLOK7UVyZ1ivkqJuK8+P7VT2TV9QWTSxuv3gxh3WGVH30OkteS49QzS49xGOqx/MqOaJH9Z4jWtnMccYcnUHo0f7u0VYbnbrm/bUai7yU2yo9o4f+6L97zKprk7IyU6f1O+OV4be6ESWwGmKYAqGQa67GeklFXldEM6gb2zq++JtrzL9oth699Og1r7z3e7XVQzBdoc6fo0feOcdcyCujl/dG6rX0GjqTMX/93fTqumaOXF2rR4faTBbNgnnu8QOw064yD7cotUUv4g0zqpoMTa4myOGWwmqj63QnEurMkVSo+mCZBGlKUmWN/XfY7v2VBYGUHr16iB7U/Q1DWz3iMdVGen/rN/MSc2jVgllz303WPMfcmOOueC293jmCILpy/vSp/hFYH66JI6GqkcoaMMt4eF1VV16BeMzoMTPa+sfnLPexQwL38q+yUmk/gISIN2/ZRGaUuuv3CAIV3AX5ukuvlyXmZe7qIW3oNS8xDXq1+KD3LFY71TaFoUNtuuw52uox7an2kfgx70rn0qeRyjK8RbBBKQ3C+o3x22pkNBnRY3JJWElGPtcqVRMiSMdYiaEjdtisMf/Pfxq/K4tQZ75Cj7wWeS8E8lry9c2O1ctjMLd3Rl4y5uaslV16hflZPWaMHunRI8xxzj2p3WPuqVHxzI/Bm4AFGQOkwkcTzHz8PX6v32r/VlcL1vFPdUqxX7GGutW4K6OzPnRIlAyd+SxGLNthbtvSNeY/RsPC3KVZegQ9PqeS10Jey9xFr2b57jcZ2jLP2uRXn9ckRgpl0SOvustdRq82ejG3Lvu1dI+OH/Ra5/prH2pM6mANGsQgi/FbUIL1j6XX6x4TguRW9z2WZOTqRw9kWbcuHw5/etisMb/j95Dq/V6I45sNmdccvfTQi09fTOu15L3nmTFHW0faCNV7piZ1cOxcHxa9evR4jnnNHMvcR3r0Yo70ajLvT/0gt7wJ97YkkSePlWTexADCB9fT91PuI+zX6tGScn+yyBp1j0/uY4ar48PL6Kz6sSNkjRlt03ZB/2k98nWXXujamLvQVo+YZ9kT8nWPuXv4ORpr5V5m+HSWVpt4ZzzHOcc9v27LHD2egyZj7v7PXj8Im5zjYY+pg28Q8xatsurM6P0K5KGC/BXWP4ISIn9uY9qjeQCjrLPYlMWPHTFrzO9dKncN4rUIc/VAMC29i16vpcfc7wy96BGYgbw7eu45cw4tx+pCrkqjbrXfuaYMPaLrnPL5z2D+KLe+irA9kRnzMUbIaKi/dovxe/1G3epPNgOrj7vclce6KmvHrr8P4YGKMvq2Dju3LG5n51xj/kXvr6gR5jW3eVXH6NVf29yKzohj7nnVbQ7Ro4mhomXoeq3sKaMyVsSaZ10+PUirqzPmVU+DdLn2Kyr/2fGj8AKSk3BPzCAbYDHG0oTAet3jd4rzM5pyY82rk6GuubDl7zZqZ4jODJSyWkBns9aYf9aRhbw3KrQYzNWjx3PwHJijxXhe1Ys6664ePZ5GqzImmnSrZTKeQy89ejGH52hUzmLuPZPx7B9mXvIy6Y4EqwwfvcfEEI+hBBmN1UVG45MdS/EBkyoLNshiKjKHzgv1GnOu3wIfPbTVi7xGKL0g9MhXergnFlJeIhiewyzrzzXGkzHGOec11zmt4zl6+HnN0esVLKpzzTEz+qnHD/MWX8Dk+DIWBTHzDYYRR0idJUcQBYGw8uGWuuURyRTxKQW0ZT4sUFljKovUaQ7pEeQIynN4fm38vL7SgzyHyTVzqc7/8CYe57rjeAbz+XPtVZ3xVFd85TQl/8Wn0XUOP8c5LfHEv/LjLmO9cNhFsBro03+4xuZW2K+gbnUfJP7K6r8yhPzX3H/f27wLVW95+sszsK+/uCzTco35Z23RVg85fl5zOU0LejGJ4TnoNWFXj3jv973mOaSaM8/VkpSf1VnRY17P4kp5ZTV11p6MtqjNvOcPtJj1OHXnpK6rysyGUmUwKN+N9Q8ZfZZwfojvVuRfrS+9/ErGSj2Gr1xmrpgNS3WusM5mnRV6yBy398L9ttrnHHW/g9Vj2nRtqom6nmOyVRPTa+VdG0bPV0a6GHmN9HiOeWVeczRCvnJOUfX8cR58VNY57ZgIaia5eRN2w/pNnZ/vsZraL8kQdWdNc1dGVQWBrE+HxP1L28OyOs1E5j9N9bsXPYLPOa9pK4JpT0MvQo9p9WisHs9hiiMWvepj5HyvDGHVPVSPXtr4eRZhtBDUNT/XJGv8OCzyOL+MGmxADH1MyLFbjrrVbqxm/UMEVq1njg+VFZaRBaxsIj6aXwLLzJ5eE5nfiRyBn67qXXpMuequc8Lqci55r9fqXfTwrM28JjJ4GlX7E6Mjd6euvIWhMyabKUaH9T4rTDGWH3ip6yy749IE8YaPZrD8VrciHlNn8a+OnJNaSuK9UnGnVTYZE82Qg/Pbo66jpZKuMR3+tK0l0DhCBxY948FVtznyWghTjoxer6yXxRz3HG3pMc8RptVDr16Hrlg9enTtHuaekNG133te34QhK8P8l/0DzYLbmUdLXVku0TxR7RQ7SLDWYmeHlNMwKyOFVaE2wM+IJ3jIHrOEOUKLzNaYSfV0DoDV133Bg/Se1mvpka4rdc6RV4xeJrmqR1ttvc419yuG51F7uv/Irs5VXedqI+qciJHXmtdkl07GrJn740deyHHqMqYCZh7w9z2ciSSx6kydJWTtz7530MYqoKkFM4mTris2xNTFZIcZYY7Sd3jLJOusDXKVmozt6z5Ib5sH7Pb8u4+MXu89L3nbk9W1zcscndHL6x695l+5UlrGPNdrof+GaHV/7Wn1aBbT/bVNMnq4923lh/rwx9M9KWYJiBmWvSUe7zvhTBJKGFVd5BAFrOpUE+vWrq/SHWbqdrp89ymz2q2Wbp0JmssuK1B4ZNwXj/0zI26jDc8hhxkj3ltgWmfltRpSV0X/tXrp2nRdM0NbE4JFqzNKjl09nkbL8+eYPnP8ULN0QSkNi2aG2GfnTpCVKMl/LSGSYE6KGdKU0UOM1pgkscBLmxnZOd11EKKtMTPcPd0Ooa07LHjA/nl1hj5X5jXlWGdF7/l1ZV55L+1Pmne5j2BB2uiSK9VHLOY1zzXH/V49WkaX/d6TMHo15ef+8F8bP9IScizsjhgeamuEDFbqrjNJLJdVaxfJQqMC1cNRMUTKLtYVPtRnGUtP3x5t2p2yLNwas0nfVcK22yEAbT7S68HisTVzzZE29Goj82IKoxdzT4Zejc9p5B27tOX9565elSPXJON+x3qTq1qGXj3m9fNYy4zM/pF++Tz5YSZIVYkktpNkuW8R1u6q3UHd1H8tFmZWos4qCM4qJ15oJ9mizlmsMSgVZY0dTq5nwAZL6xlunfXz7hm92e8FvXL055rXtKtZWsZkKy3jW+1n4aq72oge0oWlqfNzVe955Z3R5fxcphj3M8saa/xIs/EttmEGsRwzQ1Dku6vzd4JVgnqZhEorNeMgFiuoOsqHyn7QSPd5ZsT86kmvxURml+AS71W4DD3ou91XJwxox0Cv12ojPSp6aDHaKnqXJsZzTIjR1nvPXJNdegjm9fOakJGXGJOgjK6ZOX8kvtlvKWtjugEIdu5YSZ3rA+XMHdX7J8wEwSpnYkiJMOn9HvrYeAzr7YA6JrLHw/P3XjwioUPGwwsewKIhtZky0BlNbaYRzXptOeJMaSNdZ4mr0keGvPc8x6ctrxidOkuuansaXU/J3PuH8mZVNE0wsyJEuHbdg4LMob9gBQIFYmZSCl0j8W/nRDjR41bUFTo5kelBjlz++g2BdntBh9UbCxh4Re0e80o1S7PemyjagvYZQmf0163saemhjeeY53oHGXTGvKa4SpqRuyrJfP1QYHg6wUywJFaStf5cc99SSfJJRy2VaQaiAi5hUg7yoTzF05y0PStnS7rqwJUTGW6ePLdiOlg71EfgW/wYn8rojLbMXW3ktXRd/eufyp5Dj+fosl/7tT+0EV1X15/bl+eR8Rzmcdf5ObLad1fX9fOaVjPyik/+9j9C8mOZmUVkEhOsMT5uK8UddX7yVKldM8TgYBWKGesW3iqrusVYOHV7mucc0i2dQ40J7RbO5bOMMNPtmkw4xwDoC+jxrFxz6KWH/hw73nsyQlvzr6wePfKtra7RwtIIoy1znRPiyOhaPD0GvzqHfNcPJiLTldmTiyWfnZWM1E6eQ/TnyCevVc9UKsSopOujICDIVz51+elzjbjJDIeb2MyCtxB4tzK0uhgNDqDVeFCmGNFGrx6msF6BDF3xWLuNrjxgvWp35eoiWEdHCcToupFfPZJnhqV+sL3HvloscYVPbkqWT45K157qtf7XUFSRIrqZ5yonS6SoTltO9vrYvpe5STiobkLDEOdWhOM212Mx7uu+GPCoB0kjdY689zSiLZraXexppP8KFWS00bWns8bTei2t7KbuIscyz9WKsN+J8cz85MeSyuzJG4O+cEdWPjddw/rVh0+vt0qpTykERBCRSVEpvsccPZV1rOe8Un7RSTfTc+UkuLWmBHe63Kr+cXGdb/hj94c+zs3RgKHVR69Wu8c3YGnrvbvu8d5zv0WdMeZZuUyrR+drd93lKmmjM7quuSeEpYeJEHVaz2L/YFhjIpIYlliV0/TLzsqRImt+knqVfDWCM6HoWrdG2tuFb3KG5+Ec/zv7okNQpGWWTYKy3v7+MW5ubednP83fdfP1Jx9vq7N6eDDCYF5dm3nN8WTMc032vPhpuKf1j/Xar2A1YUz2NKLOVjkrHjOYZ93KnljNeqWHMv3gjY+hj0lE9m0b1Bp15NPjp6ivrvtTngW8SDlJVcwc/NVy3Pfz9N/eF2ATHLhJ5yZxrjvBAa6A1wxv5CHzX/UztlRCfwjqLzpkugMdaBFMhmvHop6elSq+VkiIXj3R1cm57CSyInXXfq15ZL1WU5ubGFjGvPd9V2xrZVHuz6pO/pX8WNEPWf0X/o3HdWcAHhCQ2g1wUFE24pHUSoRfL14lnRaqjrPHPtHZcDx8rmO9YBQKlbEvZf2Blfq68Y08Zydz2F1nx7rVDnSAQgJTYp7xijdnOUn0IKHS4GPWnyOSMcZyRWBpY551V5KQJMa+R2pnZdUe5E54Cd9YfrDj/8KgPe4rv6kPQD1giNdMADv0XFCqR2ophWFnRqoZJfm/8cx6rnyA3AdHLd1cFkt11uNd5hJ4A8w9cax0Ji0ZNpNByBMwcmd0hJ6XXDzRQ/SpaUKTNL96rUTt/Ez+RwmrR1vNOn5eEyus/B33J8tauW8q295ZWRHW+KF4b1qP/GP98QvxkDnMGXhAyhj6k3994GKmb1kz0aRMC8S1pU1H6Fn2+ZvlNFY61ERZICJ22WnlJKxHwAbzhpmLnGvMVtZu1RFQS/s9jMII5gwNiXr1RI8mDeKbFZb7dm7biMdA7er1WiusNZxZgxWj7EiyJ9Y/SSX9jf1YD9qd37Q9eh4gBpKBMyTTTITMxRIvmklJRTHz4Ln2MPo4mcfRZbaNKQG8C9w9DD8T6/RlcJfhCme1awNrN51NW9oRpVSvRd3rWIaEHt7Uowk0TKfGGPKHdrGTrIUMPfLe03rFkPVxEkuWwb1HcrMk67dau2r7wQf3Pf4ljwfMZD6FqimFTJBh9OJTqEoEkkPdH/Tr58gye7yexzoxeYtjJI16IEdXYigKcQcgilPWKXjL97b3ca8K13GsXdswKzwNw9USwHp4LI1JU9AkaB/18bnWSSI7A6GcnyOC0au2TcKyiLs2YaXu2vW5u+n8WL889ng02jm+1OhBwGVi4LLoHVYiCD71Bx88py7Co+F0c7LrMDOCj5nS4JX8gPqCJA4hV3Rfr4C1sCK9jM8r6cqTtcdZM5WivteHHl6tqEXxpl69MSbxr0RYlXN0BTlC6tqRZI0kK2Xf/xc7e0ncOXNH7SR+7PZ9qI1cB/cxlQ3ZtIKyOiCGlxTJ1LtMqkNFMQcWlkV0mZySHGm+WZoCMwQORBDagXSkMJDWLbjlemblfq3g6z7r6nW0zLEtbZV+z9Pz5iynwqsHQzvWTv6VlWR9kn1WXFOwTGfJxsogya0SkuDOviRaPvmx+EWP0e4Hv4yW4m2SjKLBO3PgEck4+JhZZkG7qCzS53t03WpSmCGHeGCmyjkgISCWkCiFtXxnuYx7I/eKfe62uaq27Twap6QmAZPcD4N5iHjJSrIMC0nG+XmFMOo2LeRPJyufUySsGCQnNkmcqR+rjdZF49E4FEvpGFH6k4esnMSDUPyL8vv9giWyUBY3Dy4FCChakR9QcjiDgkBysljbb2yv4N7Mczf2PZZrjgvSdxhNwU9mpkmoQD0Zhr/vfEKwkFZyCFYSn5zrlPzX/muW1M5aH5JEkop8/Nj9/us5OSd3BMhEQCSUfadWtrU7D37Toroo/S9ziy+bKUBzlANKAA1oC0kEItRQWdeAf3M9z2ruC5e7bzfTBfK+ImpeghiYeoys+yxJFmO1+NWIIc1a60aSsST5r927zuwkVvy5Sm75+LFb++UxzuPbRcMTRBDks/jn0sz5dvPwxbisXQz/9A81TsghQlA/k4PGQ9WBgMIOSSIF7oAb2ev7rOa5S/fd9mhlz7OtKBhEPGqsVbuSIMmq83MWMZ4eU7lKEknUmQoEIp/sT9Uq+bH4pcHReKzHJWSIij+EiO1PP8xS/Bxz8YlmIaWC5pZGKoa6DkClDNsc/epQke8AORS03gE76NbONew3T2+/ay0scGanLY1e8aaekmSQFbL3vL7pmojH2jc7lsD9yfclieS+npJvFD/649EufuntS2kDl4kcitlkm5Xsn9Uul2d91lk6G9WneUSbkvxQVCXXGVByrwSFrghEKcQtTgK8ZRsdpSs6b/JwF7LZWeLMEpBafbVjkbDyIRjN0mVPO4k6k3LfNzaygnxOckQl8oM1PRbt9+ORu5Ms0kE6TpsUS+gRuKTMglbSUpwqQWlcFg9Eoh4I3s8cwJNHMjCKug7yKw2aUgDw3ndSebN93iDepVnuM98ZkZxpxl7JWlkpZHyjpUcvzZi57JB73QmyIhZSYq+dxT1k5Ydqj1/e7218SY1HyxwUxR75p4eVHzCPablGnPRQBE1DBIUmJWrQMKNo1AMorYoiiRIwhfPMUBIA3vtzfN678rx+WCXLu+dLjE91kgFrrUDd6uriX70i+77rPk8SJJF89k5iqH9K/P7k6cf+0u7tAe/9ngdS7gmzylJ6dLoAWzhMnqZtlICiBFQzbcrcFAiMVwIEWAF+QLKoipCTEneTVfCmO69Tn2kxfOc4HAEBAzDFW2pqBUZTmHrNpPEBaUoDc/V4fuX6hv3O6F19JBYhemL6eEv8DxKjO+h2LfuNv3/E95/g7M/ry1+Sjz/T7R/n9FN2RWdplgY3D5HkM9loUUvZClP/I7SqIsRuRRhkkRqf/vbuN9Guhh0S4hOLAah51Jt6wQBMPZirdeAaD0QPIYocwWJKqHw1VAt7vEUinuh/0A/Kh5g5ff2Zuf+r+vkX5PVPXed/lP0Jn8sCAlEw4aBDRLDTIXOBCUCRoAoOIzUAG/D29r7MX7gxGdVZtEWqIYHolYTaGdAkqHlJG6w0AMNSE74bVlM5KUmF8XhMftC0qzqFZjbnEn47LH8uzd9/hpvPti9d5xGzQ2IRYAeNgMMQQeO279QrJuR410qRYkkQwCq4M72n92bXT94Nz/zEBoLlJFgafSyG1DUJluNzb6kRMyGIQI7Il7inAWIR9fFU5n/1c33l2Vxz/VjmH0fOf3mnfNEHA27AfUilxSFdgb4K97BUIwBTq0JABLGnEkFLE7BFLyv39VnjPNvVs9x3jsZ4A0sNASz3lprkdqgCMB4DqWvmEJOA+Nonj6eGqczO6wMvye+L/X1hftZf7cC6QU1lmfXfrs/sBLP+pQFH5VNUKALZzbg5KqU4rIijH46+SxXAJllBL/RrBa7IsSX+t/8/Ewy0EyRIk6CemDkjSI0YpKZdd511K2T0KmuoiS2bP17apTt9O+H8e1z/+p6zPG/51URICT8U8oQMFDpkVGcoyRbzxma5QJ65iEuKUJekqiVhQFvXMKu6r86+2LXyWtvhOz+zCUGM8cZ4E8AADNStEIQpCTZkk+TxzBhsgk16ta549fuZ+X+kFm0oVZ3L0DogRY5oxCSkItJXsUIw6QQDBuGgYhSK4UkD2KmXM+t8Lmvv6bo0vN25TgtNPWAKmVjuLfeASYC6i9VGk1G/NcEw/4GaxxvZBrqtbJB/cv3odly3tKkGTSdd3XOfqBXkg33waexmiOHwsiAQ9yEtrUIeFEINnUWPvqIIJQ7gRry6e02fVeVOHNeEDzO3baIHJmsfgwcdMF6C+YxX8DmPj3uokhxIlrWz4+OFnXCVeyuusuvNVpmF/y1q17kySpYV6oBASV6LHQjjIoQhD14oIXkLMcCBfLilHHYwGLv0AXtwo7Ou+0r2Rfpmkh2wkLakkRALLO/YYIBgYGmuSVBnFGWQzOS9H4sLsm52O+Ufb2jXw4phB/Lr5yA4HGW3U+PQAq4oGNFFlEMfxwKliBZrXErGC9QrN5alk7QqW6lNG20dVEikH/QGuq77gs6bjJcPX3ReaYWIZuZqCeoNwCDq6o9zzOubxgyxP2xL26PHt8vIzWwTvZpeR9cl//jn/PoGHDiHc8SvDLgGSDDppDu86mwBHyHEDBK6O6VhB6CGK4dEVSIBtsKW7vX0LswdxqtlTjsXMLC0Yq9VkD1Ptd8Z96R20REwdg/nMsfGm9M/u8Ku76yVTbhDaRlh78ZXhsZlPciKEsfxCb4l8LlgMrhhSWETlnMpgVAMD1yw2zv7PaWQVsuvOUpXdb9J+6Yufsmi9gtmAlhqgFHnasXnrD0dkTxJaMsRzLf/9Tefa+lqem37n35IG0fQcFC7GlxIM0fpyAuj9xYTr0ML+nLgNlwMohSCGstohBrs4qxIWoKLC5QTCzAm33advYh5o/SOyeLO4qWlNgSaYSDNO6NzrHz19U2j80WCFVsvX9jLPi8nN9NrZd3pxezP9DdvbRoYMl3gMV0AJ5Bq5jLK79ExN17+wEUYMWAYN2nBMXen30z6Ij+MSQFNoO4BQii1AGO6f225m/Pq7PX0dp132JhmRJ+bS48u64/8E361Uxo5dMrpC57XErx5XHTmSlx9pvjCTQMEYa9BAHFDy1eWEn4ArvwB8zZUx0SL4J4cK84BGXUn4xZDIHfDFtEHAvcjbiLRtvV+ndfovmf8jkuW7/w0efSxjz901v2rDT3r/KQmY+noxYtbXigHN8OrywW3/dHfuw51aGrcY8TVrnYANbiUmDlwlC30TeZBpGKLcB3jht6WFjn2EvRl8TniVeFefHNWpF0QIchEogHe+52YN1Ue124RhtNW/UCe2LG4uoyFIU1hDh1ZNnHvsjzIf+ZHuC98kxH99ZEHfEoia6sII7hK2vLD4hbWJyJtGA4LipeSw1KvFbK5X58jFlEMQwMpBko3wA1we+YO3dfItrgbW85wmPrlpXqeyyhj0RTF25ml1Dxo/8U7u7K9n6y0c+osbAn3t78CGJgd+NyniOHsGP/rA00igrZqMK4s/WMoXrrl25fmja09yBzr4FlPEZkoLDomHfjCa+g9+1zQZ4Nee+WXzGYaxToWITXGZPfl8h7L8za34UH5LUZhM1xA1+CX+o8jxYKkRhnHaWhg9AULRBVZ6k9gsCKF1BMwCxZ7DummHQIZ1aFjBwJTVHrETHGZMkI18QDPuZq5W+/L2J9mc2zb/9bCCorkvf/kY5ezzseZ/sSD8F/solvwvdy73RDmbX59ZHztsNQE4x76pygW9zVsj5qrOCsS0ZdPY1hiKy9Oog1P+uIevAhpQze29lj5Dl0LKqVyFFEs/QDr5R6913avtNeNm4fnHJVW+ugjtsuXE5Yzr9fj9Fce+D92G6zFt7sCvsU3NPW6F4aQRGteBsLrqsXywpUaW0JEvwSRPkVKt9H3ANaVRCsmLOmZ3KsPfI9DAXbmRRWMRSkIuJJe697ajjK7aSvOJcuTw10nEB7ou2QLfKkry0V2Zx3BZzb2WkaCeGV8T+jpoSdaGddJZVUWP4RLXva4BbxEJ5sAccb6Hyl4l+H2hK7E4AxRpCzRhDNI4+99s91Y1sIaWI9feDY0hWbR1YWClYqPZSwXUQ9AbbS+h5RzI7bRA2IGCC7CyAVh3Cx+HwG9jwQTbkM7OOxogcrYn+1EIr/RblrXwXVyuYxVfTigvinUo3hQrz5PeDWQdNKDQwkJNoX4HYIAkah0zRfB6Xz0xeeoBG+RxY6XnpF0hZBYNISUwq6g68ofWd9sAnuwNh2rBCktNfXqSQGiB60kLrRKS4xSiig4dNctoRGN8BYGSi7C4lpAhhwWFItwx6F4PToKBUTquhbuV1cfr9R/7EdK9OxdPSh4IiXq1aMFnYX4qiRTVZNsq+iAXHL0sQMFAkPQv1QdCBtQaotRUVUID3LFF9WktctcWC8564LmEtdarR4M6tXvZe95Qi4+Fw+5dAKEHzkc5qItsXEFIQMcQg9eImzKEjuC6NpaACUczgNUIAgNEvYvWV3uulyyWdG1rvkQM0+DpRipkdpe8iS11Nh7akAVgDalATorVdHlqvvA6xsBfRoRK1BHMigIC4cFISx6DN0jIJkjhhdkqeqPv3n2m+x9r/a6ru1oT6NALeSFpezdUqhdU2CkTcH4gWAzNRgaSGaZsyE5inEDRR8gEbzYyfVCwWihQuG2z61RW+qDGpIXKGSlqN14R/br6L5D92q4KvcN3g9WbjIIQW7iQV4cDc/a9sW4GIwANtShtcRyBJohjJiQLIdAeK50rd0eIAigItLzNfC6+7zhzqV0K9mjLd3ivdU7AmFcatx0Si0QJAgEyTv2JsqggRjoIlOaiCD2FyyLA8FZ9BUMkBpIEC9INyN09r8Em9vmKi0yHcwVkkjN1/S6lI83wq9vlv7IZqR+Dw035t7ibkiFAMHVrnaWWgrUDrCU2lE7C652LxgaMHhVqpkwLnTBFu2e7nWRfKIyHPa1rIR/LNSoO0u1AbpXimQXC+TIciMll4d+yUXbuzOXwduZC39qPdpvplK6JMTJH87Jb3t+D5BuD7lvrcJan5nuIbKOvO0OFK/vToTNZmvD4YEJfCjcdiWjZLRbPuy1y5++N3Pb3PrESt9N5/wiNTDn+IpfMX7Fr/i1EydOzn8XZD0e+de5/6bJHFBxtPveSo4c/jSyxehXGMWJIoFXvNRFRA4vi0sk4k+4s2xpH5e+tZX0iWejRk+eR31D0RM1BmIAFy+HxXBfYiIGBkE8HnHkCJCu5yMVWcm14QaZcCSqdcuATxWN/8LiUwZgzTAgeHCFlRTEOYaERRL639vb1Z2L6r3g17/DL8d4rTsP6hucJ+Krkx+bFD96+vctc7QW94tHRxSKR8xNgCEBETqwTWKUDLjAGXjzUX0RAa7ks0M2MVuW+8HFdC39q7PINCmWYqAhHgNh3L7yo48yXz8C9Dg5/71wEq7+yFnSpSYIhD0CFANUsEK2CIqhejKzZRA1lj1iHAxK2tkDH/pHX0Xvay/HD/TMDycvjCDs9WrsB1L3CYO+DILRWRpJuMYrSlhag0M4yHF7Sehl7w+NBwUg5qFwxAFC7YBwWByjxMgIoCsQ7FgCzlSRUs6NcF3nGvopVtov+J1/vQ03neAA8gSw37nbkQeCPDjSQ/F6IAdbk9ePpAg92vDY1/2txjjQ0Ru65anrRhchHMbrhsO6scjQgIJQ1IjrTTNkh+psJNjMsBRXqhnF97K28/su0w3wxF9OgSC1oyNap4jXurdV30AAOXKEAEd4GQh9BAiBwMXweA7X9VoBuJSDn/r5L/auoZB4S2FcHZRJgEwtYNSxT8L4GEwBQYAKYUOFJFt+k0t4NpRVsg53yUxLwCv4PFEgCD44C/d/Q/hQ15HbEDt9BH1tB8Kw2DdI9rGPZo1x9DLSe/8w8NEdLd2IYFSMiAs4KMgIG2UIK7OO9WRYA9sK1AMk7ZRiboAr2ku7N8oa3V3jsw/TICmAR8GjPlI2jnnmnoMbjRwISEiAJIGCkCP8yDHG8P1N4Dh7v3+x9EUTVd9H8HpCDvINFsFZQDc2ZFLfCDG1QIA7BxY4E+l1Jb2ovardqBttbGkLC7SWEpQhCQUxFICaH67+Z0YkeucADipQvFoHUEVBQkHVC6N9/2oO0pSbrdu/3u+/aacIUGjFqARhdsJQrR6gBJnCyAw4RFhIA65UeWK5Fi5w1nTWymYcqw9/MCge8o5NLRevHppCPeP1yMcX7f0AYr6BAPYrGoW2dmlHo7TQljiII9d1AHUdD53iMGsZFOqI2GKzbyOwyQQ5gwxnoLB1xCII90VGxHK2i5Tyc+7L3L1zPW6Tn6MPhlyCFUSfsvemAGikHCc/eLAlXd/4rYeggMEC2BTFgu3fVVBS75Iev78+0GLUWaAbKl69lJ4+cKZChcV2q2zYyFScOrLPQ5Rkcml7D/tRb2VINAIEZ6Q0FFhqqaWW1g4sNVKjHtTRHhd8g/r2tSrAUFBAvfgtz38X4EALQHk8zosKOGhk97B61uaoLG3upQwDXTcm61ntFokeUZbg7IxUetsbdN+n/PRHf2diQIAgPIB5JzjGpwbwcHv44xtC8zwAvwJoaJYGaECBBhq4cATXwwFq8AURnUOHhyiowVLXuCCDa0JB/iN85n5jk509MAQ1MiV8MKCFkkgb7+K86sMn/VYPdpAntaQAtcPS2kHtaoelUDv2auU64Zw6uTg5eX1yARgmA4Z4OflqyOE+OAn0kvutxO+ZdFa/hHb6LwQpRxYKveQzKkBds4cCueTHXQYkv0wh/52/Ievv5J+Mf2aBNfGbFvT0YB2Er5vXE0nwlBICsFfjqwYwxn7xo4vXDQKsq6d/kdWl/BeIdiaEPgMHG+VYiB4GlEZCNmw4gN5kUDU+Lf4A5D/9N6e/p/1T7zDFvN6SQJJwkMSvzQumMEeglRKiGxkzAAvGjymgQAODxmsagDU0LWyLB+b+gMfFSDLTF6HCS4f1XwCukGDW0L+xKSigC8TPevANoeTxcf6W9J/6FeBNt2dYPFmHloAMHSzMy1501o2DxYcHYJJyFWZMjCcaYqBpAUwBTDE0eH3yUg11bT16pFSxjuAo1NQ2OA6Mgk0xYpFA9Xt27hL6sFB1QSN1Ps8d3X83V4DwaqhALkaCA4QjBxWAOCcjFET0ClmYeNXYAMbgF68awPy20hm6lCMd9Y52N6sPBQg1XhyhG8JwQKHvGCLg8QC6IvQHHhfS2/7PnzGf2tcr4dUN1MFXxUAAwdhLX6ShMOPmZsxXDWjyo80RwBovjA3QeNxF8fte6hCgAoGCBTE3fSYpFhFeyrqnBlQGqJN+20DHf9BxPdwHNuu/FMY+axdgeUB9DEAMQOyNADEoMUxIXEhVSJzlvgSjh2ExYOrFAATHvr2YAEPjHtCrkX6G0LWlwPGDYeuAgpAduDR/ujZhOUJj3Gq406FD5/g5dKQ/6HiXK2tvGI/qvDRYMkICBHRtITBGSGxkEhJZoK7iCAkvjzoIHOH1pGzAL+gVCC9lid93/es5gYXGjXVblFlah5cYSSeOuG4QiQ8Viy5emhM4SNrYAVfJjtIA1wUG89JTR/iqE8SLWQYNU0qlBRkIM4MK9PUi0Uj60oiORV8Y7us+QteKlnaKjsX5RfQr/dBbRKBKyrE7BIar/0u3pAQLjhosZq95egUjRWe3iI4jbayXPyzd/ST82LfiRmD8QA0NBEdgSgiOsLoUtU8mhde66AjHzrF9zQ4xkKyQADkCJEkFssPs6fLV6Tzo6plhaaEhAnagDuiBPF/JByGY4Bn4EB3SkfiDzm1lY9PCQNVzPfcroRQqffdwlNGxk74wcCShHI5jn6gChUIJKQIxKSiKQEglkBAo6JWC9OTgaM2KUIqfEQFLWzmWGIENHCu1EMUMIAoQOb/o23D6QdMxUdLGdvqunqbrg0rAgNkBkhAgfGYOdmBeRwIH4C10sSItiiGGhjusF5RLAyIYhBACGlqUGBRA9aQ9v//r/VKhx0dxAHlLBtz4ZA5YFKywMAl5wu0L/qWwExMLnT3yPkpqR9oYa0dryErA4rn8XH7GffdR2lpadIRCj7U6W7tDVAUeJ1UsaDkuYfNy3w4CsFmMuu3qsLX2DmPx6hZs262RBw+pHod2iWxV/8cka6Fgasg9b5o39yL3BZrIXXd0HAiUE4q0GUo3lVSggLwFChAUJQSUeFW7APYeMYYFGRiFBTZAAAoogAAEKlSvwB4FBODxeNwkWdL9+I22bj7gE6GiscasYlHh1T05RpgsMvhe4xr5LPkmCA+OzkNpw39leFPxylaxNbQ3gClerRcFULukWlgWSQ3jTDB4WVT4ahWkeFkUxesaUEDBUaCHNKSHlgjU7gtUHAOYJPA5WiLg6JvCjmLoVkf0ny2hTyZpQznYAW0AUwhRhbQ1NDTEKA0xCg2oh3hVYqjCEGhhl0YJphhAUQLYGiVgi6GtPQC2xpck0av/XIeVfkeryEaQnVm3glvBsaAWZMcLWOx7wMuPtjRTSGn9N9aRNnA4DIZ9TV4aOD7B5kd2XhZg2FKDtmDSAoJ58tXJjzWTV81XDQUgONuDT2PPz+rJw0hDGxbiG+O4DaZWJccHuJNrkULdrEqFp0h/wDgUkzYLMmwx5KYhxn2hhAmCoaGRAFsMBLqGzmOdzH/94nUbjDHGr9QrgL9WvDRgGyzpZ10B9RIYThAFSS0sTELf9M3S8gedZeaUD0I5QnJuviNxKqxCLxtsQ6qXe2wMPZj7SB3Qw0v3QIl+0toLn0MMAQxAAzQFE+wXmhqIgRgaaDSJo7M5p9MjY0QEhByB4Li9TTrrc/22cjOgEpsCNoBgKXuhZlLi8C7BVuvbiB4SJwCdENgJprIF9lwZ4hxCIAEnP37zcvBVG5gYPGGCYWrATf1Lw49/va+ONNSF6xhHBKwQspj3DYTlkQHH7W05KAQH+UVAXvDEYUYkkADk1jN8X/d9X2LArevWWVrq6YzC7rfhpmfjEuDmhrfBrwDmtzSvmh8rTi7d9VDvkjAE7kJFkkOoPHODODCJk+Jf4uPYYQHaUIaL4ihx5IsKKj+Je1nrLkEJblQKCFKuFXKLv6nQ/Gn0c6jbcI7GxUDAAF/D2NcATUADEEyDNQBjAV7Z0u83ktTMpQgc9hRRDJtD2s5QmZiOanPDPY5AWmzRaCqJAw9w1u+HKgevFhRQh6DEKMSPLc6jg6SHBD0Y86qZAObrE4zNS/PSYCSd0gnj508LgaoFoLDNKG0TU4KdbDgcyH5jsXAzbApHGNS9KnjimM61AV2+QHqxkXkpwZioBFt4o1Hi1XnSSeOoAOY+wqumaxm/1mN+WwP4gEfvul8x6gaYQGJ2oVJGQBATAIMBdqfStxI6k/j1XYOSOHIFNADsemFADL5qrCF0uCS7KA04gfOy81g6lpKEgRjaay00AY1oaQimBhpoIKalh/r11AehP4SkUETgoTguENSdhalmIMMJdSxZ+8gmoAhKCRCJU0i9eNUG7uGlDR7i9Z6ElzZQ9G/VoOk0ptIz3cPXewHPQIix++4FTAyYfhAaPISkLpkc4Q0sGOoDYthQOKAYxK0s2Ec5JrkYKC+hxIFMmZoagHG2bTG54B4LemAjgIGmZn/4vDUdug5/y4NGtEK5BzoklIsCCJBQpJc7cU8Bpv8kuh9s+gMTdIU8iFAQ4i2yu6qzWcVIWDOl2t9gKZzvtIAZyVMVsM0LdxQMYKKy7yOOqi9zhKMOEp1wZ/XfKC3WQIydTyQaWhpJqppI3xUtd8HWrEoqEYvkW7hS+rK63buQVAzcwYXDvG2Uovd/iZ0CU8yFeBmC4Z433KF2Vs2R0oYRMpi+ra0E0qunp1eeCemBAAGcEOY5CeZf6uJEYpMOZO/apGdeQFJsCGRD0qtD2EE9XY/e9Wns62eHo6RNKEKBLREalo8jI8TmxlzdUpjCh1BkArhKRUepkjazxH33Tyyh3ssaWloBsZL7QDtJiNjlQuwufgYe+g0aB2AooCr4QYAqCqpXvVYJ5vUqjrpAHX4e4uyEbctqMOEF2cApqVb27dhPbbbPS0Akkw14BE4cBWdY4rAgeFlEFBTUnZcFBenlTkLRcrChHhvq203h0ODVaPAyaGhAlYYYBDR4qa3xQqPgm1SSthAqPxzbZufyTukIhX0g/Y92y+DjES/WrkkxvAo05BF+4aZG6qySttilwdYWjOLlQOMDWGgDW1tbVFHiFN8K6RKCb1U1AIYANq+bzcvNpgSMLQZjlx6yD05+lri7S3n0RQqTLa4CbjUKhQJnts+MjgJLR+ihFWF4OZZKTh4mAW4IIQBXlaZKpYFAoAEg9PHN4LNTx8M2Lwswm3LxVfuVr9oABgyUMaBTXV399+uUNU1CHDWczDyUUXjVgTZTZUbQrowdf2aBKwytCDDVxJHNZPZll8G8arALsHndvDQU5u16P6CfHTe344UAa7xmDDbYBQUCpm0KwBifOt2IPs+dHfOEloGqo5MjKMikAyxfIRtujM6rjoBMIBGZKXGwqUzQ8DlBQwPQRLz0FAwNjR6YzzC1/VPr8+Snt3edoyEYDATzwlO8Oj8M85xiCCbAtJilIdj/UrmpkNXB+gywEPRRmnEY9UO6KLJv/kyWoLg5o+QAcUxN7kA1PHVkDGMbbF8GMEcM2GAwDrdBFRjwMyfwk0C4ARjwsBsYtqF41bz0i1cnXti4I8ZNrHOFTfOQ045/6XZkOcG+HR6ZH1ysmESEG0UE65ngYVawInJmKsReaqlDLQMYcMM9wKhr3BgIGPb1dpEtbI4M8fy0+mHQVHu+AW4ID75qo6mBBl8Xgx+pgSYcv+8JT5hFZ0J9ripLzjF+P8kbeSoWNwYTF+AOuarVLrkFUmuhLs/iLHFYU5C+ryl6KBvSP1RBkuehm1Zl9x5e3mQ+db098/sjNzVxwgQ80YuX5sdP5gv5lQnT6Id2N9YYGODzTuxoY3QjlNBiGZSPQ0AImxtsrVFQiJvXPWouKW3UJWuI3dy143qHqiptm0NQCCEoDsRAbHQ7tHhD4IYwBmzwb2G+avOKAYz90rht6m2HZkmj44DZCJz/EVEMu4vUJFSNArFlRDlikbMsIcgkztZGARQGdgmqVQHFb2leLeoARYdA45ztHBq8amOLAZo22BoGNA22jRgG7jDoeqAb0M2wmoLMgqlVoMUyXIs6KBZPQLPwHXwRgkGYjN1V4gqmjswyZI8SW5RKAAaM2Vxm6MVLY7Ym0tt7TnmenLycFzCsnr4nTPPVKYBhAX2Dp0Djg57ll1fiEEOwyxHC0nHTliVQwWCZjyVxwxmovMB0hLQs4BUNInFYLIYBF0CZl31jNAoELmxjDbBBauZfH9g63YAeemGmqwoK+JrpMWBDqnjZ5+OVcNsTUJlcYmBQuF+bz9G3cY2t4bbZsDWBkZglUKGZjCyDoWrmNUKJI6tlpgCDe2Berk2AeeENMNXwPAo3gNNtdfk8Gw0gJLgH6EngvrAN3FcSenrZ91E9QOhvtruuwmzMDDqYmRLL59RuUkapUClDxeeKYxXZbGb7PocZsoVYatiB1GlW9wZs0K6y3fxY0TLg69Bwj0ZPaZex3VfjCSdvPN9fTNFX1X1r3xiaG9LTySJ9u5K6zbWXdtlU2R3Cv906+3yH1CdN0Pl/6WZXlyRikDQK0jcURx9x2XeMxi261VyjGsP2h7xqyomDDeqhE/e63+7BnapKeuEjCQlUSDjS0yv31U7MdV3vfDU9O8bQeVkkITuk73t6ejkVOoH5/F3O+yWXDZej2ezHMflM9jexUyWrBnzruxefxmKc2ivpe4k9sVY4ilxXFNs9VtJGrsZHoHbd9ir2fYmt6c3uZPfd68hwh+ywd2DJPUf6v5u397dwVEhwp3oVaCQUpKiqJAUVKDtVUAe9Sun8B4PeO8y7q0S9L4sj6sCCYktJjLY0/0f2PXX+YHrdbK1MLFkwh3fwtGHUUtoEd4UKaNS3EFRilyjVEQS6IYDzLTkCz0PP1RckvrNLQ4zavLpLsNt9+85CW+yf2Rbs3Tf/3K5rumw7ebNOJ4vCBatMimLHXMpc5BorbCjXqgcYN8xoBrsdIm1WBWyKXQXsj9qB2h3KVBWbpLKLUFWw9czoYdyspR5uvFpU8XqxoXi9AFxQvL7OXyl+H/TezebLOTO26ikyLZwVfHBxbKDOmiDnQwjuoIlDn0itAXQLobQBCASqQqbulDWoAjEb2tX3W31DxajC1Bv3SR/Pkw4HQBWAC9eLlwVQULysAiioqnFdePwQMGPzuJytxo9NHXymM8AZ7GaHpapnVRAEnBqVUpwiFV9RBTm1JI5tG+Zlga1tF2Be2rxevJTcJMjhEwtLIwdoaGiAMUbjFRADDY0XdEQR3H775/733/tHDFD7FHWE7GIYmCrGB4gIVDjxKDAD8HlsLyAQV0LMqICsJw4pDPv3NrYxTLE1tT/2BQKmhQHcAGbnBEmAOsC0DVMYNj968NKmy5XTEEizdJdyF/pNbfYUJ8Ow5GCg+Fxhi09mfnAULPABYRPHASp8gbkCqaEzhdjujNRZsTZM0QswcHEddYlrwED36LgxrokYSB7/gd9kPqVzSOZlLAyYF9F8xWCDDdRsE8DlhP3tX9d9DTTMh38fc1FHTXnBUb0smGJD+m65cmXkCrmo5o1H9dlKhmvmLKgmDmtWbS5DXcs2GrI+x1tpNBusummGThDQcx2fhv9kbsdFA9x0whRD00YwmZpwTdC0mJIqZro5utPCO8GmSbKNNEsF+B2/myprfIgbUTmFNClurojFhale7kWCoAACJY5c1TAGihiexcsemxfcF72gggHKLfccuXgKccKbwQZjYwMGGwM2GKu1muVMvbz7rzcreo7CGNfBG84wKTxUrDpN6mC56jO9A7gdjkI93992WNaKssJQFaEoiQOJqxf0ZJStsO9F7Xzfl6FnE6AeyzrK9/TwU18a50+WaW5Yk1dtY2NefYXfUn9yF1MjbPcyeGnV+WG2XcAWdXw2IlHAzY2KyfJmu2VrcvGy01ksNHLvicPIS1VBqCDXy9i99EMo95QQO5B7EVOU9ZbO+9vbyTl0wmRqatg+hybWtAYIBhqaZmQwWf6bzx0FS1GEa++C5yCqB84hOCjvDjJWCNamo1K5FF0UkqkoNkNdDEXiWLYxU52XxdjRo9yrdlGuneKrBuoBFKSHtx9S0FQDA8bMNpkABrCBCeDaVFWtNt057OZfV3sr2P5/Nom9M9Nd7FBMyk1VWymCKPahBQyYhfEEV9HJLuApgpI2QLGrtOVdqvrSqjTQ/rk0z32XtraGmGg7JXZvF3l7P6+fL04DDQMYg7F5aV4YbGcMIHNH90YYmNjVb7G2A6hwjs6WtLQ7Bwyz9mcKk2jFKmR5uNlu2STFyghx1eLD/z1xOBADbiA+RYyFMUa+L2+AarzU4GXr4PNf5FB7/uoGYIMRQ0yDGJpY02AyymbcJFc1ilQNN6COjnHZu/e9d2xvdW8Bm4cxXtnGzqjxIBcfhlmsFoaAHXA3fb20YVtVtmC6ynhqagPMC6gEawr8wmxN+Vcx37tPfkLrlF7p8WR6gg0wp/umB9BkqroKj99OmiZ1Afa8VjG1+7rrsb+oHlBnEe15yacuVs8HyFwnVHXwcTNKrnQLdCFMcccFd9C0kSUzYJ9Ql4etXtaQse81NQ33hW2+Y4PuA3XT9IN546S9UZCKscEGQydVVIpec76Ej/u6qzIrd5sMrMlZX8y44v2ZZII+iol2aakgtRwXXMTb6/LQt75ZKahGC0QfbFdkuttiT04bJqqNewH06lRc2AaSMnjcY9OgqHH2IOP+/qXz1tLhuUqrp+f7wrgX3FlaRdCIlujU/3q/a/mylSq1hp+5YFMz/Y9sRHk1vExxAavDbwBos7hyBTTv1QzYi7ajQizerW/vsSBx3NIa9+1b9p3at/2Rrel7Dc37ti16icxzWsyb4cYE7jneBeiNTvZHUqHoYXuzNzGEnSzETbN3uq0wVzMBctXwLpRNtdsPI9WEQz22qSOuRX2u096PXLvhTbY3Nyu7Z7NsRWUoqOVqud9m914ubZTK71D0ClW+U7ad2nZVNdM1tECoeozvWu45kr76uzrmZTpxoCiKVCWheJlaX3q9vTLeStOlyu1V1eAocDNPvbG5jhmMLqppnoXrcHeLkj1Irgw0a9bg/5k9F0Arqgiq7rXa3ca0IfDa9bEFFKFgXn4UGlcvYKdDQoBQ6ZGiIzLkOF4pCMWr1cuduBdV2d9+888/8PH3yvVVwrlJ13RNJqOoijcooLh8LZWZCbt/5nbf2CyUqY2qjEUOQX1JBeJDhpgJw8b53cd7OdKmtbqiQE/eITdg3QtR93Mgj7oo7bpvAQzB1lxUZi41USTNv94ZUoDQCwZ9BzmuD7kfrmZutzzHdtm+/P3P+y/LXxeAyD2EbwKWBYzUozLq7dsMTDW2ipktrmxv4Xxwmmi+uRRseq3kMpFr7V/3MsNtiYM4x+9IkXSzDS5rFhYl2Rc+Lc3SsNhoh1VNReQJoOw9EECCTPUZbqYP9gkCWH7gWUdl13aX3qqfhulTCppN17/7j2AxirecP2S8O+sDqLgw2R94gZujYz5GiRmokX3ic9ZFCsQENhn+CS833VkTR5YE0zav2nabHld41Rg8bADbc/syTfbrquJVnQsEYGoaAghTnaTXD70q+yU77SjuKs+UTQ2lbqoF8mwYMmSb8qg3qj7KAHLbbuJqGC7wgpsM1zAqVNqeijGSZFIz4S//96/uhImDigxX46uTa1yWXRZmNsuXsF806aJRm25HasiwS5PgGCZ9EMJUHwc1+p52hF/wbb/tv1DqLoiJJqenprj4xdcEIuALPLRvYwqK3YvAqFkPF0ErDlDjWAcVMeQ+Yfy6UTRd3jj76atK6jQZtg1+iRtogsEaCNzQbAYNYr6UEhU1WUxIVRIIIIwP5oYbHXzYHfR5fskYZLk4zNXdiXFzGsY+h9szDdgfoN0guhyw58cFocgKs8bWeK2KKuAIGwz9f9fuUuOnXnHBvWrqsJMgZPDznZcGTGdftulxL7vHfct06KRXUVq1+n5PoELNBOH+zOsx3L6zdWgfb92vEPpTSKD/bpp5en3/nNSemar3KbainqkPmHU6s5pzBO3C5c2nkXrmMmWjKrVNrsJA5bLIuvJ73hEPqQOo3yEsLdugqXnbt9Lg2tq+VdvaudkXUKyUzOZq7G9wb2dIiNoRJAhhyOZDzVPtLDvSdhkjWgWEtE/uUfdc51uU0X/SM0vNXcGYLJvd/ChTUA+0H1y/1OkH+rgalbkRy+ee9ZjZ33Dr0/9jJlE/7OWGfyZ5btSSaCTpvPsZ218K2zyoSqXcq+x7Paooxe6XUYRKf9M37BgQJCBQT8Xd+Jne227STod3WZ+pPtAb9LJcBr3gd3CPDQtXFXifNsE1c8t021CbXRR1fKb9KfMllGeTebcYh+HTKPjAl3qVkOz8leLmzpg8tGqsCFZIB5ykU1Wlqn1RndraekDVENuwpVmlTdfi/GXwunFgBgRcrNN3tCns1HSYTA8304Qe/dDr536qD6HHF2DenWcjaAne6n/tHsbHLE59ylhxFRt8W3yAG+3sBTjbtPoShOphUWLP7fLHumC87nULHupIn0PDVqIVawSLgfbPM61cVYBGiU1VIbDmYvMlZZ+//S/e0GtV7YDvv1m21/c+nA4TfNGn158a9Oh2EutijlqIyf++jUQLv/NgsovaZlCl7Pnxc44v6DmYqKzPxF47b4XeFLHF2mbjZn/RVbHN+YQK/3nvSALVEpjAOnFyXsYvC1ejMIABTMMGlyuslioqx095ofqy8m/TFLp/8Lat5G9WhcHBPrknSNBMQq9PQAj5AtxwOi/Ty9ZFZJ3Xo1yXzr3bjvaHm8jkecNyG9nsNlK3Jbe6wjR7/78N0I5b3+y+mkKK8X7Na9qWmzFL83RjGxnA+wIYAjxtFDKhdk372//xY77qpcD+5G1+2MSpfio1jpoueSbkHaHu1r1BN+eawm0mF+tq68QUPuNSPTw+jsNWbRSzrfJ2DlGf2XdX8DeL0m4lganlvFP5t2c9tiOB5k3VezM0C2ze4UtZGFnYl4eFxZTBuhrCqlUL49Kwo15Bvyv9clN9cgiuliBBmBqAOHJfg0wNmhHG7zQhXAY06jAHC1TZNXKtwkJu0L0FVEJRTlFo/hfm3FSmNtGabooPGN8shVBPqvA8Meb5Pi94Z1/usW2wp02P52UbG1P3auq6ea2416lQOwJgKUhAAgLBHEIwGZ7veGDj9dO4AG9u8/YoHxk3NqYmDtsPdi3YZcPyh28LucZuX4SbKPo0Ua778zC6n5BCrYFfV955tx1tSpv7VmP+XKBt9GBf2FvTRJYJhBlMw8Tn2XAzXYAL+XRwluVIiljWC5gzNDRvPEPzObCwbZZufEHfVS66BdRUXcEf7QPnuD4j5JhtkkHHxWdiJsWl1K7da+NDGGlUqhZiXDwhPJOq9lEvr76SckF9UVXxpdTAWFUNUWt5iqQ2w/Rww/jpg6RfLkUCOPPWI9B3Gp7vmPlu3LCbQbQLdoUCTCBP6pqnE++nCqILmnJxnAWosOy+DKz04x654qMPaSQHrXl8KUvd753AUK+30xlwGuhupEMgd7eYe7iz8JVnBjp+st9h0AnH7Vj3GgLKzzyot/P9ad6Rh/gjbX1ZpgP+SeBbNYrp8pB16595tW0sNke8ybCXfoL4ayrjcu9IfZKjgiKmKQ7PJJU+RdzdAuP7e2eB+rjyTK+Of5FDn7dxGdYdmCeQnkjq4FOWGwzdBG6Ea9QXfcBscmrr3N9Z6FxouF0/8Skhj7p4Rh6/h7hxo8KYstgPZQVPrvjP3IoltzWROgqXvTJBBfsjlJj8nFRqJqCH58mCJ0B4Nuf7gHM453/yZDZNbA00NbW0vo+WxJigqaER4FrG7wXaPeCcT9ysvCMDDYEpCyeepZqmMGwsCoF98AGLDdZjxL/PpRYONoLRtiUGxce90fdNJFPVAHh/0gyNyWlIZ3+nYV6Gy/5VxgbcDGD8K+1qxFrGq+PZTDPNG9MA41Zu/lXg8f7TugLrij0pu9X1y83szUA5CnY94owM8fjMZM6azPxnq0S26gVK3R9Mi5Sp3CXlwN2W3FN/iYR6jnN3m3A+F2ioTcT6zrrv7zTwsNrEAJfdmAKYoGtcHuD+bjFpV2O9nx5Yw7ZmnYBRA8P785wRBi7V+O62L/9jCAgub3mp9D7iBUtetwovJRYTUp9f40CN8KZeFKmir1xx9jd7P7iLkFCzFOtO0+Sr789mGj4nDedJA+ETA83nMO/GMvDOfYEJL+3+q8EQXjVovMA2nManbaB/opPbtFiJL7YPtozh2255bAZechOsciWIbRFalgC8ftFz9Kr9mjOS6lO0Ey/HaZqhLzXz1eYhAPOF75gePAW4uU1Ey6+CZmwMmadhiC/KRLT5/1+2YZymTUNzM42qX6tfMXcLapoq1bi0r5K+S97HGUvItYcsw+jgXrkEHVfOpy5x9BSeuUaLtGoNcV+8fk5Onixz34A6+x57mKZluDWe4c5Cz0W72rzruTDyL6a/T0z/r3xpW2w1o2tfu/m+MF05J+YafN/CNqhq3XPng7bJMy4anzK2qclynPV8l1XXMHCgldcPXmY+dKxul8oNbtIXS+S6EUDPi8676YFO0anu0AsMz3BP5/2ZjhZtBp6EOMCXQJ4K4UjLUV9UBb0exc8bP0IPSQ+DO0DZneB5XsB2DhWjhs6adTjziTWqxH5XmimT5UBagq30latk3iV6xlp2diCCraDBfen56/f37nFm8D296PtOMUQPQCBe1orW9/dn7nk6dDcWJLDE6hlWoPiiqqEam3tgiaWeAd/XjbC/7w92bf2PzOZfMkPXoh7bp5ec6W/8ES95+l15TmYyc40i5wOymXoWJCyLPK5HTyaRbBM8G4EvZT3fny3QiyfhmV50n/P9ea7QxbsRzvMd4nP4/ZkWROjodiyE0uc5aVebVD9xuv2uEa5flI4byFB1p6wltjbl0TrUrPPCOr8sF2sgWLFB1YKf2aVY2Miq1D7FQCJRrSKz7m4Lvr8/m2mAaW7UE1jfGyvPZmL8HvPOr9/BCbQlHP/6NNi8G5Nf960ZKr2ZV203E7NyEjtJLzD7f7+/19B+XJuyBfMnl9EmQ3J83diDFe8M7ZK8S/KsiNPPS3RbIhu8392YnDA5J7lPyFMMznojd6abmPI4Z/P7s2kC7/jdBjin8ECNdc7TJzPmZGO7bA15cLJ42kCzgTzrLN18c12tzGb1j72LzKCNtwZTdZSti3PW9DqQuy7OPEik25s/gYZ//d4w0NzcjPoGmsMTuRkwDWPADQgv3xvGNoANNva681IyzU1gwPDricHY+D3XpKrl8HTboaoehZF68FlQ1UCldk5k3wIbh+3TDisXRRLtaqtoU7/ynXE+38E8P4WT//0vWwwxBI3JvJoxGKbGl8W712UDzQB2M682wzyNWt/CZmqLJXCTh7iewS22RyHj5xVUXOR5tNqLUl1MdnDcW64y0GNjv+tbrBSuVPkuIl+hgRhNQx73dyYa3LcGAgb65fvNGtfAnJ6X+k/5T/4kGGi4XcNv0Xw73wfI48LX0PDtYmpY6Ev66fIw1zOg/qvw1DxVPPPMFt5VEVQOf2nFJP/ZquX9VrS6qd9tS10RXCLSKSQCzifpKXvgwahzwre49RxLx+JlM3AbMDgxz3cgfCn/IzUMcA7fS6GJYPsa9tR9AzTDvYZ6zqSJB+TKuQraMKl/5eBrwnpT1FV8XYnCqlBRLQW/tEK54ctdy7PdzrMfuPOTl+lIxRvsi1V8K179RgG8vXP4HQ7Cy557wGR+f3d3oD2rFzDu9YwSYNwA3t7pBQMBz0D3Nb2aACQenGXSAE3wgBLVtqbeNo1rcvBr/m8AfY7rHrfixXt/lHS8jVX/TxHo+cZ+7E4D/Gt3W+KN9wGdle9uhnCHdS1Q33dGQa/vG5bCIn11/3qy7/Vc3xcaiL5RbZviSbxDm4yWLiJJqgJgNKmSVLUbGC2NduuKo1NnSy+vd4i3VOWvSMrdCMc5mwlHjlaP4XMYeH/jnSMYzhXw+xe8G66ROzPPVnCfuU9CAu8xaDp9382r6YY4tHdgE1PPHdAACA1qIvVAE18ToqXkbSfNirBSMz5xa7ZXSNpbMSK4ImnZNhWcA2huXofg1yc0//pktBtvvMwTDLiBGxjIE1h6YtsYG7Bxw6y7YX1n3dktspYO1DHaZKRGY6RZE7yyLmK08aptjS4iLlFPc9Hv9g26S3MFvSOK6xE9r9BOyuILRo70hgfn5Jy8PBe8nbC4f07wfk79YmxNznlO0g0nMM/5fk1rWkyD86RVx+fk9Tp5KkYJFlcPKIJukpjQDPUigm5WtcXA648Yl6KbiXNWWqstC4ikT/5VDJ/CFzRMw818tRmam5sJNBu+vxvAvNp835AnNoDfFLu55UkzefKymde1oS4YtNGAwat2UuLJHX7qycuVI3ts7PZ0tK8KkfWVv7KBhnj5bZ9m9NCYgjZPD+CcGP16n7eGPRFDNA9Brx488MVa+RLWhc1AjSc1BL1IrMvrJvECdULdNYHLajKv7NWB0Kp5pzvYJYJjmNMKiLJXTRkD5+RbcR5s+iLfzFf7wnRpoXSthnl5Tr7+XEDe351IrL679n0D9/EZTwBtIPGQFJnAXnr3qVWkYOmKnZ+xvmKHZTMg2j75ute3LYa+UUMAQwfkCByBYwlYhJEelr/U9OoFHYo2BeRYp58mr7JF8xD0olffigQ/SQlJKRAKpptBUQ1WPXOiWRDzTBuNJzoCUffF9nAQ+m59cb7R2J3V/c7g1b7QQIt7/OtN/Wr7vu9uG75n3GtoiXUt226LzuLORn3fN/S6bwCV5OwxLSK4qQ+Z4V1+wWWKdZWHWPsBEfhJRHyrI4/NYzaTI7w88sb7G7zz9v5sCfid92cLOF+Adi+eAXjGCe+8k0RxgKFnqyd5Vg/gsIknzSckJi07S57uLP0pPZ5DjQPeNyMSf4p0hGPRFx0aYFpg6A3gV+Ant/X9V9FMnu9ed+cJkCd50rLOvMH7e8taeGicbvs7kHHHzQBZCyupIVPP+wOztetaDhO9hkFHNyQilxFtttL4kszr6ZNzPQfi12cbbgZZqOFxwoTcJ5xMUJtoWm4MXyYXMzwFA8QIz6RGABQZVxyb2GFZu+NQ9/QzfSarAiWSCF0nRB1DwDlfgecnywOa+eqp9Q5YiIE5J9BwMxpaUeAyBvDln54TDc4Jea7vgBLqYqb+dPcfWbLKMTe2p0GvmuUxcwHRuhqsTnMzNL/oi4a/1mK/P3sAvwSam6FhmluZpyfGDbc30uCHzAnNAM3NMLHiGD12QTtrl7tjeZfp9EaZr5ECiNZbO+G5roH6p3iCeS6N00NtImgTBCy0NDlNc6/GswavakgbkDo4T2INSNIUQCEoRHFN1IeOlYzve+imR61kRelj2bwkEbzNSw3gPkAb+Hnzo++LOz1Aw5j7pvm+X+kaeEg8JConFc9eJx7gU8ue0b9ducoxo9m+5vkmI4BI3hxn9WLA3eng0AM9rz1qQJ4hPTzxe8fN4dXuVrzqLBMTjyinMY3pJiBKFK8/NvM7d63lcley8L/5qhaR/Ue71wCeZw3ge2Pf2zzxuq9H8fNG6/2+CE+0kH993gbfF+pe6O3caU4rQyGgXEbq2w0AbdoNNVo7cuL6BbZmPWVxXvN3ifCPRzOEJ63u+wl5Enp4mPT0ACHPE7mRpyZ5NkOjnoR5j9NgqIvBOq1C3bc1ptFGVQK7/81o5tm9bhFsBYqIPz/U9b1tvudJmwhg/YzbFOM0zY31fWhdi+R7m2J9Z5yGtr+vp2jkKQau2WzXA0obqRtkqhocnzA2y6ZuT0rZScyERP86J0C7Pg26z9znOc/JOZs5d08nEF6e14lzTjg/jV8W+z5b8dSAuHrQKnf1UC+KXDlzNg1MtadkecQO5njhckAs2A1tCmhuGJrTWfdxGuBRbX2H/jlpYczz3bxshmbypJnE67yVeNAG9C9VnQVPV8aShA21h4M1LLHhY+fJSw3Ei/ZDFEND4/TQyBO48f5U2xpa5zznvQYakKdAG/FVapEElKipzyzM6Gqw7EJXElvKHMouAsSHKl5vbub1hzav52Fo5lVzz0/P8LJX3fvmZUoOiQf1w+WxXamLBjvYa7/KYS5LCWJF7XvfYgjoxRA8iscWPIohhp5Lr9DJvA3R67kEPEOvjifx8JkVQ2HskjXWrG2vok9l04IdAuLFg8d9d23U93fSvYB729wZrXg1fG9LPRhugx/5neYFqclS9e/lPRdtMDDqQJs+nY1N5yiJH3ueBOBJizuG5nN3aA7QoQW/E8CBJ+RJw+EZN57WXakyoePcwfvdMNieOKt13rZDQvx4oh7o+WIW30k3zXmwfzbN685S51frV/ErgID3jtcd8ILv5D4+d/zQ3u0eut6fXy59u1kaYspA92l2uxuaYYh1B9YdBlrf38+rWZJANLPuBhii+R/95B988h/lsQ92+9KuUC7W6Y4hrjSdPM/JV5vJvfX986aZV5sxbuZ1n7OZ1//z/+At//Rfc+1fd7X95RezGFkSWZIQX9aE7QYK/B60MQDasGdtAB3qBo2ZAAXeAlLAGmhUybJhZGb3Hmdf243oo4vrV4g7nUIJaQmBuklyA6pAkOZKm8QjJE1RonRAiXYekqYkRaQetHrJ3UfOO3P7dk8a7IK+v9Ii7tQoxUQDGDxQA+KBNE9zgDyFmkB59jqRWvCSQ0bjDKmedaXDC90tqJDEoB0h/wAti6R5kQGmfYqxAKIQlXgEha+K0hQFgkIUoeIZOXXOxLOXexxtsU6FJB4tIjMsLWXqOc4DtDwqt64eVObqOXvpLM46224oV7aUj33s4Wz7uzd5rxs7EJ8ucK7apepQOGMdkNWAAWssibFOG9AYyNJmu9EGKAY+tGatv/7ahhskZ+YSqz718sLKTBxKFyneWtsymcpAoQlKbItrqjzNU4woUZ96pf+f1WJu3h3sVu8hMRnx6irphuz85Kc6tDdgHVDPHROtwzqUbdsaYaDxoVVn7czZPbo7HSK2eTdLOxXEryttetYtuxQ12KDEWhRgQBttwCbOM1HUK1ROmdOwu9+BvH1VNiKrFcSya8CO9inOKBVYqAelAAVog4BPBYWgDpZPqNisWu7qzm5g+5yHKIlr50jef80Wj/WnHQUghn3UholTFWP1iPlt19/egbi9ZQbZbgUx7iBxSnTu69vdPbcUgW7le9IGbQDUlUaPnGXsv7sb1+mJMpS4QkLMu415mMN9gG87ZixptNkLSDxwcPyYqs3K1e66ukMNuim9mf9O7Puvn/8Y433A77jkvB25Br8X0KoaR0+dD7Y+7IZRV6eu0M6PJB5W51d91IM+/H90phYl7OUrjO1r+jd60rWuLFiqslA7U1kAsXH4nWLcR/7SxwClMaXUokCgwK0Gx8+9mLOa2Xp7j99knnSxslNBvPwlF6g+Enlfxvv/ah5l1YqmyLQ7nKv+Z90lTvUUmo+LZImjP/T5XnGcuBiOgU5yLjET/nEVEGMr4Yn9f+r/U/+f+v/U/6f+P/X/ayIGAA==;" parent="1" vertex="1">
          <mxGeometry x="102" y="2463.8599999999997" width="30" height="30" as="geometry" />
        </mxCell>
        <mxCell id="hI1MMncq5XGI64NFk41I-38" value="" style="edgeStyle=orthogonalEdgeStyle;rounded=0;orthogonalLoop=1;jettySize=auto;html=1;" parent="1" source="hI1MMncq5XGI64NFk41I-39" target="hI1MMncq5XGI64NFk41I-41" edge="1">
          <mxGeometry relative="1" as="geometry" />
        </mxCell>
        <mxCell id="hI1MMncq5XGI64NFk41I-39" value="(topic)&lt;br&gt;ffc-doc-statement-crm" style="sketch=0;aspect=fixed;html=1;points=[];align=center;image;fontSize=12;image=img/lib/mscae/Service_Bus.svg;labelPosition=center;verticalLabelPosition=top;verticalAlign=bottom;" parent="1" vertex="1">
          <mxGeometry x="-370" y="2440.2199999999993" width="30" height="30" as="geometry" />
        </mxCell>
        <mxCell id="hI1MMncq5XGI64NFk41I-60" style="edgeStyle=orthogonalEdgeStyle;rounded=0;orthogonalLoop=1;jettySize=auto;html=1;entryX=-0.017;entryY=0.127;entryDx=0;entryDy=0;entryPerimeter=0;" parent="1" source="hI1MMncq5XGI64NFk41I-41" target="hI1MMncq5XGI64NFk41I-37" edge="1">
          <mxGeometry relative="1" as="geometry" />
        </mxCell>
        <mxCell id="hI1MMncq5XGI64NFk41I-41" value="(subscription)&lt;br&gt;crm" style="sketch=0;aspect=fixed;html=1;points=[];align=center;image;fontSize=12;image=img/lib/mscae/Service_Bus.svg;labelPosition=center;verticalLabelPosition=top;verticalAlign=bottom;" parent="1" vertex="1">
          <mxGeometry x="-240" y="2440.3299999999995" width="30" height="30" as="geometry" />
        </mxCell>
        <mxCell id="hI1MMncq5XGI64NFk41I-42" value="" style="shape=image;html=1;verticalAlign=top;verticalLabelPosition=bottom;labelBackgroundColor=#ffffff;imageAspect=0;aspect=fixed;image=https://cdn4.iconfinder.com/data/icons/file-extensions-1/64/pdfs-128.png" parent="1" vertex="1">
          <mxGeometry x="-948" y="2644.1" width="30" height="30" as="geometry" />
        </mxCell>
        <mxCell id="hI1MMncq5XGI64NFk41I-44" value="receiver cache" style="sketch=0;aspect=fixed;html=1;points=[];align=center;image;fontSize=12;image=img/lib/mscae/Cache_Redis_Product.svg;labelPosition=center;verticalLabelPosition=top;verticalAlign=bottom;" parent="1" vertex="1">
          <mxGeometry x="-703" y="2589.59" width="40" height="33.6" as="geometry" />
        </mxCell>
        <mxCell id="hI1MMncq5XGI64NFk41I-57" style="edgeStyle=orthogonalEdgeStyle;rounded=0;orthogonalLoop=1;jettySize=auto;html=1;entryX=1;entryY=0.5;entryDx=0;entryDy=0;exitX=0.5;exitY=1;exitDx=0;exitDy=0;" parent="1" source="hI1MMncq5XGI64NFk41I-46" target="hI1MMncq5XGI64NFk41I-7" edge="1">
          <mxGeometry relative="1" as="geometry" />
        </mxCell>
        <mxCell id="hI1MMncq5XGI64NFk41I-61" value="" style="edgeStyle=orthogonalEdgeStyle;rounded=0;orthogonalLoop=1;jettySize=auto;html=1;" parent="1" source="hI1MMncq5XGI64NFk41I-46" target="hI1MMncq5XGI64NFk41I-44" edge="1">
          <mxGeometry relative="1" as="geometry" />
        </mxCell>
        <mxCell id="hI1MMncq5XGI64NFk41I-63" style="edgeStyle=orthogonalEdgeStyle;rounded=0;orthogonalLoop=1;jettySize=auto;html=1;exitX=0.004;exitY=0.934;exitDx=0;exitDy=0;entryX=0.5;entryY=0;entryDx=0;entryDy=0;exitPerimeter=0;" parent="1" source="hI1MMncq5XGI64NFk41I-37" target="hI1MMncq5XGI64NFk41I-46" edge="1">
          <mxGeometry relative="1" as="geometry" />
        </mxCell>
        <mxCell id="hI1MMncq5XGI64NFk41I-46" value="Statement Receiver&lt;br style=&quot;font-size: 10px;&quot;&gt;(ffc-doc-statement-receiver)" style="rounded=1;whiteSpace=wrap;html=1;verticalAlign=top;fontSize=10;" parent="1" vertex="1">
          <mxGeometry x="-624" y="2572.04" width="140" height="70" as="geometry" />
        </mxCell>
        <mxCell id="hI1MMncq5XGI64NFk41I-48" value="" style="aspect=fixed;html=1;points=[];align=center;image;fontSize=12;image=img/lib/azure2/compute/Kubernetes_Services.svg;" parent="1" vertex="1">
          <mxGeometry x="-569" y="2606.91" width="30" height="26.47" as="geometry" />
        </mxCell>
        <mxCell id="hI1MMncq5XGI64NFk41I-59" value="" style="edgeStyle=orthogonalEdgeStyle;rounded=0;orthogonalLoop=1;jettySize=auto;html=1;exitX=0;exitY=0.25;exitDx=0;exitDy=0;entryX=1.004;entryY=0.099;entryDx=0;entryDy=0;entryPerimeter=0;endArrow=none;endFill=0;startArrow=classic;startFill=1;" parent="1" source="hI1MMncq5XGI64NFk41I-32" target="hI1MMncq5XGI64NFk41I-37" edge="1">
          <mxGeometry relative="1" as="geometry">
            <mxPoint x="61.5" y="2471.15" as="sourcePoint" />
            <mxPoint x="-447.5" y="2472.15" as="targetPoint" />
          </mxGeometry>
        </mxCell>
        <mxCell id="hI1MMncq5XGI64NFk41I-37" value="" style="aspect=fixed;html=1;points=[];align=center;image;fontSize=12;image=img/lib/azure2/integration/Logic_Apps.svg;" parent="1" vertex="1">
          <mxGeometry x="-110.5" y="2450.2099999999996" width="54.12" height="42" as="geometry" />
        </mxCell>
        <mxCell id="hI1MMncq5XGI64NFk41I-71" value="" style="shape=image;html=1;verticalAlign=top;verticalLabelPosition=bottom;labelBackgroundColor=#ffffff;imageAspect=0;aspect=fixed;image=https://cdn4.iconfinder.com/data/icons/file-extensions-1/64/pdfs-128.png" parent="1" vertex="1">
          <mxGeometry x="-526.94" y="2653.2099999999996" width="30" height="30" as="geometry" />
        </mxCell>
        <mxCell id="hI1MMncq5XGI64NFk41I-72" value="Document Service&lt;br&gt;(Azure)" style="rounded=1;whiteSpace=wrap;html=1;verticalAlign=top;fillColor=#f5f5f5;fontColor=#333333;strokeColor=#666666;" parent="1" vertex="1">
          <mxGeometry x="-2215.25" y="3050" width="935.25" height="410" as="geometry" />
        </mxCell>
        <mxCell id="hI1MMncq5XGI64NFk41I-73" style="edgeStyle=orthogonalEdgeStyle;rounded=0;orthogonalLoop=1;jettySize=auto;html=1;entryX=0;entryY=0.5;entryDx=0;entryDy=0;" parent="1" source="hI1MMncq5XGI64NFk41I-74" target="hI1MMncq5XGI64NFk41I-93" edge="1">
          <mxGeometry relative="1" as="geometry" />
        </mxCell>
        <mxCell id="W49r3LArJMThDxM0YYQx-31" style="edgeStyle=orthogonalEdgeStyle;rounded=0;orthogonalLoop=1;jettySize=auto;html=1;exitX=1;exitY=0.5;exitDx=0;exitDy=0;entryX=0;entryY=0.5;entryDx=0;entryDy=0;" edge="1" parent="1" source="hI1MMncq5XGI64NFk41I-74" target="W49r3LArJMThDxM0YYQx-2">
          <mxGeometry relative="1" as="geometry">
            <Array as="points">
              <mxPoint x="-1760" y="3250" />
              <mxPoint x="-1760" y="3382" />
            </Array>
          </mxGeometry>
        </mxCell>
        <mxCell id="hI1MMncq5XGI64NFk41I-74" value="Statement Constructor" style="rounded=1;whiteSpace=wrap;html=1;verticalAlign=top;fontSize=12;" parent="1" vertex="1">
          <mxGeometry x="-1945" y="3215" width="140" height="70" as="geometry" />
        </mxCell>
        <mxCell id="hI1MMncq5XGI64NFk41I-75" value="" style="aspect=fixed;html=1;points=[];align=center;image;fontSize=12;image=img/lib/azure2/compute/Kubernetes_Services.svg;" parent="1" vertex="1">
          <mxGeometry x="-1890" y="3243.87" width="30" height="26.47" as="geometry" />
        </mxCell>
        <mxCell id="hI1MMncq5XGI64NFk41I-77" style="edgeStyle=orthogonalEdgeStyle;rounded=0;orthogonalLoop=1;jettySize=auto;html=1;entryX=0.5;entryY=0;entryDx=0;entryDy=0;" parent="1" source="hI1MMncq5XGI64NFk41I-78" target="hI1MMncq5XGI64NFk41I-74" edge="1">
          <mxGeometry relative="1" as="geometry" />
        </mxCell>
        <mxCell id="hI1MMncq5XGI64NFk41I-78" value="Strategic Payment Service" style="rounded=1;whiteSpace=wrap;html=1;verticalAlign=top;fontSize=11;" parent="1" vertex="1">
          <mxGeometry x="-1945" y="2950" width="140" height="70" as="geometry" />
        </mxCell>
        <mxCell id="hI1MMncq5XGI64NFk41I-79" value="" style="aspect=fixed;html=1;points=[];align=center;image;fontSize=12;image=img/lib/azure2/compute/Kubernetes_Services.svg;" parent="1" vertex="1">
          <mxGeometry x="-1890" y="2978.87" width="30" height="26.47" as="geometry" />
        </mxCell>
        <mxCell id="hI1MMncq5XGI64NFk41I-80" style="edgeStyle=orthogonalEdgeStyle;rounded=0;orthogonalLoop=1;jettySize=auto;html=1;" parent="1" source="hI1MMncq5XGI64NFk41I-81" target="hI1MMncq5XGI64NFk41I-84" edge="1">
          <mxGeometry relative="1" as="geometry" />
        </mxCell>
        <mxCell id="hI1MMncq5XGI64NFk41I-81" value="Data Warehouse" style="rounded=1;whiteSpace=wrap;html=1;verticalAlign=top;fontSize=12;" parent="1" vertex="1">
          <mxGeometry x="-2390" y="3216" width="140" height="70" as="geometry" />
        </mxCell>
        <mxCell id="hI1MMncq5XGI64NFk41I-82" value="" style="shape=image;verticalLabelPosition=bottom;labelBackgroundColor=default;verticalAlign=top;aspect=fixed;imageAspect=0;image=https://zappysys.com/blog/wp-content/uploads/2018/05/informatica-powercenter-logo.png;" parent="1" vertex="1">
          <mxGeometry x="-2345" y="3235.1099999999997" width="50" height="50" as="geometry" />
        </mxCell>
        <mxCell id="hI1MMncq5XGI64NFk41I-83" style="edgeStyle=orthogonalEdgeStyle;rounded=0;orthogonalLoop=1;jettySize=auto;html=1;entryX=0;entryY=0.5;entryDx=0;entryDy=0;" parent="1" source="hI1MMncq5XGI64NFk41I-84" edge="1">
          <mxGeometry relative="1" as="geometry">
            <mxPoint x="-1944.7499999999995" y="3251.13" as="targetPoint" />
          </mxGeometry>
        </mxCell>
        <mxCell id="hI1MMncq5XGI64NFk41I-84" value="Statement DWH Publisher" style="rounded=1;whiteSpace=wrap;html=1;verticalAlign=top;fontSize=11;" parent="1" vertex="1">
          <mxGeometry x="-2172.25" y="3216" width="140" height="70" as="geometry" />
        </mxCell>
        <mxCell id="hI1MMncq5XGI64NFk41I-85" value="" style="aspect=fixed;html=1;points=[];align=center;image;fontSize=12;image=img/lib/azure2/compute/Kubernetes_Services.svg;" parent="1" vertex="1">
          <mxGeometry x="-2117.25" y="3244.87" width="30" height="26.47" as="geometry" />
        </mxCell>
        <mxCell id="hI1MMncq5XGI64NFk41I-189" style="edgeStyle=orthogonalEdgeStyle;rounded=0;orthogonalLoop=1;jettySize=auto;html=1;entryX=0.5;entryY=0;entryDx=0;entryDy=0;" parent="1" source="hI1MMncq5XGI64NFk41I-88" target="hI1MMncq5XGI64NFk41I-186" edge="1">
          <mxGeometry relative="1" as="geometry" />
        </mxCell>
        <mxCell id="hI1MMncq5XGI64NFk41I-88" value="Dynamics 365 (CRM)" style="rounded=1;whiteSpace=wrap;html=1;verticalAlign=top;fontSize=12;" parent="1" vertex="1">
          <mxGeometry x="-1477.75" y="2950" width="140" height="70" as="geometry" />
        </mxCell>
        <mxCell id="hI1MMncq5XGI64NFk41I-91" style="edgeStyle=orthogonalEdgeStyle;rounded=0;orthogonalLoop=1;jettySize=auto;html=1;" parent="1" source="hI1MMncq5XGI64NFk41I-93" target="hI1MMncq5XGI64NFk41I-95" edge="1">
          <mxGeometry relative="1" as="geometry" />
        </mxCell>
        <mxCell id="hI1MMncq5XGI64NFk41I-92" style="edgeStyle=orthogonalEdgeStyle;rounded=0;orthogonalLoop=1;jettySize=auto;html=1;exitX=0.5;exitY=0;exitDx=0;exitDy=0;entryX=0;entryY=0.5;entryDx=0;entryDy=0;" parent="1" source="hI1MMncq5XGI64NFk41I-93" target="hI1MMncq5XGI64NFk41I-88" edge="1">
          <mxGeometry relative="1" as="geometry" />
        </mxCell>
        <mxCell id="hI1MMncq5XGI64NFk41I-93" value="Statement Generator" style="rounded=1;whiteSpace=wrap;html=1;verticalAlign=top;fontSize=12;" parent="1" vertex="1">
          <mxGeometry x="-1715.25" y="3215" width="140" height="70" as="geometry" />
        </mxCell>
        <mxCell id="hI1MMncq5XGI64NFk41I-94" value="" style="aspect=fixed;html=1;points=[];align=center;image;fontSize=12;image=img/lib/azure2/compute/Kubernetes_Services.svg;" parent="1" vertex="1">
          <mxGeometry x="-1660.25" y="3243.87" width="30" height="26.47" as="geometry" />
        </mxCell>
        <mxCell id="dRDNByvPZef29nKmzsrK-7" style="edgeStyle=orthogonalEdgeStyle;rounded=0;orthogonalLoop=1;jettySize=auto;html=1;exitX=1;exitY=0.25;exitDx=0;exitDy=0;entryX=0;entryY=0.25;entryDx=0;entryDy=0;" parent="1" source="hI1MMncq5XGI64NFk41I-95" target="hI1MMncq5XGI64NFk41I-181" edge="1">
          <mxGeometry relative="1" as="geometry" />
        </mxCell>
        <mxCell id="hI1MMncq5XGI64NFk41I-95" value="Statement Publisher" style="rounded=1;whiteSpace=wrap;html=1;verticalAlign=top;fontSize=12;" parent="1" vertex="1">
          <mxGeometry x="-1478.25" y="3215.45" width="140" height="70" as="geometry" />
        </mxCell>
        <mxCell id="hI1MMncq5XGI64NFk41I-96" value="" style="aspect=fixed;html=1;points=[];align=center;image;fontSize=12;image=img/lib/azure2/compute/Kubernetes_Services.svg;" parent="1" vertex="1">
          <mxGeometry x="-1423.25" y="3244.3199999999997" width="30" height="26.47" as="geometry" />
        </mxCell>
        <mxCell id="hI1MMncq5XGI64NFk41I-97" value="Validate, transform and deliver payment requests to DAX&lt;br&gt;&lt;div style=&quot;text-align: center;&quot;&gt;&lt;span style=&quot;background-color: initial;&quot;&gt;(Azure)&lt;/span&gt;&lt;/div&gt;" style="text;html=1;strokeColor=none;fillColor=none;align=left;verticalAlign=top;whiteSpace=wrap;rounded=0;" parent="1" vertex="1">
          <mxGeometry x="-1790.25" y="2950" width="145" height="60" as="geometry" />
        </mxCell>
        <mxCell id="hI1MMncq5XGI64NFk41I-98" value="Provide regular updates of SFI 22 calculations and customer data.&lt;br&gt;&lt;div style=&quot;text-align: center;&quot;&gt;&lt;span style=&quot;background-color: initial;&quot;&gt;(Crown Hosting)&lt;/span&gt;&lt;/div&gt;" style="text;html=1;strokeColor=none;fillColor=none;align=left;verticalAlign=top;whiteSpace=wrap;rounded=0;" parent="1" vertex="1">
          <mxGeometry x="-2390" y="3288" width="145" height="70" as="geometry" />
        </mxCell>
        <mxCell id="hI1MMncq5XGI64NFk41I-99" value="Transform and publish updates from Data Warehouse." style="text;html=1;strokeColor=none;fillColor=none;align=left;verticalAlign=top;whiteSpace=wrap;rounded=0;" parent="1" vertex="1">
          <mxGeometry x="-2172.25" y="3288" width="145" height="70" as="geometry" />
        </mxCell>
        <mxCell id="hI1MMncq5XGI64NFk41I-100" value="Subscribe to updates from payment service including post payment adjustments.&lt;br&gt;&lt;br&gt;Subscribe to Data Warehouse updates.&lt;br&gt;&lt;br&gt;Build and validate statement datasets" style="text;html=1;strokeColor=none;fillColor=none;align=left;verticalAlign=top;whiteSpace=wrap;rounded=0;" parent="1" vertex="1">
          <mxGeometry x="-1944.75" y="3287" width="145" height="163" as="geometry" />
        </mxCell>
        <mxCell id="hI1MMncq5XGI64NFk41I-101" value="Publish statement dataset as a PDF document." style="text;html=1;strokeColor=none;fillColor=none;align=left;verticalAlign=top;whiteSpace=wrap;rounded=0;" parent="1" vertex="1">
          <mxGeometry x="-1710.75" y="3287" width="145" height="43" as="geometry" />
        </mxCell>
        <mxCell id="hI1MMncq5XGI64NFk41I-102" value="Send PDF statement as email document." style="text;html=1;strokeColor=none;fillColor=none;align=left;verticalAlign=top;whiteSpace=wrap;rounded=0;" parent="1" vertex="1">
          <mxGeometry x="-1477.75" y="3285.45" width="145" height="43" as="geometry" />
        </mxCell>
        <mxCell id="hI1MMncq5XGI64NFk41I-103" value="Search and view all generated statements&lt;br&gt;&lt;div style=&quot;text-align: center;&quot;&gt;&lt;span style=&quot;background-color: initial;&quot;&gt;(Azure)&lt;/span&gt;&lt;/div&gt;" style="text;html=1;strokeColor=none;fillColor=none;align=left;verticalAlign=top;whiteSpace=wrap;rounded=0;" parent="1" vertex="1">
          <mxGeometry x="-1319.38" y="2959" width="145" height="43" as="geometry" />
        </mxCell>
        <mxCell id="hI1MMncq5XGI64NFk41I-104" value="" style="shape=image;verticalLabelPosition=bottom;labelBackgroundColor=default;verticalAlign=top;aspect=fixed;imageAspect=0;image=data:image/png,UklGRlZ+AABXRUJQVlA4TEl+AAAv38F3ABFHjiRFjrKhBrkb///BbI2Xe0T/J4A/aFeMu4vnElCTygKoZ8HdKCf1wJgH1KHZXgxlZtDiwAbAAFPTySikIUCWMMYgpRVodiHclWWSTO43wt3tlRPuCrlLOebewr1ckEEbXgkBbZTevSThQO950Em2Bzo3O/90ArmNJEcSMWg0Bmq39rS+8t+es+LcWDG1J/6OI9lWlf7I938L9xgIgPwDYcnKXQuOJEmKZEUujph7DD1Tvcy8/Z8AvY4/X+o6o0PXJ30ij64QeuoBRkbHyTGP66oAoANk0uO7y+Muj6sSQA+AAMCiJuuX6zrMC/QkOKkHgLIvurJvItADOWBS8pICAGWJ2jCC03KihnK+03cAEOOGxhk9QMtrqKdAD2LwuyH3KwB6TkFMwAfpd8PHcZH7hbKr6ygAYOZpMd6tmvU/wwYAX5sSJcahbtBryO3f0641jYmgAIBe02vSptN0GhgYUCOdpKO00QgBAyGEFHTVFTk+QgUBCAGOSA0hKQDCgYGgBkgBwnUyEULoFQmw8/qePBaXhBBCmn1JkCQpSEZIV/EsnX0FSUmClKCblu+pu+/ee1SSAEmjq+7U7FA8/ffNZ1fdoTviit0pnnf8p2Zh2LZtJNvy/kv3uRS4ASJiAvT//vjJr5PwIHvbGj0kMR68SYL5eoKsYwWSBN2fksCAexESvgCcCug7QFjbDkhiraaAtukQbdXjgHpUqwfqE/WBoC/29gPbGu3q39S/47G2XbVtK2tfd3ePyGiUGopCATQjdXeO7RkciGdH15tSA4fMvqAnHeevwC0BreOsoCd/MvArOZZZT05E1guAVcAiHTgT509xd5drExkZ0cqR8GQLd5u4ZeRkJ0f2CWeK1oCUdCYro92UCtwKUICJJG4kSXKUqkFr+P8PsfA03Qzbtg0jud3+f3hTTABe+/9VS7ay967uqnap9qoubTl92uW43nuPG+4Oj8FLkHvmDpE7RO7urserT1VtCapa8LUivri7S6ozmMnCmVh4H2FHZDqRibumbhuPdCYnxCE8T7BxtzXI7wtgkV/NGTsl1cwdajD+uJPzFNcKn3h2U9xdV7KjO0Y/AhGpQ8gKOqEk27bqRjr3wWdJKYvNnMzcy24xY5PaFTWDGgONoYZRUVNgZjKD6P/3H1y6sW3LtpM5175PvaVApTAkwCM6MsAF6zfvnr1iArzW1vZst207Y5yiDJR/oraDrx/bE6gJ7DRkXnCTj76J/LSDQR6y4E5ErgN56Y1ATFDUmxXBnYjoNh95EuiJfPJ+giujL4E3C4Ug+GQ0qNxDEbVto6Qwxp/iPU8xkLZNd/+an5gAvdP+L5ZkOVWnmnluDzPz7oqZmZlN/Qn6h5iZmXWZYXCnaXimcaa5q7vOMarnwixUm6+YPfRYF36h+Ap+Yv1iXQUzHbEyFCn4OinuCFnMtHAEZSy1kWIeT8wMZSyJpRQzM/OFXkUwK8XMzMzwFVmKaEuxrpghnSNOMTNMyF0q8yc41p247lpicCtiLUyXbmTbrm1ljLnOe19r4REBUZCAioDo8T/WU3evScm2bbltc879ACjJTl2nlX7mPzgJ+O/GBHjN/t+1bfty9lrlfRXz3jtacbsQfA5F66kMvDkLzLn2ufegP/xEU+YLGun0+xQvbru8FujkSyasEJTAIFOG/uRiENoRTFDu0EblQvBSuUGGDB1cCdhN5RZoEdxUtrxtMSgJwSZHlcqWo41CrW3btTL3+f+DyhpLDSg8BdA6KreQM3fDkWxbtbLWef/jmccOkaXMf0JkeldMwAo49f+p/0/9f+r/U/+f+v/U/6+hveoFSpLY6hVGy5ZDH/NfHvUXqkE6lEM3ndOwQ6Yr8WNiqHHDheN9hJ+4t8+9u88ej4ZnJygC0lEwjE+Hv/N27NusuZFOPbVAzFQjzxe978nb7X9xP2iHedPt8pY0AAWmWjOqLav0/ptjnuTIwS5VLqDM1cRIFeahcG5XPe/0h86d7YzIAsFEKbIpqlq5O6VGGfhzT3r+uekCyyiLlJ2SmKgC7lfct27OXR3NbFAkmLwIUybW2Krh4nzmzDnhyvvG/unTLhPTrZkhiYGq8IFpb2fcB5o7x1fYo6AmADXvKDKSzar/e/Tj9+FOB4W9URZGxD6Phd6u24cOXl/Yo6AQNQlQtY7K/MQh2b1j+7kuZxlmIHWWItapwbvGfd/GOR72UhT4GtgTqHLtT7zz8NX7BXoUa2QGr1qUxDf3w+eOD5xbInsD+JS9V5eWg1Xh3Blr7z/X3enGG1l73cWjxjV3cUw5aknB47iqOceh7314Vtw4gxtsvZe1t5nfbRxzLnMPg3QxgE/3i0/3AKjK3DKcCZbd3/kbu/OmRz3F8G3il/sw7SpbFAA1gseNtWC19Bk64cI7O3ilWx9w3IssWSFmuY995kzKvvp0Dz7dF+DSv0uZFTH0mFPe22NfpKtonPKw1g4AMplPJ0wsoK7J/lYHa5X/diGmE7mRD94v9/YO3+jMxNjkXl96dGhBTfY4LGqCLpBAgfozu8s8NmYI/5790a8jnqP/MjO0HYpYpKuE/ehTwKeTiNpDkawxIAVuyFqggUq1u+2Hx8T3o5N/zvj47xPfUs1Keav4Y19ti/1oWxOQegABtDBpefy8EN/m4e3IV3rS+/n+Tt25TUuSWGU/2haAMLnoAtQIQCiiLai6js86gs/L8d+xH349/rX2rHVek9kFMYeXfYnj38t3g9Vft0IQYF0LQvvJnQ+0WS/oz3mh/3jK7x7+81j6bV0/zkjVvvxJ7d9zDhEK8u9SsKBF3TVsaNn9y224BF/Qvz3vD4bcrLCPFUh8sR9z/LvkKDehCHUGdaaAAQYIoXPY/b/bSO9v7LrGYdIF9dVvr4XCmMLv2797IF9BINQphTgMQwJiBIFXGPWUwqxWPWy4aznd5lrnrlmCOCLdT/m6ZbyEHA9B6shZAVIDYkEAAyT94lGyq3Rw1O1p15jHGvPh+UuCmKEUYH9Hvm4lR64WddZd2N/g0bAuRhCM8YIGV5lSli4rWNve1XDd/LHWXsspEick+2N0HsiXQN3UXRCPSbeWIGBBwJyYEY0SqDrHK/9m+YiVRYfNbCs/bA9XiYgPHHZvRpOvmxTiMQ9fd0EQCnPDsWD8sJQgwTQgSqAmKLA1a7lkZk33VocU/fPrSOs6Ii6A1t4QqCAI6ixBoO5yCoIx3ro1iIEoQRsE0K5mrM6cETNvtD1gY5kzHd3CmGBv4zF1/vpdgfWbHB9niRyiznL7GG8IQWiKpmCi1APaaIIG9wzVKczI2ZlyVsgG2EWNFaK41fk5Qqgbo91fIajz4ywEMIpcMKjFGYLG2JoQDQiIEvVb42POHcysuWeoPYlcH5wDYoIg5SzCeAVREIQ6o866HyoYEmIBGIChjUaUYDQCCKCRqdFzzx1c/T/0rK1zMlzCKbEdMOoTkeMPner8/FlPRF/lLgJBvu7i/EBUoGLvhiFlE40ACCAaI3UEaNuXHCmnyDlU9NRijwjWmA5QAtGdWI2+KeIIUjkL8Rh1lngMggKjFmd76VLXCRoh8VzTaIwW2g1RogShNe652KerzIPVLimcqyiwM4CN5LQgQULJEQhFnCWIr7tyFsTjBwIY44sGBAMQQNAQ6gIIoBGg7augKHlI+vjg3//f2f/07Lbx3DZ6A3HCNY94DCoQCHVWyFkev+FP6+tDDmO8IYABwsRpiyhRgqAEEDQIwHeVdGbzni+u+5zwaJhKZE2n0QU6iKjtDPlA6q+kPAaBOj8eg7qlzpKzfDfUc0A8ps4SwhF1horHQBR6vHb3NO982O1zVKe9erpplqtkkVp9/kSVHFHugkBQZ93VCzmEOj8Q5Ig6P6M9huSPnCUI5IgiHkMhRgfN1NjY6tzlPbavni1NlmD61SzWRmj80x8rKWcFOQKh3CVHPAb1HPdXPIY654j8z6cgRchrxGOU4LmOD2eK0QiAqGpg9DBF74rFHrl2r00cqh+f10VGZzGcPhBHRJ11V4/4fuqseAwCJYjHFALxWDlLzhKoGxUAYVLdqgZH9+0ybr/MQNLBymE3q+BMIhqLdD4IBMVdCHWjAjnCN11fdzk/iMfKyQdCnUTlCKROOSqnD64haDCCNteEqXHj2ISlHdc2d7Xshmo2+SwmI7CqiEC+ZSNfueb5eRj9/nfcvL/uEgh1qniMOkO5v+4Sj1EQxNyh7i8ihwCINhppWSBQZcatRePyDsPpDjoPsbOZfbOoS1blQ44octxFyBF11q3cX0HUqQJB3eqs3sWezHHXqe7yGEpw1/HNlm/aSJpaAGlZRAnoAkW7WrBi/bnFLb66z3pcnfVExOUVqJvKWXIIUdyKeAzFrRDkW5YcuSY5UqfUqURbkDqVQFBBY7QACIDUQ7sBbX74GTqkc1v2BU622Qa7QYRVSdQy+cMp8Zg68yWv5Tv5OlNnCvFYtxKIx6geeS09hM+pCMTPISepB81EAXTQQNsD+oCreX+4KK0gmwXnULeic6lRFb5y/8ur4qwcq+VInXUXOYIcMQfP/6IcIcfnrECgztTur0CY1+cshOfI3FKnIuAaCEjdWRBUAAJoAq1W2XHB7FySfb4R9X6O3EO5EVWSWrvuOgJB5bXiCEQ5P84iCMXzv/gQRJEjyBGkzjniMUjxHGkLklqjEcBZKCJVUZpBmzDdAAK40eqMTE9/lJNaXo67EnzCt0ZPvpH7d+UIghLEvASKyBHqlHL+HDyHoG5SeEDMcdeRHkKdqbOelucQSKARtMMyUbeLyHTKdAM4kPjpxrSf/oDdZ6+vtLZ1nZ30cO4iz0zyWyOmz7p99mS9UtxfOeshyBd3uQvqnld5DuIx6qS+0SIeP6ci5AjUXQLxqAVAwDUSD0x7gAAQ0EbTDq4aetHey6z5feb2X4dj+0PnsrO575KQivroQAlkdBwPFe4vIZT7K2cJ5Kh7DncRqFshPcQRUojHj7NAXPOaTBQgaRzQEIDp5rQ36IALRS4E0kvMXlC2P/YKDbfgDLi+EqSjSyJBCeIxqBwhiHKSrxDkK84iCFQg9Eidyl0IROHWIAACmoAG2h5AHwBNgMDEgDYVYnR+zvVzZM5zxxde8EJ4HSaiEQklyNELkaPiMYhC9PLdz1mEHgJ5OIQ4UuenR470IqjzQxQCCCAaamQDCAESDwQgqAlBAwSjy4EXeHzPdd9zvt/nGV9QXhg/LgX9Z5CUfM4iRHm8PX5C4kMgfP6SQqAXKe5yBKLOFOL3UPcRKQR5b3Wq0IvX4nP68FqiR44U5+e1EK1W2TJ2Pt1tdg6f27PTr66VygWSyEc++ZRAvJe7fDc5fVZZchPm4C7ycIQcoeIxR6icSiD4nAWBoIIeUfd7HynxGOr8NCxED65pksYbj9UpVNm4fG9o3gPSPvXoUc6TRDtVRBDl+GPRQwQ522eeKsHcdaq7INT9dRd6IeTrVqcUpM7U74FAfv86fV4ZPfTnT8a8EtVDPM49B70QdVZOoBFaHzk6z7yY9b17ILvXqFmrZzAiykEEKeIxHlNVOZWgbnVW/LuGmCM4S1BxVnw36i5nuctjlPu9iMfPOa/PWXwnr1/33H/EXQQyx1kQnMVltMqesSrduWva75tzVtCc32u57rtJKglSHoPKp4gSj7e667jLnu8NH+fntRDvXWeYQ5Djc/LxGIT6PX4v4rvhc6SHvJYcUoQeBD7ntBXgMgDR4QPK1hLsznvK/ZzIOnOv599znuyz4V1nBaH2q+4SuYkPqXJWL77hiuJW4rtRCHvqIShxFkFvv8fnrPurF+ZG3ksPMa+5lbv0EJhW73rtyoEACGja1qkrjx1b8bBXPfHq8zvnC+B1Qo37Yrhr3QVz1318TkUccKuiZhCPUUSPHDGvfIVeEMzhrhy99BWIIphXL+YQOQJ57zoresRjqLNCL4+S5mgBECA7OKZzw8K7HqcvfF8voOcxuu+lfChRJ6mzzgqZ+fBH+0SShZAjil6vlSOQclY8BirIWT16o+Qsoa9A+WZDs5jWOcet9Hpvwhy9v9Kjl7nVNY3GkeGsIKnv50i5v62xXZ9ffCleL8pzH0sl8l8LRJ0l5MAtcd6+G+pMQXoIym29g/efG+RLkFeGQN2FkNdG3XUW0cPcdVbOIh7rOdo6omub1xydGUkzcGSkuaCDDFDIGMXNvzJ/1wv76ivxPNfsS+HTQVBBD8mVI+X+VCNRboVA5jij6NHL/a3PxecsZ8mRD2edddc/Fvdr5Yg6UxDIe53lLkQPc72su5zVI/MSCkHjMki8ABoMwADaYfe66b911Ne8hPecE+iBJXiNyMSfIpQcD4FPdB0svgH3jRQEdRfn5whkjlOKHtFDyq08BqHH74V4TNG7PGZeUqciCIS636uVMYko0Ua7bNAb9Iw+OTLoDfbv3Iyc73GdOY1ZBxaxMyl/EYn819z1+ZxfgXzd85IxPzt9kmxyVNGLro0UBL2/Qkpb9BD40EP8HnqrQC+PqdPnLIT3jnLmgfSY18c51xFRICCgkVbm7KA3UAaKDHoG4MbZC0vmqTkx7ZHEcHAhOw9GIEf84eK7Qb7uEiU1g1SFQN6bOXKWmBdz9X6P0Iu8r7lVzkKc8/I5VTzGtL9uc4geesGzxvnpoY0gc4jXOucIgIAmpGKh3RsIOQLG+IGfbiaj8IIZA/lcTp7jAgs583nmwoijkvogkENUL4xslNudQN2Uu0gbRJ1SEDnm/ryGuyDm1bYS5OGY437vVA/E4zdh6RFHzP11K/GYeSGQWAQc1l3TYwhgDHr0a3oB0FTB7pBimLWa42S3u53Ns4Knk4wyVN2HePycpUcgqM+dqSBQvXp5DNStiO9G3QqB+Pq9y90jkC93IeTQnyvvXT3ugiBUI0PQI2hBCQjOgugsFzDAMqVPrjHUpA1ol+Fun5meTREn4R7ALPfXh0YYuT8JQukR/Lwq3D61QyeU+6v/L+W7UaeUHiGOqPuoXoJ5+Zzl/rorvht6nJXnf1GgF137KwTVVu/y4LE/5981JEss0LYITlsMMjU3kNz8VL/3jKEBbRo1mQYkZcqIS5/iaDr3DR4MeWyMiyz+4M/PTUF4EMXvv791f/hDoHJEPK5WBDGveYnJEq/KJf5Izg/EY5iDXoh5+UCcJXoIvu4P4jGUztAjmLYSesR3fxpnpY3oYV6Z+E9//4mnOePVnP2qpyYn5zolx2zdN3FLkQfB3IWcRVBnlNDW180cQTzm66bSrg+EOlMQPcxd6IVA3rlKoDNyzO+cKb18N8pdPUj/OqWQNtqix8dZeS2iB1OGtnqk3FNH1wXxzPt5rHuO8TjV66RZ+yCUuyDHre7jpgSCur/u/pUjCHUXxGPMa24lRy/CHHd5DHnv90IQ752v+73OCsRj3XMIvV7rtc1xm9cHee0eOVK45+iFeUXxHD3yGplnXelf0gN551C8jXazdDj11XPGeITXC/Zt+biPoYqv9AjmVqfPX/H4HL3U71/iMTlKPAYpZyhyBPFePYKQY67XVvEYyBxn5bVIj3nN/Y79Xshrzf1XXts0nqON5zB3IT3klTrXe722kh6h1RXVC+a5mIDiy38ztUROe3WfPscLnvdTXHNlX8IZzlqonFSga+lVkLMQ8yo5SyCI8hit/nTvdVboIeQrZ8kRBOouchaCub1jHUEI6qy26NXD3HMgr9XWvMyt0CM6deWYVo/ef/T/VHu6TEmNHn1g/55mlhxz7cPDeblewLwGhc8dGRT5HNStzgrzkunXmUI8pkcJhHnFtFHamps6xXsRj3lv00LI69eNylkIonrEY3qY15TR6yz0Iq9dzrnQPledFfTCsy5R6NVDVy4yrzm8Da8YiQH+77/lubBgpkdwrLiOU9ciIiIgfNzl/ECg7oLoIXrUXQjmFeQriNciSuAu8zLHc7QFgbrN0Yt4nFcUvZDXmvtIudW3togewlx/3XPMfWRe0+ohevToxVzOab2kztWF1UanB14LmxIrrYff/8ZmPrleenk1R8uZgUYCka/4/TfmNTfKXTluhVD31116mVfXrrN66dEW8t51qx6Euo/UmfeCHDGvn645ghxB3rv06hGP83r+cr9XD/H4Ocv9Wm0IcxdCj67ddU278lp66GVec7WRo6PnVbIv2qcHHkOa7o3HwQV+Onl2xr056WaVEnyi3+cUdyGv/Q1X6iznhx7Sv866i99/9xAUehHMq+7JVs3nwlzwHAh5W+6vQKgmw3OQ19JDjo9e9Dp69TDXOYdArx7qVm2d0+j13tM6VY8Q5lm7ejSLXr6XgOJ73noeBUhQY8LHtI9VkluIe7jIckoJdoAn2qnbH1b0ou4jZ0UPon+51VlCDj5nnRWIb7jmOtVd9AiC6gV5rRxz9ELQi3nNPdmlR+gR1YbQo9e8zF0EenVdc8+hrbZei/7Vy1nhfluTcateHufukeSFARhKYaGXWBwItcAFdF1YzTHZnibZKLKMphOO4AQuRz1HoG5K/mERirsIhOKuswjmLgg9gjrnOusuwrzmFdN+L+Ix3mEXcTyNP3TOa1pnEfOSOksbz/XaPUT16KVHL+Zl7nL+NPR6LfIORvSY2xy9STB6Hi21MECKrHYW1yDxY+Aink728npPEp6acw5rIdEJWomFCoQeSv99Vs4Sj4G6FTJdUX1FIRD4eAzTrrMIeqneqkePQCDzMlm9fPejh9s0eqE8h16Y2xy936uHzugRXfu9mvFkvSou1Qv0AYRcghVaCtbRcDroBq41xo5hjosvMr7QnIezlnAsNBOyX0I5P8681j8WonIqhByh9IJgbhVH9Ag9hCh6xGP10haEir6ikNfi5zjN0Qu9evSqvuaIs0gPQd0vq3/d5tD3qLboEZhymbvaSBt551gNileS0Etyod/zDUdDkmaCT6WZwP4dONR14vASzfkef30Z6wtOvP5lqCC+mxxEDskhr7+PnD4QiMoRyGsxr7nwZPRSnUsh5Aj8dH281ms1/+pgZgg5egRzROD3/3v/Fb3qVPnraci8qDRDaMvcxTkt6JVjjqehxxM9A0gUoA8NJ7rhaDjrQBpAMgbbzIJdL/biHHMab8dwLcaJltT5x1a+m7+edaXQf5MeL6sEood5zRVei6D/Pk1XCjk/R4keBJH3NWN5LeTI3Kizood477pVW0c067jNXD499Ej9FXlb2gie6uq/XwvS6zUynZ9Bjvv/fco7B6zUpCfZZCDpURP6RFlRzroG2qEe7Hd+mS2sH/giyLleJ/M6jEys/rlSNU8j5HCX+G7U+fEY//ibfN1RELquj9f+wPkhR9T9Hp2BQKpZHnvNTRGIrmvur/Sgl7yvufNav3/xZHgO84j/y1dbD/0VLPSIuc39HnfRQp2/7qnnFT9V+R5eIZlKLCAtaeBsQgNv9PC9/ljdrkfiizMvlLdzef/1EyktrgRfCfEYlMhxFz1CjugR/64/d3mM784/rUf0QOBzf4keCDFH2wUxr8xcskYALFMMAejjLERIGlcXgvZx+Tm01UftXubl52hGmPZkvcII9bvcY9oF6THvuiYCEPEIB0aTU8NLmPOF5fsxHhOof7EEVRV3pXkK8hVyxGP0r6chvhulF+T1uUTRS494nBm965UhHo6fV/UuenkMlUXGGz63opEMQ4FOSp6oBaGtHnSFXHP0Uue0p6tu+ZL3bci8ZoZex3NolsnSkDF3FzIaBkhDAuzBWfH5x5eZ93Li9M8ppyR8xfqZFfJBr9di7vo9Ks6K12aO30sFejGv1CnvhTBdZkaPXoQeUr0pbWRe+tdz9AgZapAhkWBFBK8+AtPkUjvvc67XNu15lV4wr/T4vGLXK0bXrsbSZNAr72vmqrYataccYvVhQEwAA/y/Oc5ejBvphOlXSYr7GagpVRDyqo0KYl7m6FxFzur1WuS955Cz5hXktUsvPeR4jh55r95fvfQ6IkfMcZfXytQAK8UUw+dYGQExr/jotS2YuwhtvXOW1VeJNnoh1Q+aun+dXWH06jER9oTVBljSOG8Apn4PXO9ar79lovT7VnRvkm39PG6Ix1B3oWvPS8yrpEfQtX1Fs6c617xyPI1ePXr5bt4Z/ukX8VqYq41e9AI85qKVptQ/qPFKQvTqUR9JGq89rR6CvOwe8rakR48cc08y3O8wwmRpMvTSxa428gqjy1IDgwhe8qQeCU++otlaJkhVVFb95KfT+JQkEOYuBOJ4DvEYpv2W0Qu9ECidgcxL3ovO0BldrrnrrBzPEY/eNFMyYhZLqYWmiB4iXjGvyVmrr8pfT+uvXpP91bJeq0ev6ZpiiDZ6ve9yzdVWG9OeXDODXj3m9s4uolePNB4EjJn40a/J2iUTIznCz/vj+iRxhiaF6CGYG+u/vZC/ApmDvBZ5LVH06HUWYY62q+050oNgIkMvTA34piBijLdEvWI+jT4meZKb0iM99OccE7mmpZdXxTqrh+hB5jWF0XUPU3x3V68e5pUJlhoR8GJpDImqt5ldrqebGM1L3tf9SZfbBx+ZO+8FgcrJB3rEHL3N0bsQxBw9BL2Y11zn3OZVcjyHmUvq6JXX6M/V4wNYadKUETAEr14Nr30BIn5IM57lcauWMc81DS1GXquNvIP1Chnmfu9JjtXjCbUnBKJXr14MwFzz5P0onWEsNhOiK0et6ornV55+5vppVaAtoc7q9Y8YAlE9oodeVK+z7uMDvRDVrB5tQeZoWyGo50DHMmKAJwbJch/BUgMSrYW6kDrXP/5u+2W10Rmmzcw1DdEjpmvud4y2evXX/atXc8RqQ6qxXtlvk6BWGMTSAJtOqsTG7Dk+b3kilPr4w5Vxi4HP8t3A3KrHcyAeU9ouyHtXr9eeFs167bxk9PKPDPFa8/o0+yuv1BU9fPRoCxmmYJIpxoG20tKWGB3bIHjUyth1WqpzzdGrB3kHwgh6mdZraUuPVjE6DDrKnh7zdRNUYdKrx1APMREazHZ1ncbM1YlPVe8qqSXs8vzcIZA63+v+CoJ55bX0+iuE6QrVGdzH3PFXxTlH9OjFvFKNhfTg09dcesAgEzXIyN7PnptHv3HJlA3HzTfb2bPHERWwDmKgeYWh9yRDl/tXvDJ60WPuyWrqZPWY22Q1rB7y3nPc79VEnSKox4BYSuMRM5PfYrbpPufCgyc+t4rHI3Hip4R5iTl6QeZV92srgmDalOc1LcjLVnQGgbrnaDF66SHH3B+Ypwww10ezmB0YveWFf+xZrzzG12LDRp4b+lxy2xc+sfaF+Xf9/w/2qJWRaTwHbfXQa7rm0sNzNHUXMfRqQ1vUc9Dj+bVNYpC2aP7UK6B9JEQvOdIHUzNLdP/p+5zumvAowc+fP3/Wz9zLiseo83Pk/pIj5oLeSlDueq2zeiEQ5a5zjqeB6q30Qq8e5jX3vD45IEyg8bE03aNL9CW/98W8+jhpDsZfffbqfq45nxc8c8kjo3butBUarwm55vrH0vC55vA09GqjS+Sa1hHzNMIkjI7Ry7ympUePp7L7V2OoJ+IRjL32BWx6LLyQzuE44XnWWetMRnbVP0H9/HxO5Tn06oHP8Rz80y/ise6S1xJHTLuc5vrHv/orHuf9S497DkIvR3rN0SP9Xwx+HgsLXQPbP7R5lV/Wi3/1vjDhJn/s1Xtf088LbvddHnr9ds7VOSGWsRfams4xR69er9WDGRk9cuSVuoS5vyX/xac4lurz71dyZJDpynubrhlgKJLN1AcNDKvMYjR9y/PoC+76jBOdpfis+Mnf4XOTD+SIuY+ZcSuIecl0zRGCeXWtvuquHvmrV15ktJEe0QMpgnnNG6Oeo0cyRWpgyy2v+DOv+M33pVnc3+u61/e+vF93fXnu9NAfNH94u6PVuerMNP6xPEcPMq9pPLF69Mh0+bxWL6/Pyfgm1pEeQSt7jr5+HiFCYNLw6o291ZX4aZtOznbOdU1wztIjGPl/kXTFdwN5j/SIx5iXGdZpjnjvaU8Gcddr95Bp6NWjR5jXXD30SI+8VpdN9egFfD0ZsgNLJq/q0/U4d288oLtgY58r+3nped78w1z0NP/x63/wd1w5nkYver2vTGT0gnkuSrSydSHWK+pcrRBkNDlCGgniiR6QGkSYMTObbsscfYH1ySc2dWdFIFAE0SOUtjzW85q7TnPEY3pMu3rEa+V4jrnf22RIq92DFMS80mNec+nhOXowGItf/A9989dfzp99dsgfwv3b6la4srym23XpOXani2ZGpGdBeEboGZW3ft/MTE2zzPucxchvwnpt1SwtR6j9FrkmtedlCgS1zbO2mRFjhDiqne5zciyKE5sikPc657gLgrnrLDkLQZjGcyAP7xwZbSE9iLq/ohlB5ZwMwdOYrLPcX0/Le+vZ98Hjv/sXnftnnG5/KIAxvJHZYe8Ob3TXvV5et7ueuWkLrRMgpz9cPaghqkY2qNTsV1hoW0OQ0XV/Caxerwy93uv8BjF6dLmVHIFYhZjU0eI2PRZOnTWhQeQbXSkCgTluc0Ebz8HPa+6veOxF3cxdr4WQI+X+6uVhCe9dvfTokbm9F/dX9OBZl8kvjK3xj/75pxzMH73lDxHwQbfaVXBnfBPn3CxLsp+47tGHyswGZjmZDiqhIzJ+W+3M6Kv3txJj7vc9+uO7MaILGU2QunS+RA6MgNWa0NLtZgHP2bnm44Qm6epdd9FDL3LMPbdqI0fg06N30ctrIXPcX716BHLEHL0Qr8VcbXRGjxzpXzd1f7XVLHPc1Vejr3bwy7/BH86OGZOtcnvmdZ5zddf82fNTNdImw4ye9vuVnzSMhd40BJaJPZHRS9d+74mg7jGvb8J+U7dFsygYhrTxZD0mmciU7KyS1+rRy9zvhUC8PpfU+fwz6dEsKPcccVYvPeSo3HWWeOzxOU3WK+u14HNOLMzN3JNh9HQWo/9h2euV8EbhNXWNhttlzy42FHxlqlVfUDOw5ffo+O76jdRZ+8Fq5VxmrnlNYcxzdZ2f4RXx3Qow7OFYXDfrzH3OmnMic6aKIMwrX7fifP7SC3lvJT0IpM7SuxCYq0fL0Nb7LvudI4sevZi2OXrpMfdbsJrVXztjAJ3fxa97Yfpquq/U1nKwp7l6DwMyGBjrtZtd/K6tVRAYYVr6mtStbkogjOYzmgYzzNRo4c9Zxpw250JdY/5l8zsPqrdCL0SOUHoE4Rv+ZOY6p9GrRy/MjfI0dNRGeV5F3ps5erUR73vMW7HrrOd4/StHH2n14D/yOwFcJq/d/fXH4ljw/UrNTE3V5K6r7Uaddas9xzljNHWPtkxWW0dHkdHWKxQ57o9hQAQTi7uTM8gxZo35369kBaHOkpeMYK6zaBk6w7zmVvRCkPdCW4R5xbwqR5r1qp33Vmd5GvK+R51znXP0mleru/FLDdZHfkfg5aXnOcucMutlZmpUvq9NGL+t33U9j106o0dn9JjE6KDcY2I1+bqVu+xpGNHMFANrtuhj01NyrjG/EdRztNWDHiHMEchrBHOr+23nS2Cuc66XDMHcVI+7aKtHeK8eUWcv/UtbbfQipqtm67/00Y/+O8NZ8iL0JGe27M+Ente+Wd5HWPwucbX1CqvLWXJNq8e8MrHnaAQyJgGjCkJdBX1yHr4lOXfnzFxrjOSppe6vnKUtZI4e93vpEXrENHp5nH86dZsDQfQQ02irLY8VxFm9ephiIM2al3nNPEhf8Hl4/93h15+Gp4eltta873OPsX6P31FnbfV7/I46K6d1/PQYGa2uyWpWF7nmPjKhbqwWa7QRLMbyaDgt5zrTuT7rOQJ5+VeOn6MtmsW0TcgQr0WKtvqadS6Yi15tiMdUj7Yw78Gnr8rLIu9brT5/9Rj48dh8679DcJiegke594CvetY3I+O3X7/jWDl+x9KKODLS+JyjU0dGr5fAB7ua9foQKoxmGrPYd8zXc1lrzNj18XtBepBqIxD0mLlMy+PPS95Ls3oIzHWqlkEvPVKvMMQ8P9d0fbT1YvVqxaLVnd4yeJDfKd7N4bAIZqd+MDCQW8Wl7cbn6iKwuq7oIoy2WiEIVo9WUQONAIaYH0meH2uN+c9Qx+8ldO3+L/4xr9UDOWKO+5hLj+fQMeZlrrzIQMzdhopmRHWORWdg7v51fl6Lh3muI+ZWvvtN+2rfil8y+u8WugQXg5qKVVbxmPF7ve4/co+Z0Q+jo668rcbq9d796/zpCOL4yKmwaEYkPjlmRtu8EFhj/vtL/lWCuXq05THEvOaIHuKx7pIekCPmNkfa0AuC+aCuMFn3V7xiMT2uNp5jXvxk01Y/Rn7HYA6WpZlVNn4LrN/j9+qhrYbPOaZgtNQ50l9hNUJ85az4vjGcguVgOycv8mSN+eckmJa7PPaCmaEXBDk+PXoEAuU5zrn00CPMPa9pvZauu65QetHqNsQ7Q9rjmteHB9A8+N3/9XuwnebeiMco7F6/r4nxLOK7UVyZ1ivkqJuK8+P7VT2TV9QWTSxuv3gxh3WGVH30OkteS49QzS49xGOqx/MqOaJH9Z4jWtnMccYcnUHo0f7u0VYbnbrm/bUai7yU2yo9o4f+6L97zKprk7IyU6f1O+OV4be6ESWwGmKYAqGQa67GeklFXldEM6gb2zq++JtrzL9oth699Og1r7z3e7XVQzBdoc6fo0feOcdcyCujl/dG6rX0GjqTMX/93fTqumaOXF2rR4faTBbNgnnu8QOw064yD7cotUUv4g0zqpoMTa4myOGWwmqj63QnEurMkVSo+mCZBGlKUmWN/XfY7v2VBYGUHr16iB7U/Q1DWz3iMdVGen/rN/MSc2jVgllz303WPMfcmOOueC293jmCILpy/vSp/hFYH66JI6GqkcoaMMt4eF1VV16BeMzoMTPa+sfnLPexQwL38q+yUmk/gISIN2/ZRGaUuuv3CAIV3AX5ukuvlyXmZe7qIW3oNS8xDXq1+KD3LFY71TaFoUNtuuw52uox7an2kfgx70rn0qeRyjK8RbBBKQ3C+o3x22pkNBnRY3JJWElGPtcqVRMiSMdYiaEjdtisMf/Pfxq/K4tQZ75Cj7wWeS8E8lry9c2O1ctjMLd3Rl4y5uaslV16hflZPWaMHunRI8xxzj2p3WPuqVHxzI/Bm4AFGQOkwkcTzHz8PX6v32r/VlcL1vFPdUqxX7GGutW4K6OzPnRIlAyd+SxGLNthbtvSNeY/RsPC3KVZegQ9PqeS10Jey9xFr2b57jcZ2jLP2uRXn9ckRgpl0SOvustdRq82ejG3Lvu1dI+OH/Ra5/prH2pM6mANGsQgi/FbUIL1j6XX6x4TguRW9z2WZOTqRw9kWbcuHw5/etisMb/j95Dq/V6I45sNmdccvfTQi09fTOu15L3nmTFHW0faCNV7piZ1cOxcHxa9evR4jnnNHMvcR3r0Yo70ajLvT/0gt7wJ97YkkSePlWTexADCB9fT91PuI+zX6tGScn+yyBp1j0/uY4ar48PL6Kz6sSNkjRlt03ZB/2k98nWXXujamLvQVo+YZ9kT8nWPuXv4ORpr5V5m+HSWVpt4ZzzHOcc9v27LHD2egyZj7v7PXj8Im5zjYY+pg28Q8xatsurM6P0K5KGC/BXWP4ISIn9uY9qjeQCjrLPYlMWPHTFrzO9dKncN4rUIc/VAMC29i16vpcfc7wy96BGYgbw7eu45cw4tx+pCrkqjbrXfuaYMPaLrnPL5z2D+KLe+irA9kRnzMUbIaKi/dovxe/1G3epPNgOrj7vclce6KmvHrr8P4YGKMvq2Dju3LG5n51xj/kXvr6gR5jW3eVXH6NVf29yKzohj7nnVbQ7Ro4mhomXoeq3sKaMyVsSaZ10+PUirqzPmVU+DdLn2Kyr/2fGj8AKSk3BPzCAbYDHG0oTAet3jd4rzM5pyY82rk6GuubDl7zZqZ4jODJSyWkBns9aYf9aRhbw3KrQYzNWjx3PwHJijxXhe1Ys6664ePZ5GqzImmnSrZTKeQy89ejGH52hUzmLuPZPx7B9mXvIy6Y4EqwwfvcfEEI+hBBmN1UVG45MdS/EBkyoLNshiKjKHzgv1GnOu3wIfPbTVi7xGKL0g9MhXergnFlJeIhiewyzrzzXGkzHGOec11zmt4zl6+HnN0esVLKpzzTEz+qnHD/MWX8Dk+DIWBTHzDYYRR0idJUcQBYGw8uGWuuURyRTxKQW0ZT4sUFljKovUaQ7pEeQIynN4fm38vL7SgzyHyTVzqc7/8CYe57rjeAbz+XPtVZ3xVFd85TQl/8Wn0XUOP8c5LfHEv/LjLmO9cNhFsBro03+4xuZW2K+gbnUfJP7K6r8yhPzX3H/f27wLVW95+sszsK+/uCzTco35Z23RVg85fl5zOU0LejGJ4TnoNWFXj3jv973mOaSaM8/VkpSf1VnRY17P4kp5ZTV11p6MtqjNvOcPtJj1OHXnpK6rysyGUmUwKN+N9Q8ZfZZwfojvVuRfrS+9/ErGSj2Gr1xmrpgNS3WusM5mnRV6yBy398L9ttrnHHW/g9Vj2nRtqom6nmOyVRPTa+VdG0bPV0a6GHmN9HiOeWVeczRCvnJOUfX8cR58VNY57ZgIaia5eRN2w/pNnZ/vsZraL8kQdWdNc1dGVQWBrE+HxP1L28OyOs1E5j9N9bsXPYLPOa9pK4JpT0MvQo9p9WisHs9hiiMWvepj5HyvDGHVPVSPXtr4eRZhtBDUNT/XJGv8OCzyOL+MGmxADH1MyLFbjrrVbqxm/UMEVq1njg+VFZaRBaxsIj6aXwLLzJ5eE5nfiRyBn67qXXpMuequc8Lqci55r9fqXfTwrM28JjJ4GlX7E6Mjd6euvIWhMyabKUaH9T4rTDGWH3ip6yy749IE8YaPZrD8VrciHlNn8a+OnJNaSuK9UnGnVTYZE82Qg/Pbo66jpZKuMR3+tK0l0DhCBxY948FVtznyWghTjoxer6yXxRz3HG3pMc8RptVDr16Hrlg9enTtHuaekNG133te34QhK8P8l/0DzYLbmUdLXVku0TxR7RQ7SLDWYmeHlNMwKyOFVaE2wM+IJ3jIHrOEOUKLzNaYSfV0DoDV133Bg/Se1mvpka4rdc6RV4xeJrmqR1ttvc419yuG51F7uv/Irs5VXedqI+qciJHXmtdkl07GrJn740deyHHqMqYCZh7w9z2ciSSx6kydJWTtz7530MYqoKkFM4mTris2xNTFZIcZYY7Sd3jLJOusDXKVmozt6z5Ib5sH7Pb8u4+MXu89L3nbk9W1zcscndHL6x695l+5UlrGPNdrof+GaHV/7Wn1aBbT/bVNMnq4923lh/rwx9M9KWYJiBmWvSUe7zvhTBJKGFVd5BAFrOpUE+vWrq/SHWbqdrp89ymz2q2Wbp0JmssuK1B4ZNwXj/0zI26jDc8hhxkj3ltgWmfltRpSV0X/tXrp2nRdM0NbE4JFqzNKjl09nkbL8+eYPnP8ULN0QSkNi2aG2GfnTpCVKMl/LSGSYE6KGdKU0UOM1pgkscBLmxnZOd11EKKtMTPcPd0Ooa07LHjA/nl1hj5X5jXlWGdF7/l1ZV55L+1Pmne5j2BB2uiSK9VHLOY1zzXH/V49WkaX/d6TMHo15ef+8F8bP9IScizsjhgeamuEDFbqrjNJLJdVaxfJQqMC1cNRMUTKLtYVPtRnGUtP3x5t2p2yLNwas0nfVcK22yEAbT7S68HisTVzzZE29Goj82IKoxdzT4Zejc9p5B27tOX9565elSPXJON+x3qTq1qGXj3m9fNYy4zM/pF++Tz5YSZIVYkktpNkuW8R1u6q3UHd1H8tFmZWos4qCM4qJ15oJ9mizlmsMSgVZY0dTq5nwAZL6xlunfXz7hm92e8FvXL055rXtKtZWsZkKy3jW+1n4aq72oge0oWlqfNzVe955Z3R5fxcphj3M8saa/xIs/EttmEGsRwzQ1Dku6vzd4JVgnqZhEorNeMgFiuoOsqHyn7QSPd5ZsT86kmvxURml+AS71W4DD3ou91XJwxox0Cv12ojPSp6aDHaKnqXJsZzTIjR1nvPXJNdegjm9fOakJGXGJOgjK6ZOX8kvtlvKWtjugEIdu5YSZ3rA+XMHdX7J8wEwSpnYkiJMOn9HvrYeAzr7YA6JrLHw/P3XjwioUPGwwsewKIhtZky0BlNbaYRzXptOeJMaSNdZ4mr0keGvPc8x6ctrxidOkuuansaXU/J3PuH8mZVNE0wsyJEuHbdg4LMob9gBQIFYmZSCl0j8W/nRDjR41bUFTo5kelBjlz++g2BdntBh9UbCxh4Re0e80o1S7PemyjagvYZQmf0163saemhjeeY53oHGXTGvKa4SpqRuyrJfP1QYHg6wUywJFaStf5cc99SSfJJRy2VaQaiAi5hUg7yoTzF05y0PStnS7rqwJUTGW6ePLdiOlg71EfgW/wYn8rojLbMXW3ktXRd/eufyp5Dj+fosl/7tT+0EV1X15/bl+eR8Rzmcdf5ObLad1fX9fOaVjPyik/+9j9C8mOZmUVkEhOsMT5uK8UddX7yVKldM8TgYBWKGesW3iqrusVYOHV7mucc0i2dQ40J7RbO5bOMMNPtmkw4xwDoC+jxrFxz6KWH/hw73nsyQlvzr6wePfKtra7RwtIIoy1znRPiyOhaPD0GvzqHfNcPJiLTldmTiyWfnZWM1E6eQ/TnyCevVc9UKsSopOujICDIVz51+elzjbjJDIeb2MyCtxB4tzK0uhgNDqDVeFCmGNFGrx6msF6BDF3xWLuNrjxgvWp35eoiWEdHCcToupFfPZJnhqV+sL3HvloscYVPbkqWT45K157qtf7XUFSRIrqZ5yonS6SoTltO9vrYvpe5STiobkLDEOdWhOM212Mx7uu+GPCoB0kjdY689zSiLZraXexppP8KFWS00bWns8bTei2t7KbuIscyz9WKsN+J8cz85MeSyuzJG4O+cEdWPjddw/rVh0+vt0qpTykERBCRSVEpvsccPZV1rOe8Un7RSTfTc+UkuLWmBHe63Kr+cXGdb/hj94c+zs3RgKHVR69Wu8c3YGnrvbvu8d5zv0WdMeZZuUyrR+drd93lKmmjM7quuSeEpYeJEHVaz2L/YFhjIpIYlliV0/TLzsqRImt+knqVfDWCM6HoWrdG2tuFb3KG5+Ec/zv7okNQpGWWTYKy3v7+MW5ubednP83fdfP1Jx9vq7N6eDDCYF5dm3nN8WTMc032vPhpuKf1j/Xar2A1YUz2NKLOVjkrHjOYZ93KnljNeqWHMv3gjY+hj0lE9m0b1Bp15NPjp6ivrvtTngW8SDlJVcwc/NVy3Pfz9N/eF2ATHLhJ5yZxrjvBAa6A1wxv5CHzX/UztlRCfwjqLzpkugMdaBFMhmvHop6elSq+VkiIXj3R1cm57CSyInXXfq15ZL1WU5ubGFjGvPd9V2xrZVHuz6pO/pX8WNEPWf0X/o3HdWcAHhCQ2g1wUFE24pHUSoRfL14lnRaqjrPHPtHZcDx8rmO9YBQKlbEvZf2Blfq68Y08Zydz2F1nx7rVDnSAQgJTYp7xijdnOUn0IKHS4GPWnyOSMcZyRWBpY551V5KQJMa+R2pnZdUe5E54Cd9YfrDj/8KgPe4rv6kPQD1giNdMADv0XFCqR2ophWFnRqoZJfm/8cx6rnyA3AdHLd1cFkt11uNd5hJ4A8w9cax0Ji0ZNpNByBMwcmd0hJ6XXDzRQ/SpaUKTNL96rUTt/Ez+RwmrR1vNOn5eEyus/B33J8tauW8q295ZWRHW+KF4b1qP/GP98QvxkDnMGXhAyhj6k3994GKmb1kz0aRMC8S1pU1H6Fn2+ZvlNFY61ERZICJ22WnlJKxHwAbzhpmLnGvMVtZu1RFQS/s9jMII5gwNiXr1RI8mDeKbFZb7dm7biMdA7er1WiusNZxZgxWj7EiyJ9Y/SSX9jf1YD9qd37Q9eh4gBpKBMyTTTITMxRIvmklJRTHz4Ln2MPo4mcfRZbaNKQG8C9w9DD8T6/RlcJfhCme1awNrN51NW9oRpVSvRd3rWIaEHt7Uowk0TKfGGPKHdrGTrIUMPfLe03rFkPVxEkuWwb1HcrMk67dau2r7wQf3Pf4ljwfMZD6FqimFTJBh9OJTqEoEkkPdH/Tr58gye7yexzoxeYtjJI16IEdXYigKcQcgilPWKXjL97b3ca8K13GsXdswKzwNw9USwHp4LI1JU9AkaB/18bnWSSI7A6GcnyOC0au2TcKyiLs2YaXu2vW5u+n8WL889ng02jm+1OhBwGVi4LLoHVYiCD71Bx88py7Co+F0c7LrMDOCj5nS4JX8gPqCJA4hV3Rfr4C1sCK9jM8r6cqTtcdZM5WivteHHl6tqEXxpl69MSbxr0RYlXN0BTlC6tqRZI0kK2Xf/xc7e0ncOXNH7SR+7PZ9qI1cB/cxlQ3ZtIKyOiCGlxTJ1LtMqkNFMQcWlkV0mZySHGm+WZoCMwQORBDagXSkMJDWLbjlemblfq3g6z7r6nW0zLEtbZV+z9Pz5iynwqsHQzvWTv6VlWR9kn1WXFOwTGfJxsogya0SkuDOviRaPvmx+EWP0e4Hv4yW4m2SjKLBO3PgEck4+JhZZkG7qCzS53t03WpSmCGHeGCmyjkgISCWkCiFtXxnuYx7I/eKfe62uaq27Twap6QmAZPcD4N5iHjJSrIMC0nG+XmFMOo2LeRPJyufUySsGCQnNkmcqR+rjdZF49E4FEvpGFH6k4esnMSDUPyL8vv9giWyUBY3Dy4FCChakR9QcjiDgkBysljbb2yv4N7Mczf2PZZrjgvSdxhNwU9mpkmoQD0Zhr/vfEKwkFZyCFYSn5zrlPzX/muW1M5aH5JEkop8/Nj9/us5OSd3BMhEQCSUfadWtrU7D37Toroo/S9ziy+bKUBzlANKAA1oC0kEItRQWdeAf3M9z2ruC5e7bzfTBfK+ImpeghiYeoys+yxJFmO1+NWIIc1a60aSsST5r927zuwkVvy5Sm75+LFb++UxzuPbRcMTRBDks/jn0sz5dvPwxbisXQz/9A81TsghQlA/k4PGQ9WBgMIOSSIF7oAb2ev7rOa5S/fd9mhlz7OtKBhEPGqsVbuSIMmq83MWMZ4eU7lKEknUmQoEIp/sT9Uq+bH4pcHReKzHJWSIij+EiO1PP8xS/Bxz8YlmIaWC5pZGKoa6DkClDNsc/epQke8AORS03gE76NbONew3T2+/ay0scGanLY1e8aaekmSQFbL3vL7pmojH2jc7lsD9yfclieS+npJvFD/649EufuntS2kDl4kcitlkm5Xsn9Uul2d91lk6G9WneUSbkvxQVCXXGVByrwSFrghEKcQtTgK8ZRsdpSs6b/JwF7LZWeLMEpBafbVjkbDyIRjN0mVPO4k6k3LfNzaygnxOckQl8oM1PRbt9+ORu5Ms0kE6TpsUS+gRuKTMglbSUpwqQWlcFg9Eoh4I3s8cwJNHMjCKug7yKw2aUgDw3ndSebN93iDepVnuM98ZkZxpxl7JWlkpZHyjpUcvzZi57JB73QmyIhZSYq+dxT1k5Ydqj1/e7218SY1HyxwUxR75p4eVHzCPablGnPRQBE1DBIUmJWrQMKNo1AMorYoiiRIwhfPMUBIA3vtzfN678rx+WCXLu+dLjE91kgFrrUDd6uriX70i+77rPk8SJJF89k5iqH9K/P7k6cf+0u7tAe/9ngdS7gmzylJ6dLoAWzhMnqZtlICiBFQzbcrcFAiMVwIEWAF+QLKoipCTEneTVfCmO69Tn2kxfOc4HAEBAzDFW2pqBUZTmHrNpPEBaUoDc/V4fuX6hv3O6F19JBYhemL6eEv8DxKjO+h2LfuNv3/E95/g7M/ry1+Sjz/T7R/n9FN2RWdplgY3D5HkM9loUUvZClP/I7SqIsRuRRhkkRqf/vbuN9Guhh0S4hOLAah51Jt6wQBMPZirdeAaD0QPIYocwWJKqHw1VAt7vEUinuh/0A/Kh5g5ff2Zuf+r+vkX5PVPXed/lP0Jn8sCAlEw4aBDRLDTIXOBCUCRoAoOIzUAG/D29r7MX7gxGdVZtEWqIYHolYTaGdAkqHlJG6w0AMNSE74bVlM5KUmF8XhMftC0qzqFZjbnEn47LH8uzd9/hpvPti9d5xGzQ2IRYAeNgMMQQeO279QrJuR410qRYkkQwCq4M72n92bXT94Nz/zEBoLlJFgafSyG1DUJluNzb6kRMyGIQI7Il7inAWIR9fFU5n/1c33l2Vxz/VjmH0fOf3mnfNEHA27AfUilxSFdgb4K97BUIwBTq0JABLGnEkFLE7BFLyv39VnjPNvVs9x3jsZ4A0sNASz3lprkdqgCMB4DqWvmEJOA+Nonj6eGqczO6wMvye+L/X1hftZf7cC6QU1lmfXfrs/sBLP+pQFH5VNUKALZzbg5KqU4rIijH46+SxXAJllBL/RrBa7IsSX+t/8/Ewy0EyRIk6CemDkjSI0YpKZdd511K2T0KmuoiS2bP17apTt9O+H8e1z/+p6zPG/51URICT8U8oQMFDpkVGcoyRbzxma5QJ65iEuKUJekqiVhQFvXMKu6r86+2LXyWtvhOz+zCUGM8cZ4E8AADNStEIQpCTZkk+TxzBhsgk16ta549fuZ+X+kFm0oVZ3L0DogRY5oxCSkItJXsUIw6QQDBuGgYhSK4UkD2KmXM+t8Lmvv6bo0vN25TgtNPWAKmVjuLfeASYC6i9VGk1G/NcEw/4GaxxvZBrqtbJB/cv3odly3tKkGTSdd3XOfqBXkg33waexmiOHwsiAQ9yEtrUIeFEINnUWPvqIIJQ7gRry6e02fVeVOHNeEDzO3baIHJmsfgwcdMF6C+YxX8DmPj3uokhxIlrWz4+OFnXCVeyuusuvNVpmF/y1q17kySpYV6oBASV6LHQjjIoQhD14oIXkLMcCBfLilHHYwGLv0AXtwo7Ou+0r2Rfpmkh2wkLakkRALLO/YYIBgYGmuSVBnFGWQzOS9H4sLsm52O+Ufb2jXw4phB/Lr5yA4HGW3U+PQAq4oGNFFlEMfxwKliBZrXErGC9QrN5alk7QqW6lNG20dVEikH/QGuq77gs6bjJcPX3ReaYWIZuZqCeoNwCDq6o9zzOubxgyxP2xL26PHt8vIzWwTvZpeR9cl//jn/PoGHDiHc8SvDLgGSDDppDu86mwBHyHEDBK6O6VhB6CGK4dEVSIBtsKW7vX0LswdxqtlTjsXMLC0Yq9VkD1Ptd8Z96R20REwdg/nMsfGm9M/u8Ku76yVTbhDaRlh78ZXhsZlPciKEsfxCb4l8LlgMrhhSWETlnMpgVAMD1yw2zv7PaWQVsuvOUpXdb9J+6Yufsmi9gtmAlhqgFHnasXnrD0dkTxJaMsRzLf/9Tefa+lqem37n35IG0fQcFC7GlxIM0fpyAuj9xYTr0ML+nLgNlwMohSCGstohBrs4qxIWoKLC5QTCzAm33advYh5o/SOyeLO4qWlNgSaYSDNO6NzrHz19U2j80WCFVsvX9jLPi8nN9NrZd3pxezP9DdvbRoYMl3gMV0AJ5Bq5jLK79ExN17+wEUYMWAYN2nBMXen30z6Ij+MSQFNoO4BQii1AGO6f225m/Pq7PX0dp132JhmRJ+bS48u64/8E361Uxo5dMrpC57XErx5XHTmSlx9pvjCTQMEYa9BAHFDy1eWEn4ArvwB8zZUx0SL4J4cK84BGXUn4xZDIHfDFtEHAvcjbiLRtvV+ndfovmf8jkuW7/w0efSxjz901v2rDT3r/KQmY+noxYtbXigHN8OrywW3/dHfuw51aGrcY8TVrnYANbiUmDlwlC30TeZBpGKLcB3jht6WFjn2EvRl8TniVeFefHNWpF0QIchEogHe+52YN1Ue124RhtNW/UCe2LG4uoyFIU1hDh1ZNnHvsjzIf+ZHuC98kxH99ZEHfEoia6sII7hK2vLD4hbWJyJtGA4LipeSw1KvFbK5X58jFlEMQwMpBko3wA1we+YO3dfItrgbW85wmPrlpXqeyyhj0RTF25ml1Dxo/8U7u7K9n6y0c+osbAn3t78CGJgd+NyniOHsGP/rA00igrZqMK4s/WMoXrrl25fmja09yBzr4FlPEZkoLDomHfjCa+g9+1zQZ4Nee+WXzGYaxToWITXGZPfl8h7L8za34UH5LUZhM1xA1+CX+o8jxYKkRhnHaWhg9AULRBVZ6k9gsCKF1BMwCxZ7DummHQIZ1aFjBwJTVHrETHGZMkI18QDPuZq5W+/L2J9mc2zb/9bCCorkvf/kY5ezzseZ/sSD8F/solvwvdy73RDmbX59ZHztsNQE4x76pygW9zVsj5qrOCsS0ZdPY1hiKy9Oog1P+uIevAhpQze29lj5Dl0LKqVyFFEs/QDr5R6913avtNeNm4fnHJVW+ugjtsuXE5Yzr9fj9Fce+D92G6zFt7sCvsU3NPW6F4aQRGteBsLrqsXywpUaW0JEvwSRPkVKt9H3ANaVRCsmLOmZ3KsPfI9DAXbmRRWMRSkIuJJe697ajjK7aSvOJcuTw10nEB7ou2QLfKkry0V2Zx3BZzb2WkaCeGV8T+jpoSdaGddJZVUWP4RLXva4BbxEJ5sAccb6Hyl4l+H2hK7E4AxRpCzRhDNI4+99s91Y1sIaWI9feDY0hWbR1YWClYqPZSwXUQ9AbbS+h5RzI7bRA2IGCC7CyAVh3Cx+HwG9jwQTbkM7OOxogcrYn+1EIr/RblrXwXVyuYxVfTigvinUo3hQrz5PeDWQdNKDQwkJNoX4HYIAkah0zRfB6Xz0xeeoBG+RxY6XnpF0hZBYNISUwq6g68ofWd9sAnuwNh2rBCktNfXqSQGiB60kLrRKS4xSiig4dNctoRGN8BYGSi7C4lpAhhwWFItwx6F4PToKBUTquhbuV1cfr9R/7EdK9OxdPSh4IiXq1aMFnYX4qiRTVZNsq+iAXHL0sQMFAkPQv1QdCBtQaotRUVUID3LFF9WktctcWC8564LmEtdarR4M6tXvZe95Qi4+Fw+5dAKEHzkc5qItsXEFIQMcQg9eImzKEjuC6NpaACUczgNUIAgNEvYvWV3uulyyWdG1rvkQM0+DpRipkdpe8iS11Nh7akAVgDalATorVdHlqvvA6xsBfRoRK1BHMigIC4cFISx6DN0jIJkjhhdkqeqPv3n2m+x9r/a6ru1oT6NALeSFpezdUqhdU2CkTcH4gWAzNRgaSGaZsyE5inEDRR8gEbzYyfVCwWihQuG2z61RW+qDGpIXKGSlqN14R/br6L5D92q4KvcN3g9WbjIIQW7iQV4cDc/a9sW4GIwANtShtcRyBJohjJiQLIdAeK50rd0eIAigItLzNfC6+7zhzqV0K9mjLd3ivdU7AmFcatx0Si0QJAgEyTv2JsqggRjoIlOaiCD2FyyLA8FZ9BUMkBpIEC9INyN09r8Em9vmKi0yHcwVkkjN1/S6lI83wq9vlv7IZqR+Dw035t7ibkiFAMHVrnaWWgrUDrCU2lE7C652LxgaMHhVqpkwLnTBFu2e7nWRfKIyHPa1rIR/LNSoO0u1AbpXimQXC+TIciMll4d+yUXbuzOXwduZC39qPdpvplK6JMTJH87Jb3t+D5BuD7lvrcJan5nuIbKOvO0OFK/vToTNZmvD4YEJfCjcdiWjZLRbPuy1y5++N3Pb3PrESt9N5/wiNTDn+IpfMX7Fr/i1EydOzn8XZD0e+de5/6bJHFBxtPveSo4c/jSyxehXGMWJIoFXvNRFRA4vi0sk4k+4s2xpH5e+tZX0iWejRk+eR31D0RM1BmIAFy+HxXBfYiIGBkE8HnHkCJCu5yMVWcm14QaZcCSqdcuATxWN/8LiUwZgzTAgeHCFlRTEOYaERRL639vb1Z2L6r3g17/DL8d4rTsP6hucJ+Krkx+bFD96+vctc7QW94tHRxSKR8xNgCEBETqwTWKUDLjAGXjzUX0RAa7ks0M2MVuW+8HFdC39q7PINCmWYqAhHgNh3L7yo48yXz8C9Dg5/71wEq7+yFnSpSYIhD0CFANUsEK2CIqhejKzZRA1lj1iHAxK2tkDH/pHX0Xvay/HD/TMDycvjCDs9WrsB1L3CYO+DILRWRpJuMYrSlhag0M4yHF7Sehl7w+NBwUg5qFwxAFC7YBwWByjxMgIoCsQ7FgCzlSRUs6NcF3nGvopVtov+J1/vQ03neAA8gSw37nbkQeCPDjSQ/F6IAdbk9ePpAg92vDY1/2txjjQ0Ru65anrRhchHMbrhsO6scjQgIJQ1IjrTTNkh+psJNjMsBRXqhnF97K28/su0w3wxF9OgSC1oyNap4jXurdV30AAOXKEAEd4GQh9BAiBwMXweA7X9VoBuJSDn/r5L/auoZB4S2FcHZRJgEwtYNSxT8L4GEwBQYAKYUOFJFt+k0t4NpRVsg53yUxLwCv4PFEgCD44C/d/Q/hQ15HbEDt9BH1tB8Kw2DdI9rGPZo1x9DLSe/8w8NEdLd2IYFSMiAs4KMgIG2UIK7OO9WRYA9sK1AMk7ZRiboAr2ku7N8oa3V3jsw/TICmAR8GjPlI2jnnmnoMbjRwISEiAJIGCkCP8yDHG8P1N4Dh7v3+x9EUTVd9H8HpCDvINFsFZQDc2ZFLfCDG1QIA7BxY4E+l1Jb2ovardqBttbGkLC7SWEpQhCQUxFICaH67+Z0YkeucADipQvFoHUEVBQkHVC6N9/2oO0pSbrdu/3u+/aacIUGjFqARhdsJQrR6gBJnCyAw4RFhIA65UeWK5Fi5w1nTWymYcqw9/MCge8o5NLRevHppCPeP1yMcX7f0AYr6BAPYrGoW2dmlHo7TQljiII9d1AHUdD53iMGsZFOqI2GKzbyOwyQQ5gwxnoLB1xCII90VGxHK2i5Tyc+7L3L1zPW6Tn6MPhlyCFUSfsvemAGikHCc/eLAlXd/4rYeggMEC2BTFgu3fVVBS75Iev78+0GLUWaAbKl69lJ4+cKZChcV2q2zYyFScOrLPQ5Rkcml7D/tRb2VINAIEZ6Q0FFhqqaWW1g4sNVKjHtTRHhd8g/r2tSrAUFBAvfgtz38X4EALQHk8zosKOGhk97B61uaoLG3upQwDXTcm61ntFokeUZbg7IxUetsbdN+n/PRHf2diQIAgPIB5JzjGpwbwcHv44xtC8zwAvwJoaJYGaECBBhq4cATXwwFq8AURnUOHhyiowVLXuCCDa0JB/iN85n5jk509MAQ1MiV8MKCFkkgb7+K86sMn/VYPdpAntaQAtcPS2kHtaoelUDv2auU64Zw6uTg5eX1yARgmA4Z4OflqyOE+OAn0kvutxO+ZdFa/hHb6LwQpRxYKveQzKkBds4cCueTHXQYkv0wh/52/Ievv5J+Mf2aBNfGbFvT0YB2Er5vXE0nwlBICsFfjqwYwxn7xo4vXDQKsq6d/kdWl/BeIdiaEPgMHG+VYiB4GlEZCNmw4gN5kUDU+Lf4A5D/9N6e/p/1T7zDFvN6SQJJwkMSvzQumMEeglRKiGxkzAAvGjymgQAODxmsagDU0LWyLB+b+gMfFSDLTF6HCS4f1XwCukGDW0L+xKSigC8TPevANoeTxcf6W9J/6FeBNt2dYPFmHloAMHSzMy1501o2DxYcHYJJyFWZMjCcaYqBpAUwBTDE0eH3yUg11bT16pFSxjuAo1NQ2OA6Mgk0xYpFA9Xt27hL6sFB1QSN1Ps8d3X83V4DwaqhALkaCA4QjBxWAOCcjFET0ClmYeNXYAMbgF68awPy20hm6lCMd9Y52N6sPBQg1XhyhG8JwQKHvGCLg8QC6IvQHHhfS2/7PnzGf2tcr4dUN1MFXxUAAwdhLX6ShMOPmZsxXDWjyo80RwBovjA3QeNxF8fte6hCgAoGCBTE3fSYpFhFeyrqnBlQGqJN+20DHf9BxPdwHNuu/FMY+axdgeUB9DEAMQOyNADEoMUxIXEhVSJzlvgSjh2ExYOrFAATHvr2YAEPjHtCrkX6G0LWlwPGDYeuAgpAduDR/ujZhOUJj3Gq406FD5/g5dKQ/6HiXK2tvGI/qvDRYMkICBHRtITBGSGxkEhJZoK7iCAkvjzoIHOH1pGzAL+gVCC9lid93/es5gYXGjXVblFlah5cYSSeOuG4QiQ8Viy5emhM4SNrYAVfJjtIA1wUG89JTR/iqE8SLWQYNU0qlBRkIM4MK9PUi0Uj60oiORV8Y7us+QteKlnaKjsX5RfQr/dBbRKBKyrE7BIar/0u3pAQLjhosZq95egUjRWe3iI4jbayXPyzd/ST82LfiRmD8QA0NBEdgSgiOsLoUtU8mhde66AjHzrF9zQ4xkKyQADkCJEkFssPs6fLV6Tzo6plhaaEhAnagDuiBPF/JByGY4Bn4EB3SkfiDzm1lY9PCQNVzPfcroRQqffdwlNGxk74wcCShHI5jn6gChUIJKQIxKSiKQEglkBAo6JWC9OTgaM2KUIqfEQFLWzmWGIENHCu1EMUMIAoQOb/o23D6QdMxUdLGdvqunqbrg0rAgNkBkhAgfGYOdmBeRwIH4C10sSItiiGGhjusF5RLAyIYhBACGlqUGBRA9aQ9v//r/VKhx0dxAHlLBtz4ZA5YFKywMAl5wu0L/qWwExMLnT3yPkpqR9oYa0dryErA4rn8XH7GffdR2lpadIRCj7U6W7tDVAUeJ1UsaDkuYfNy3w4CsFmMuu3qsLX2DmPx6hZs262RBw+pHod2iWxV/8cka6Fgasg9b5o39yL3BZrIXXd0HAiUE4q0GUo3lVSggLwFChAUJQSUeFW7APYeMYYFGRiFBTZAAAoogAAEKlSvwB4FBODxeNwkWdL9+I22bj7gE6GiscasYlHh1T05RpgsMvhe4xr5LPkmCA+OzkNpw39leFPxylaxNbQ3gClerRcFULukWlgWSQ3jTDB4WVT4ahWkeFkUxesaUEDBUaCHNKSHlgjU7gtUHAOYJPA5WiLg6JvCjmLoVkf0ny2hTyZpQznYAW0AUwhRhbQ1NDTEKA0xCg2oh3hVYqjCEGhhl0YJphhAUQLYGiVgi6GtPQC2xpck0av/XIeVfkeryEaQnVm3glvBsaAWZMcLWOx7wMuPtjRTSGn9N9aRNnA4DIZ9TV4aOD7B5kd2XhZg2FKDtmDSAoJ58tXJjzWTV81XDQUgONuDT2PPz+rJw0hDGxbiG+O4DaZWJccHuJNrkULdrEqFp0h/wDgUkzYLMmwx5KYhxn2hhAmCoaGRAFsMBLqGzmOdzH/94nUbjDHGr9QrgL9WvDRgGyzpZ10B9RIYThAFSS0sTELf9M3S8gedZeaUD0I5QnJuviNxKqxCLxtsQ6qXe2wMPZj7SB3Qw0v3QIl+0toLn0MMAQxAAzQFE+wXmhqIgRgaaDSJo7M5p9MjY0QEhByB4Li9TTrrc/22cjOgEpsCNoBgKXuhZlLi8C7BVuvbiB4SJwCdENgJprIF9lwZ4hxCIAEnP37zcvBVG5gYPGGCYWrATf1Lw49/va+ONNSF6xhHBKwQspj3DYTlkQHH7W05KAQH+UVAXvDEYUYkkADk1jN8X/d9X2LArevWWVrq6YzC7rfhpmfjEuDmhrfBrwDmtzSvmh8rTi7d9VDvkjAE7kJFkkOoPHODODCJk+Jf4uPYYQHaUIaL4ihx5IsKKj+Je1nrLkEJblQKCFKuFXKLv6nQ/Gn0c6jbcI7GxUDAAF/D2NcATUADEEyDNQBjAV7Z0u83ktTMpQgc9hRRDJtD2s5QmZiOanPDPY5AWmzRaCqJAw9w1u+HKgevFhRQh6DEKMSPLc6jg6SHBD0Y86qZAObrE4zNS/PSYCSd0gnj508LgaoFoLDNKG0TU4KdbDgcyH5jsXAzbApHGNS9KnjimM61AV2+QHqxkXkpwZioBFt4o1Hi1XnSSeOoAOY+wqumaxm/1mN+WwP4gEfvul8x6gaYQGJ2oVJGQBATAIMBdqfStxI6k/j1XYOSOHIFNADsemFADL5qrCF0uCS7KA04gfOy81g6lpKEgRjaay00AY1oaQimBhpoIKalh/r11AehP4SkUETgoTguENSdhalmIMMJdSxZ+8gmoAhKCRCJU0i9eNUG7uGlDR7i9Z6ElzZQ9G/VoOk0ptIz3cPXewHPQIix++4FTAyYfhAaPISkLpkc4Q0sGOoDYthQOKAYxK0s2Ec5JrkYKC+hxIFMmZoagHG2bTG54B4LemAjgIGmZn/4vDUdug5/y4NGtEK5BzoklIsCCJBQpJc7cU8Bpv8kuh9s+gMTdIU8iFAQ4i2yu6qzWcVIWDOl2t9gKZzvtIAZyVMVsM0LdxQMYKKy7yOOqi9zhKMOEp1wZ/XfKC3WQIydTyQaWhpJqppI3xUtd8HWrEoqEYvkW7hS+rK63buQVAzcwYXDvG2Uovd/iZ0CU8yFeBmC4Z433KF2Vs2R0oYRMpi+ra0E0qunp1eeCemBAAGcEOY5CeZf6uJEYpMOZO/apGdeQFJsCGRD0qtD2EE9XY/e9Wns62eHo6RNKEKBLREalo8jI8TmxlzdUpjCh1BkArhKRUepkjazxH33Tyyh3ssaWloBsZL7QDtJiNjlQuwufgYe+g0aB2AooCr4QYAqCqpXvVYJ5vUqjrpAHX4e4uyEbctqMOEF2cApqVb27dhPbbbPS0Akkw14BE4cBWdY4rAgeFlEFBTUnZcFBenlTkLRcrChHhvq203h0ODVaPAyaGhAlYYYBDR4qa3xQqPgm1SSthAqPxzbZufyTukIhX0g/Y92y+DjES/WrkkxvAo05BF+4aZG6qySttilwdYWjOLlQOMDWGgDW1tbVFHiFN8K6RKCb1U1AIYANq+bzcvNpgSMLQZjlx6yD05+lri7S3n0RQqTLa4CbjUKhQJnts+MjgJLR+ihFWF4OZZKTh4mAW4IIQBXlaZKpYFAoAEg9PHN4LNTx8M2Lwswm3LxVfuVr9oABgyUMaBTXV399+uUNU1CHDWczDyUUXjVgTZTZUbQrowdf2aBKwytCDDVxJHNZPZll8G8arALsHndvDQU5u16P6CfHTe344UAa7xmDDbYBQUCpm0KwBifOt2IPs+dHfOEloGqo5MjKMikAyxfIRtujM6rjoBMIBGZKXGwqUzQ8DlBQwPQRLz0FAwNjR6YzzC1/VPr8+Snt3edoyEYDATzwlO8Oj8M85xiCCbAtJilIdj/UrmpkNXB+gywEPRRmnEY9UO6KLJv/kyWoLg5o+QAcUxN7kA1PHVkDGMbbF8GMEcM2GAwDrdBFRjwMyfwk0C4ARjwsBsYtqF41bz0i1cnXti4I8ZNrHOFTfOQ045/6XZkOcG+HR6ZH1ysmESEG0UE65ngYVawInJmKsReaqlDLQMYcMM9wKhr3BgIGPb1dpEtbI4M8fy0+mHQVHu+AW4ID75qo6mBBl8Xgx+pgSYcv+8JT5hFZ0J9ripLzjF+P8kbeSoWNwYTF+AOuarVLrkFUmuhLs/iLHFYU5C+ryl6KBvSP1RBkuehm1Zl9x5e3mQ+db098/sjNzVxwgQ80YuX5sdP5gv5lQnT6Id2N9YYGODzTuxoY3QjlNBiGZSPQ0AImxtsrVFQiJvXPWouKW3UJWuI3dy143qHqiptm0NQCCEoDsRAbHQ7tHhD4IYwBmzwb2G+avOKAYz90rht6m2HZkmj44DZCJz/EVEMu4vUJFSNArFlRDlikbMsIcgkztZGARQGdgmqVQHFb2leLeoARYdA45ztHBq8amOLAZo22BoGNA22jRgG7jDoeqAb0M2wmoLMgqlVoMUyXIs6KBZPQLPwHXwRgkGYjN1V4gqmjswyZI8SW5RKAAaM2Vxm6MVLY7Ym0tt7TnmenLycFzCsnr4nTPPVKYBhAX2Dp0Djg57ll1fiEEOwyxHC0nHTliVQwWCZjyVxwxmovMB0hLQs4BUNInFYLIYBF0CZl31jNAoELmxjDbBBauZfH9g63YAeemGmqwoK+JrpMWBDqnjZ5+OVcNsTUJlcYmBQuF+bz9G3cY2t4bbZsDWBkZglUKGZjCyDoWrmNUKJI6tlpgCDe2Berk2AeeENMNXwPAo3gNNtdfk8Gw0gJLgH6EngvrAN3FcSenrZ91E9QOhvtruuwmzMDDqYmRLL59RuUkapUClDxeeKYxXZbGb7PocZsoVYatiB1GlW9wZs0K6y3fxY0TLg69Bwj0ZPaZex3VfjCSdvPN9fTNFX1X1r3xiaG9LTySJ9u5K6zbWXdtlU2R3Cv906+3yH1CdN0Pl/6WZXlyRikDQK0jcURx9x2XeMxi261VyjGsP2h7xqyomDDeqhE/e63+7BnapKeuEjCQlUSDjS0yv31U7MdV3vfDU9O8bQeVkkITuk73t6ejkVOoH5/F3O+yWXDZej2ezHMflM9jexUyWrBnzruxefxmKc2ivpe4k9sVY4ilxXFNs9VtJGrsZHoHbd9ir2fYmt6c3uZPfd68hwh+ywd2DJPUf6v5u397dwVEhwp3oVaCQUpKiqJAUVKDtVUAe9Sun8B4PeO8y7q0S9L4sj6sCCYktJjLY0/0f2PXX+YHrdbK1MLFkwh3fwtGHUUtoEd4UKaNS3EFRilyjVEQS6IYDzLTkCz0PP1RckvrNLQ4zavLpLsNt9+85CW+yf2Rbs3Tf/3K5rumw7ebNOJ4vCBatMimLHXMpc5BorbCjXqgcYN8xoBrsdIm1WBWyKXQXsj9qB2h3KVBWbpLKLUFWw9czoYdyspR5uvFpU8XqxoXi9AFxQvL7OXyl+H/TezebLOTO26ikyLZwVfHBxbKDOmiDnQwjuoIlDn0itAXQLobQBCASqQqbulDWoAjEb2tX3W31DxajC1Bv3SR/Pkw4HQBWAC9eLlwVQULysAiioqnFdePwQMGPzuJytxo9NHXymM8AZ7GaHpapnVRAEnBqVUpwiFV9RBTm1JI5tG+Zlga1tF2Be2rxevJTcJMjhEwtLIwdoaGiAMUbjFRADDY0XdEQR3H775/733/tHDFD7FHWE7GIYmCrGB4gIVDjxKDAD8HlsLyAQV0LMqICsJw4pDPv3NrYxTLE1tT/2BQKmhQHcAGbnBEmAOsC0DVMYNj968NKmy5XTEEizdJdyF/pNbfYUJ8Ow5GCg+Fxhi09mfnAULPABYRPHASp8gbkCqaEzhdjujNRZsTZM0QswcHEddYlrwED36LgxrokYSB7/gd9kPqVzSOZlLAyYF9F8xWCDDdRsE8DlhP3tX9d9DTTMh38fc1FHTXnBUb0smGJD+m65cmXkCrmo5o1H9dlKhmvmLKgmDmtWbS5DXcs2GrI+x1tpNBusummGThDQcx2fhv9kbsdFA9x0whRD00YwmZpwTdC0mJIqZro5utPCO8GmSbKNNEsF+B2/myprfIgbUTmFNClurojFhale7kWCoAACJY5c1TAGihiexcsemxfcF72gggHKLfccuXgKccKbwQZjYwMGGwM2GKu1muVMvbz7rzcreo7CGNfBG84wKTxUrDpN6mC56jO9A7gdjkI93992WNaKssJQFaEoiQOJqxf0ZJStsO9F7Xzfl6FnE6AeyzrK9/TwU18a50+WaW5Yk1dtY2NefYXfUn9yF1MjbPcyeGnV+WG2XcAWdXw2IlHAzY2KyfJmu2VrcvGy01ksNHLvicPIS1VBqCDXy9i99EMo95QQO5B7EVOU9ZbO+9vbyTl0wmRqatg+hybWtAYIBhqaZmQwWf6bzx0FS1GEa++C5yCqB84hOCjvDjJWCNamo1K5FF0UkqkoNkNdDEXiWLYxU52XxdjRo9yrdlGuneKrBuoBFKSHtx9S0FQDA8bMNpkABrCBCeDaVFWtNt057OZfV3sr2P5/Nom9M9Nd7FBMyk1VWymCKPahBQyYhfEEV9HJLuApgpI2QLGrtOVdqvrSqjTQ/rk0z32XtraGmGg7JXZvF3l7P6+fL04DDQMYg7F5aV4YbGcMIHNH90YYmNjVb7G2A6hwjs6WtLQ7Bwyz9mcKk2jFKmR5uNlu2STFyghx1eLD/z1xOBADbiA+RYyFMUa+L2+AarzU4GXr4PNf5FB7/uoGYIMRQ0yDGJpY02AyymbcJFc1ilQNN6COjnHZu/e9d2xvdW8Bm4cxXtnGzqjxIBcfhlmsFoaAHXA3fb20YVtVtmC6ynhqagPMC6gEawr8wmxN+Vcx37tPfkLrlF7p8WR6gg0wp/umB9BkqroKj99OmiZ1Afa8VjG1+7rrsb+oHlBnEe15yacuVs8HyFwnVHXwcTNKrnQLdCFMcccFd9C0kSUzYJ9Ql4etXtaQse81NQ33hW2+Y4PuA3XT9IN546S9UZCKscEGQydVVIpec76Ej/u6qzIrd5sMrMlZX8y44v2ZZII+iol2aakgtRwXXMTb6/LQt75ZKahGC0QfbFdkuttiT04bJqqNewH06lRc2AaSMnjcY9OgqHH2IOP+/qXz1tLhuUqrp+f7wrgX3FlaRdCIlujU/3q/a/mylSq1hp+5YFMz/Y9sRHk1vExxAavDbwBos7hyBTTv1QzYi7ajQizerW/vsSBx3NIa9+1b9p3at/2Rrel7Dc37ti16icxzWsyb4cYE7jneBeiNTvZHUqHoYXuzNzGEnSzETbN3uq0wVzMBctXwLpRNtdsPI9WEQz22qSOuRX2u096PXLvhTbY3Nyu7Z7NsRWUoqOVqud9m914ubZTK71D0ClW+U7ad2nZVNdM1tECoeozvWu45kr76uzrmZTpxoCiKVCWheJlaX3q9vTLeStOlyu1V1eAocDNPvbG5jhmMLqppnoXrcHeLkj1Irgw0a9bg/5k9F0Arqgiq7rXa3ca0IfDa9bEFFKFgXn4UGlcvYKdDQoBQ6ZGiIzLkOF4pCMWr1cuduBdV2d9+888/8PH3yvVVwrlJ13RNJqOoijcooLh8LZWZCbt/5nbf2CyUqY2qjEUOQX1JBeJDhpgJw8b53cd7OdKmtbqiQE/eITdg3QtR93Mgj7oo7bpvAQzB1lxUZi41USTNv94ZUoDQCwZ9BzmuD7kfrmZutzzHdtm+/P3P+y/LXxeAyD2EbwKWBYzUozLq7dsMTDW2ipktrmxv4Xxwmmi+uRRseq3kMpFr7V/3MsNtiYM4x+9IkXSzDS5rFhYl2Rc+Lc3SsNhoh1VNReQJoOw9EECCTPUZbqYP9gkCWH7gWUdl13aX3qqfhulTCppN17/7j2AxirecP2S8O+sDqLgw2R94gZujYz5GiRmokX3ic9ZFCsQENhn+CS833VkTR5YE0zav2nabHld41Rg8bADbc/syTfbrquJVnQsEYGoaAghTnaTXD70q+yU77SjuKs+UTQ2lbqoF8mwYMmSb8qg3qj7KAHLbbuJqGC7wgpsM1zAqVNqeijGSZFIz4S//96/uhImDigxX46uTa1yWXRZmNsuXsF806aJRm25HasiwS5PgGCZ9EMJUHwc1+p52hF/wbb/tv1DqLoiJJqenprj4xdcEIuALPLRvYwqK3YvAqFkPF0ErDlDjWAcVMeQ+Yfy6UTRd3jj76atK6jQZtg1+iRtogsEaCNzQbAYNYr6UEhU1WUxIVRIIIIwP5oYbHXzYHfR5fskYZLk4zNXdiXFzGsY+h9szDdgfoN0guhyw58cFocgKs8bWeK2KKuAIGwz9f9fuUuOnXnHBvWrqsJMgZPDznZcGTGdftulxL7vHfct06KRXUVq1+n5PoELNBOH+zOsx3L6zdWgfb92vEPpTSKD/bpp5en3/nNSemar3KbainqkPmHU6s5pzBO3C5c2nkXrmMmWjKrVNrsJA5bLIuvJ73hEPqQOo3yEsLdugqXnbt9Lg2tq+VdvaudkXUKyUzOZq7G9wb2dIiNoRJAhhyOZDzVPtLDvSdhkjWgWEtE/uUfdc51uU0X/SM0vNXcGYLJvd/ChTUA+0H1y/1OkH+rgalbkRy+ee9ZjZ33Dr0/9jJlE/7OWGfyZ5btSSaCTpvPsZ218K2zyoSqXcq+x7Paooxe6XUYRKf9M37BgQJCBQT8Xd+Jne227STod3WZ+pPtAb9LJcBr3gd3CPDQtXFXifNsE1c8t021CbXRR1fKb9KfMllGeTebcYh+HTKPjAl3qVkOz8leLmzpg8tGqsCFZIB5ykU1Wlqn1RndraekDVENuwpVmlTdfi/GXwunFgBgRcrNN3tCns1HSYTA8304Qe/dDr536qD6HHF2DenWcjaAne6n/tHsbHLE59ylhxFRt8W3yAG+3sBTjbtPoShOphUWLP7fLHumC87nULHupIn0PDVqIVawSLgfbPM61cVYBGiU1VIbDmYvMlZZ+//S/e0GtV7YDvv1m21/c+nA4TfNGn158a9Oh2EutijlqIyf++jUQLv/NgsovaZlCl7Pnxc44v6DmYqKzPxF47b4XeFLHF2mbjZn/RVbHN+YQK/3nvSALVEpjAOnFyXsYvC1ejMIABTMMGlyuslioqx095ofqy8m/TFLp/8Lat5G9WhcHBPrknSNBMQq9PQAj5AtxwOi/Ty9ZFZJ3Xo1yXzr3bjvaHm8jkecNyG9nsNlK3Jbe6wjR7/78N0I5b3+y+mkKK8X7Na9qWmzFL83RjGxnA+wIYAjxtFDKhdk372//xY77qpcD+5G1+2MSpfio1jpoueSbkHaHu1r1BN+eawm0mF+tq68QUPuNSPTw+jsNWbRSzrfJ2DlGf2XdX8DeL0m4lganlvFP5t2c9tiOB5k3VezM0C2ze4UtZGFnYl4eFxZTBuhrCqlUL49Kwo15Bvyv9clN9cgiuliBBmBqAOHJfg0wNmhHG7zQhXAY06jAHC1TZNXKtwkJu0L0FVEJRTlFo/hfm3FSmNtGabooPGN8shVBPqvA8Meb5Pi94Z1/usW2wp02P52UbG1P3auq6ea2416lQOwJgKUhAAgLBHEIwGZ7veGDj9dO4AG9u8/YoHxk3NqYmDtsPdi3YZcPyh28LucZuX4SbKPo0Ua778zC6n5BCrYFfV955tx1tSpv7VmP+XKBt9GBf2FvTRJYJhBlMw8Tn2XAzXYAL+XRwluVIiljWC5gzNDRvPEPzObCwbZZufEHfVS66BdRUXcEf7QPnuD4j5JhtkkHHxWdiJsWl1K7da+NDGGlUqhZiXDwhPJOq9lEvr76SckF9UVXxpdTAWFUNUWt5iqQ2w/Rww/jpg6RfLkUCOPPWI9B3Gp7vmPlu3LCbQbQLdoUCTCBP6pqnE++nCqILmnJxnAWosOy+DKz04x654qMPaSQHrXl8KUvd753AUK+30xlwGuhupEMgd7eYe7iz8JVnBjp+st9h0AnH7Vj3GgLKzzyot/P9ad6Rh/gjbX1ZpgP+SeBbNYrp8pB16595tW0sNke8ybCXfoL4ayrjcu9IfZKjgiKmKQ7PJJU+RdzdAuP7e2eB+rjyTK+Of5FDn7dxGdYdmCeQnkjq4FOWGwzdBG6Ea9QXfcBscmrr3N9Z6FxouF0/8Skhj7p4Rh6/h7hxo8KYstgPZQVPrvjP3IoltzWROgqXvTJBBfsjlJj8nFRqJqCH58mCJ0B4Nuf7gHM453/yZDZNbA00NbW0vo+WxJigqaER4FrG7wXaPeCcT9ysvCMDDYEpCyeepZqmMGwsCoF98AGLDdZjxL/PpRYONoLRtiUGxce90fdNJFPVAHh/0gyNyWlIZ3+nYV6Gy/5VxgbcDGD8K+1qxFrGq+PZTDPNG9MA41Zu/lXg8f7TugLrij0pu9X1y83szUA5CnY94owM8fjMZM6azPxnq0S26gVK3R9Mi5Sp3CXlwN2W3FN/iYR6jnN3m3A+F2ioTcT6zrrv7zTwsNrEAJfdmAKYoGtcHuD+bjFpV2O9nx5Yw7ZmnYBRA8P785wRBi7V+O62L/9jCAgub3mp9D7iBUtetwovJRYTUp9f40CN8KZeFKmir1xx9jd7P7iLkFCzFOtO0+Sr789mGj4nDedJA+ETA83nMO/GMvDOfYEJL+3+q8EQXjVovMA2nManbaB/opPbtFiJL7YPtozh2255bAZechOsciWIbRFalgC8ftFz9Kr9mjOS6lO0Ey/HaZqhLzXz1eYhAPOF75gePAW4uU1Ey6+CZmwMmadhiC/KRLT5/1+2YZymTUNzM42qX6tfMXcLapoq1bi0r5K+S97HGUvItYcsw+jgXrkEHVfOpy5x9BSeuUaLtGoNcV+8fk5Onixz34A6+x57mKZluDWe4c5Cz0W72rzruTDyL6a/T0z/r3xpW2w1o2tfu/m+MF05J+YafN/CNqhq3XPng7bJMy4anzK2qclynPV8l1XXMHCgldcPXmY+dKxul8oNbtIXS+S6EUDPi8676YFO0anu0AsMz3BP5/2ZjhZtBp6EOMCXQJ4K4UjLUV9UBb0exc8bP0IPSQ+DO0DZneB5XsB2DhWjhs6adTjziTWqxH5XmimT5UBagq30latk3iV6xlp2diCCraDBfen56/f37nFm8D296PtOMUQPQCBe1orW9/dn7nk6dDcWJLDE6hlWoPiiqqEam3tgiaWeAd/XjbC/7w92bf2PzOZfMkPXoh7bp5ec6W/8ES95+l15TmYyc40i5wOymXoWJCyLPK5HTyaRbBM8G4EvZT3fny3QiyfhmV50n/P9ea7QxbsRzvMd4nP4/ZkWROjodiyE0uc5aVebVD9xuv2uEa5flI4byFB1p6wltjbl0TrUrPPCOr8sF2sgWLFB1YKf2aVY2Miq1D7FQCJRrSKz7m4Lvr8/m2mAaW7UE1jfGyvPZmL8HvPOr9/BCbQlHP/6NNi8G5Nf960ZKr2ZV203E7NyEjtJLzD7f7+/19B+XJuyBfMnl9EmQ3J83diDFe8M7ZK8S/KsiNPPS3RbIhu8392YnDA5J7lPyFMMznojd6abmPI4Z/P7s2kC7/jdBjin8ECNdc7TJzPmZGO7bA15cLJ42kCzgTzrLN18c12tzGb1j72LzKCNtwZTdZSti3PW9DqQuy7OPEik25s/gYZ//d4w0NzcjPoGmsMTuRkwDWPADQgv3xvGNoANNva681IyzU1gwPDricHY+D3XpKrl8HTboaoehZF68FlQ1UCldk5k3wIbh+3TDisXRRLtaqtoU7/ynXE+38E8P4WT//0vWwwxBI3JvJoxGKbGl8W712UDzQB2M682wzyNWt/CZmqLJXCTh7iewS22RyHj5xVUXOR5tNqLUl1MdnDcW64y0GNjv+tbrBSuVPkuIl+hgRhNQx73dyYa3LcGAgb65fvNGtfAnJ6X+k/5T/4kGGi4XcNv0Xw73wfI48LX0PDtYmpY6Ev66fIw1zOg/qvw1DxVPPPMFt5VEVQOf2nFJP/ZquX9VrS6qd9tS10RXCLSKSQCzifpKXvgwahzwre49RxLx+JlM3AbMDgxz3cgfCn/IzUMcA7fS6GJYPsa9tR9AzTDvYZ6zqSJB+TKuQraMKl/5eBrwnpT1FV8XYnCqlBRLQW/tEK54ctdy7PdzrMfuPOTl+lIxRvsi1V8K179RgG8vXP4HQ7Cy557wGR+f3d3oD2rFzDu9YwSYNwA3t7pBQMBz0D3Nb2aACQenGXSAE3wgBLVtqbeNo1rcvBr/m8AfY7rHrfixXt/lHS8jVX/TxHo+cZ+7E4D/Gt3W+KN9wGdle9uhnCHdS1Q33dGQa/vG5bCIn11/3qy7/Vc3xcaiL5RbZviSbxDm4yWLiJJqgJgNKmSVLUbGC2NduuKo1NnSy+vd4i3VOWvSMrdCMc5mwlHjlaP4XMYeH/jnSMYzhXw+xe8G66ROzPPVnCfuU9CAu8xaDp9382r6YY4tHdgE1PPHdAACA1qIvVAE18ToqXkbSfNirBSMz5xa7ZXSNpbMSK4ImnZNhWcA2huXofg1yc0//pktBtvvMwTDLiBGxjIE1h6YtsYG7Bxw6y7YX1n3dktspYO1DHaZKRGY6RZE7yyLmK08aptjS4iLlFPc9Hv9g26S3MFvSOK6xE9r9BOyuILRo70hgfn5Jy8PBe8nbC4f07wfk79YmxNznlO0g0nMM/5fk1rWkyD86RVx+fk9Tp5KkYJFlcPKIJukpjQDPUigm5WtcXA648Yl6KbiXNWWqstC4ikT/5VDJ/CFzRMw818tRmam5sJNBu+vxvAvNp835AnNoDfFLu55UkzefKymde1oS4YtNGAwat2UuLJHX7qycuVI3ts7PZ0tK8KkfWVv7KBhnj5bZ9m9NCYgjZPD+CcGP16n7eGPRFDNA9Brx488MVa+RLWhc1AjSc1BL1IrMvrJvECdULdNYHLajKv7NWB0Kp5pzvYJYJjmNMKiLJXTRkD5+RbcR5s+iLfzFf7wnRpoXSthnl5Tr7+XEDe351IrL679n0D9/EZTwBtIPGQFJnAXnr3qVWkYOmKnZ+xvmKHZTMg2j75ute3LYa+UUMAQwfkCByBYwlYhJEelr/U9OoFHYo2BeRYp58mr7JF8xD0olffigQ/SQlJKRAKpptBUQ1WPXOiWRDzTBuNJzoCUffF9nAQ+m59cb7R2J3V/c7g1b7QQIt7/OtN/Wr7vu9uG75n3GtoiXUt226LzuLORn3fN/S6bwCV5OwxLSK4qQ+Z4V1+wWWKdZWHWPsBEfhJRHyrI4/NYzaTI7w88sb7G7zz9v5sCfid92cLOF+Adi+eAXjGCe+8k0RxgKFnqyd5Vg/gsIknzSckJi07S57uLP0pPZ5DjQPeNyMSf4p0hGPRFx0aYFpg6A3gV+Ant/X9V9FMnu9ed+cJkCd50rLOvMH7e8taeGicbvs7kHHHzQBZCyupIVPP+wOztetaDhO9hkFHNyQilxFtttL4kszr6ZNzPQfi12cbbgZZqOFxwoTcJ5xMUJtoWm4MXyYXMzwFA8QIz6RGABQZVxyb2GFZu+NQ9/QzfSarAiWSCF0nRB1DwDlfgecnywOa+eqp9Q5YiIE5J9BwMxpaUeAyBvDln54TDc4Jea7vgBLqYqb+dPcfWbLKMTe2p0GvmuUxcwHRuhqsTnMzNL/oi4a/1mK/P3sAvwSam6FhmluZpyfGDbc30uCHzAnNAM3NMLHiGD12QTtrl7tjeZfp9EaZr5ECiNZbO+G5roH6p3iCeS6N00NtImgTBCy0NDlNc6/GswavakgbkDo4T2INSNIUQCEoRHFN1IeOlYzve+imR61kRelj2bwkEbzNSw3gPkAb+Hnzo++LOz1Aw5j7pvm+X+kaeEg8JConFc9eJx7gU8ue0b9ducoxo9m+5vkmI4BI3hxn9WLA3eng0AM9rz1qQJ4hPTzxe8fN4dXuVrzqLBMTjyinMY3pJiBKFK8/NvM7d63lcley8L/5qhaR/Ue71wCeZw3ge2Pf2zzxuq9H8fNG6/2+CE+0kH993gbfF+pe6O3caU4rQyGgXEbq2w0AbdoNNVo7cuL6BbZmPWVxXvN3ifCPRzOEJ63u+wl5Enp4mPT0ACHPE7mRpyZ5NkOjnoR5j9NgqIvBOq1C3bc1ptFGVQK7/81o5tm9bhFsBYqIPz/U9b1tvudJmwhg/YzbFOM0zY31fWhdi+R7m2J9Z5yGtr+vp2jkKQau2WzXA0obqRtkqhocnzA2y6ZuT0rZScyERP86J0C7Pg26z9znOc/JOZs5d08nEF6e14lzTjg/jV8W+z5b8dSAuHrQKnf1UC+KXDlzNg1MtadkecQO5njhckAs2A1tCmhuGJrTWfdxGuBRbX2H/jlpYczz3bxshmbypJnE67yVeNAG9C9VnQVPV8aShA21h4M1LLHhY+fJSw3Ei/ZDFEND4/TQyBO48f5U2xpa5zznvQYakKdAG/FVapEElKipzyzM6Gqw7EJXElvKHMouAsSHKl5vbub1hzav52Fo5lVzz0/P8LJX3fvmZUoOiQf1w+WxXamLBjvYa7/KYS5LCWJF7XvfYgjoxRA8iscWPIohhp5Lr9DJvA3R67kEPEOvjifx8JkVQ2HskjXWrG2vok9l04IdAuLFg8d9d23U93fSvYB729wZrXg1fG9LPRhugx/5neYFqclS9e/lPRdtMDDqQJs+nY1N5yiJH3ueBOBJizuG5nN3aA7QoQW/E8CBJ+RJw+EZN57WXakyoePcwfvdMNieOKt13rZDQvx4oh7o+WIW30k3zXmwfzbN685S51frV/ErgID3jtcd8ILv5D4+d/zQ3u0eut6fXy59u1kaYspA92l2uxuaYYh1B9YdBlrf38+rWZJANLPuBhii+R/95B988h/lsQ92+9KuUC7W6Y4hrjSdPM/JV5vJvfX986aZV5sxbuZ1n7OZ1//z/+At//Rfc+1fd7X95RezGFkSWZIQX9aE7QYK/B60MQDasGdtAB3qBo2ZAAXeAlLAGmhUybJhZGb3Hmdf243oo4vrV4g7nUIJaQmBuklyA6pAkOZKm8QjJE1RonRAiXYekqYkRaQetHrJ3UfOO3P7dk8a7IK+v9Ii7tQoxUQDGDxQA+KBNE9zgDyFmkB59jqRWvCSQ0bjDKmedaXDC90tqJDEoB0h/wAti6R5kQGmfYqxAKIQlXgEha+K0hQFgkIUoeIZOXXOxLOXexxtsU6FJB4tIjMsLWXqOc4DtDwqt64eVObqOXvpLM46224oV7aUj33s4Wz7uzd5rxs7EJ8ucK7apepQOGMdkNWAAWssibFOG9AYyNJmu9EGKAY+tGatv/7ahhskZ+YSqz718sLKTBxKFyneWtsymcpAoQlKbItrqjzNU4woUZ96pf+f1WJu3h3sVu8hMRnx6irphuz85Kc6tDdgHVDPHROtwzqUbdsaYaDxoVVn7czZPbo7HSK2eTdLOxXEryttetYtuxQ12KDEWhRgQBttwCbOM1HUK1ROmdOwu9+BvH1VNiKrFcSya8CO9inOKBVYqAelAAVog4BPBYWgDpZPqNisWu7qzm5g+5yHKIlr50jef80Wj/WnHQUghn3UholTFWP1iPlt19/egbi9ZQbZbgUx7iBxSnTu69vdPbcUgW7le9IGbQDUlUaPnGXsv7sb1+mJMpS4QkLMu415mMN9gG87ZixptNkLSDxwcPyYqs3K1e66ukMNuim9mf9O7Puvn/8Y433A77jkvB25Br8X0KoaR0+dD7Y+7IZRV6eu0M6PJB5W51d91IM+/H90phYl7OUrjO1r+jd60rWuLFiqslA7U1kAsXH4nWLcR/7SxwClMaXUokCgwK0Gx8+9mLOa2Xp7j99knnSxslNBvPwlF6g+Enlfxvv/ah5l1YqmyLQ7nKv+Z90lTvUUmo+LZImjP/T5XnGcuBiOgU5yLjET/nEVEGMr4Yn9f+r/U/+f+v/U/6f+P/X/ayIGAA==;" parent="1" vertex="1">
          <mxGeometry x="-1420.25" y="2979" width="30" height="30" as="geometry" />
        </mxCell>
        <mxCell id="W49r3LArJMThDxM0YYQx-14" style="edgeStyle=orthogonalEdgeStyle;rounded=0;orthogonalLoop=1;jettySize=auto;html=1;exitX=0.5;exitY=1;exitDx=0;exitDy=0;endArrow=none;endFill=0;entryX=1;entryY=0.5;entryDx=0;entryDy=0;" edge="1" parent="1" source="hI1MMncq5XGI64NFk41I-179" target="W49r3LArJMThDxM0YYQx-15">
          <mxGeometry relative="1" as="geometry">
            <mxPoint x="-940" y="3430" as="targetPoint" />
            <Array as="points">
              <mxPoint x="-929" y="3400" />
            </Array>
          </mxGeometry>
        </mxCell>
        <mxCell id="hI1MMncq5XGI64NFk41I-179" value="Customer" style="shape=image;html=1;verticalAlign=top;verticalLabelPosition=bottom;labelBackgroundColor=#ffffff;imageAspect=0;aspect=fixed;image=https://cdn1.iconfinder.com/data/icons/CrystalClear/128x128/kdm/user_male.png;fontSize=11;" parent="1" vertex="1">
          <mxGeometry x="-953" y="3226.0000000000005" width="48" height="48" as="geometry" />
        </mxCell>
        <mxCell id="hI1MMncq5XGI64NFk41I-180" value="" style="edgeStyle=orthogonalEdgeStyle;rounded=0;orthogonalLoop=1;jettySize=auto;html=1;endArrow=none;endFill=0;" parent="1" source="hI1MMncq5XGI64NFk41I-181" target="hI1MMncq5XGI64NFk41I-184" edge="1">
          <mxGeometry relative="1" as="geometry" />
        </mxCell>
        <mxCell id="dRDNByvPZef29nKmzsrK-8" style="edgeStyle=orthogonalEdgeStyle;rounded=0;orthogonalLoop=1;jettySize=auto;html=1;exitX=0;exitY=0.75;exitDx=0;exitDy=0;entryX=1;entryY=0.75;entryDx=0;entryDy=0;" parent="1" source="hI1MMncq5XGI64NFk41I-181" target="hI1MMncq5XGI64NFk41I-95" edge="1">
          <mxGeometry relative="1" as="geometry" />
        </mxCell>
        <mxCell id="hI1MMncq5XGI64NFk41I-181" value="GOV.UK Notify" style="rounded=1;whiteSpace=wrap;html=1;verticalAlign=top;fontSize=12;" parent="1" vertex="1">
          <mxGeometry x="-1240" y="3215.000000000001" width="140" height="70" as="geometry" />
        </mxCell>
        <mxCell id="hI1MMncq5XGI64NFk41I-182" value="" style="shape=image;verticalLabelPosition=bottom;labelBackgroundColor=default;verticalAlign=top;aspect=fixed;imageAspect=0;image=https://www.vectorlogo.zone/logos/govuk/govuk-ar21.png;" parent="1" vertex="1">
          <mxGeometry x="-1210" y="3239.2300000000005" width="80" height="40" as="geometry" />
        </mxCell>
        <mxCell id="hI1MMncq5XGI64NFk41I-183" value="" style="edgeStyle=orthogonalEdgeStyle;rounded=0;orthogonalLoop=1;jettySize=auto;html=1;" parent="1" source="hI1MMncq5XGI64NFk41I-184" target="hI1MMncq5XGI64NFk41I-179" edge="1">
          <mxGeometry relative="1" as="geometry" />
        </mxCell>
        <mxCell id="hI1MMncq5XGI64NFk41I-184" value="email" style="outlineConnect=0;dashed=0;verticalLabelPosition=bottom;verticalAlign=top;align=center;html=1;shape=mxgraph.aws3.email;fillColor=#D9A741;gradientColor=none;aspect=fixed;" parent="1" vertex="1">
          <mxGeometry x="-1046" y="3238.6100000000006" width="30" height="22.78" as="geometry" />
        </mxCell>
        <mxCell id="hI1MMncq5XGI64NFk41I-186" value="Statement Receiver" style="rounded=1;whiteSpace=wrap;html=1;verticalAlign=top;fontSize=12;" parent="1" vertex="1">
          <mxGeometry x="-1478.25" y="3080" width="140" height="70" as="geometry" />
        </mxCell>
        <mxCell id="hI1MMncq5XGI64NFk41I-187" value="Retreive and cache statements from CRM." style="text;html=1;strokeColor=none;fillColor=none;align=left;verticalAlign=top;whiteSpace=wrap;rounded=0;" parent="1" vertex="1">
          <mxGeometry x="-1475.37" y="3150" width="145" height="43" as="geometry" />
        </mxCell>
        <mxCell id="hI1MMncq5XGI64NFk41I-188" value="" style="aspect=fixed;html=1;points=[];align=center;image;fontSize=12;image=img/lib/azure2/compute/Kubernetes_Services.svg;" parent="1" vertex="1">
          <mxGeometry x="-1425.63" y="3107.9999999999995" width="30" height="26.47" as="geometry" />
        </mxCell>
        <mxCell id="W49r3LArJMThDxM0YYQx-32" style="edgeStyle=orthogonalEdgeStyle;rounded=0;orthogonalLoop=1;jettySize=auto;html=1;exitX=1;exitY=0.25;exitDx=0;exitDy=0;entryX=1;entryY=0.5;entryDx=0;entryDy=0;" edge="1" parent="1" source="W49r3LArJMThDxM0YYQx-2" target="hI1MMncq5XGI64NFk41I-186">
          <mxGeometry relative="1" as="geometry">
            <Array as="points">
              <mxPoint x="-1310" y="3364" />
              <mxPoint x="-1310" y="3115" />
            </Array>
          </mxGeometry>
        </mxCell>
        <mxCell id="W49r3LArJMThDxM0YYQx-2" value="Statement Web" style="rounded=1;whiteSpace=wrap;html=1;verticalAlign=top;fontSize=12;" vertex="1" parent="1">
          <mxGeometry x="-1477.75" y="3347" width="140" height="70" as="geometry" />
        </mxCell>
        <mxCell id="W49r3LArJMThDxM0YYQx-3" value="" style="aspect=fixed;html=1;points=[];align=center;image;fontSize=12;image=img/lib/azure2/compute/Kubernetes_Services.svg;" vertex="1" parent="1">
          <mxGeometry x="-1422.75" y="3375.87" width="30" height="26.47" as="geometry" />
        </mxCell>
        <mxCell id="W49r3LArJMThDxM0YYQx-4" value="View web statements online." style="text;html=1;strokeColor=none;fillColor=none;align=left;verticalAlign=top;whiteSpace=wrap;rounded=0;" vertex="1" parent="1">
          <mxGeometry x="-1477.25" y="3417" width="145" height="43" as="geometry" />
        </mxCell>
        <mxCell id="W49r3LArJMThDxM0YYQx-6" value="" style="edgeStyle=orthogonalEdgeStyle;rounded=0;orthogonalLoop=1;jettySize=auto;html=1;endArrow=none;endFill=0;exitX=1;exitY=0.75;exitDx=0;exitDy=0;startArrow=classic;startFill=1;entryX=0;entryY=0.5;entryDx=0;entryDy=0;" edge="1" parent="1" source="W49r3LArJMThDxM0YYQx-2" target="W49r3LArJMThDxM0YYQx-15">
          <mxGeometry relative="1" as="geometry">
            <mxPoint x="-1180" y="3400" as="sourcePoint" />
            <mxPoint x="-1045.5" y="3381.6" as="targetPoint" />
            <Array as="points">
              <mxPoint x="-1090" y="3400" />
              <mxPoint x="-1060" y="3400" />
            </Array>
          </mxGeometry>
        </mxCell>
      </root>
    </mxGraphModel>
  </diagram>
</mxfile>
